<svg width="33" height="33" viewBox="0 0 33 33" fill="none" xmlns="http://www.w3.org/2000/svg">
<g clip-path="url(#clip0_359_28181)">
<path opacity="0.2" fill-rule="evenodd" clip-rule="evenodd" d="M5.15625 5.67188H15.9844V27.3281H5.15625V5.67188Z" fill="#134FAE"/>
<path fill-rule="evenodd" clip-rule="evenodd" d="M16.5 5.67188H15.4688V27.3281H16.5V5.67188Z" fill="#0093FF"/>
<path d="M29.1328 4.38281V11.8594C29.1316 12.1931 29.001 12.5134 28.7685 12.7529C28.536 12.9923 28.2197 13.1322 27.8861 13.1432C27.5525 13.1541 27.2277 13.0353 26.9799 12.8116C26.7322 12.5879 26.5809 12.2769 26.5578 11.9439L26.5547 11.8594V6.96094H21.6562C21.3291 6.96086 21.0141 6.83636 20.7754 6.61269C20.5366 6.38903 20.3917 6.08292 20.3703 5.75644L20.3672 5.67188C20.3673 5.34469 20.4918 5.02977 20.7154 4.79098C20.9391 4.55218 21.2452 4.40737 21.5717 4.38591L21.6562 4.38281H29.1328ZM29.1328 28.6172V21.1406C29.1316 20.8069 29.001 20.4866 28.7685 20.2471C28.536 20.0077 28.2197 19.8678 27.8861 19.8568C27.5525 19.8459 27.2277 19.9647 26.9799 20.1884C26.7322 20.4121 26.5809 20.7231 26.5578 21.0561L26.5547 21.1406V26.0391H21.6562C21.3291 26.0391 21.0141 26.1636 20.7754 26.3873C20.5366 26.611 20.3917 26.9171 20.3703 27.2436L20.3672 27.3281C20.3673 27.6553 20.4918 27.9702 20.7154 28.209C20.9391 28.4478 21.2452 28.5926 21.5717 28.6141L21.6562 28.6172H29.1328ZM3.86719 4.38281V11.8594C3.86837 12.1931 3.99897 12.5134 4.23149 12.7529C4.46402 12.9923 4.78035 13.1322 5.11393 13.1432C5.44752 13.1541 5.77235 13.0353 6.02008 12.8116C6.26781 12.5879 6.41914 12.2769 6.44222 11.9439L6.44531 11.8594V6.96094H11.3438C11.6709 6.96086 11.9859 6.83636 12.2246 6.61269C12.4634 6.38903 12.6083 6.08292 12.6297 5.75644L12.6328 5.67188C12.6327 5.34469 12.5082 5.02977 12.2846 4.79098C12.0609 4.55218 11.7548 4.40737 11.4283 4.38591L11.3438 4.38281H3.86719ZM3.86719 28.6172V21.1406C3.86837 20.8069 3.99897 20.4866 4.23149 20.2471C4.46402 20.0077 4.78035 19.8678 5.11393 19.8568C5.44752 19.8459 5.77235 19.9647 6.02008 20.1884C6.26781 20.4121 6.41914 20.7231 6.44222 21.0561L6.44531 21.1406V26.0391H11.3438C11.6709 26.0391 11.9859 26.1636 12.2246 26.3873C12.4634 26.611 12.6083 26.9171 12.6297 27.2436L12.6328 27.3281C12.6327 27.6553 12.5082 27.9702 12.2846 28.209C12.0609 28.4478 11.7548 28.5926 11.4283 28.6141L11.3438 28.6172H3.86719Z" fill="#134FAE"/>
</g>
<defs>
<clipPath id="clip0_359_28181">
<rect width="33" height="33" fill="white"/>
</clipPath>
</defs>
</svg>
