<svg width="282" height="271" viewBox="0 0 282 271" fill="none" xmlns="http://www.w3.org/2000/svg">
<path d="M282 0V83.6064C281.987 87.3387 280.529 90.9203 277.934 93.5978C275.339 96.2753 271.808 97.8398 268.085 97.9623C264.361 98.0848 260.736 96.7557 257.971 94.2546C255.206 91.7535 253.517 88.2754 253.259 84.552L253.224 83.6064V28.8298H198.551C194.899 28.8289 191.384 27.4367 188.719 24.9356C186.054 22.4344 184.437 19.0114 184.198 15.3605L184.163 14.4149C184.164 10.7561 185.554 7.23461 188.05 4.56427C190.547 1.89393 193.963 0.274608 197.607 0.0345932L198.551 0H282ZM282 271V187.394C281.987 183.661 280.529 180.08 277.934 177.402C275.339 174.725 271.808 173.16 268.085 173.038C264.361 172.915 260.736 174.244 257.971 176.745C255.206 179.247 253.517 182.725 253.259 186.448L253.224 187.394V242.17H198.551C194.899 242.171 191.384 243.563 188.719 246.064C186.054 248.566 184.437 251.989 184.198 255.639L184.163 256.585C184.164 260.244 185.554 263.765 188.05 266.436C190.547 269.106 193.963 270.725 197.607 270.965L198.551 271H282ZM0 0V83.6064C0.0132233 87.3387 1.47083 90.9203 4.06615 93.5978C6.66147 96.2753 10.1922 97.8398 13.9154 97.9623C17.6387 98.0848 21.2642 96.7557 24.0293 94.2546C26.7944 91.7535 28.4834 88.2754 28.741 84.552L28.7755 83.6064V28.8298H83.449C87.1009 28.8289 90.6157 27.4367 93.2811 24.9356C95.9464 22.4344 97.5626 19.0114 97.8022 15.3605L97.8367 14.4149C97.8358 10.7561 96.4463 7.23461 93.9499 4.56427C91.4534 1.89393 88.0368 0.274608 84.3928 0.0345932L83.449 0C50.8601 0 32.5889 0 0 0ZM0 271V187.394C0.0132233 183.661 1.47083 180.08 4.06615 177.402C6.66147 174.725 10.1922 173.16 13.9154 173.038C17.6387 172.915 21.2642 174.244 24.0293 176.745C26.7944 179.247 28.4834 182.725 28.741 186.448L28.7755 187.394V242.17H83.449C87.1009 242.171 90.6157 243.563 93.2811 246.064C95.9464 248.566 97.5626 251.989 97.8022 255.639L97.8367 256.585C97.8358 260.244 96.4463 263.765 93.9499 266.436C91.4534 269.106 88.0368 270.725 84.3928 270.965L83.449 271H0Z" fill="white"/>
</svg>
