<svg width="101" height="95" viewBox="0 0 101 95" fill="none" xmlns="http://www.w3.org/2000/svg">
<path d="M99.1605 76.9398L60.7416 6.17642C59.7244 4.30759 58.2222 2.74758 56.3931 1.66063C54.564 0.573674 52.4757 0 50.348 0C48.2203 0 46.1319 0.573674 44.3028 1.66063C42.4737 2.74758 40.9715 4.30759 39.9543 6.17642L1.49601 76.9398C0.489412 78.7466 -0.026049 80.7856 0.00101324 82.8537C0.0280755 84.9218 0.596715 86.9467 1.65025 88.7265C2.70379 90.5064 4.20542 91.979 6.00547 92.9976C7.80552 94.0162 9.84111 94.5453 11.9093 94.532H88.7471C90.7984 94.5339 92.8149 94.0025 94.5989 92.9899C96.3829 91.9774 97.873 90.5186 98.9231 88.7564C99.9732 86.9943 100.547 84.9895 100.589 82.9387C100.63 80.8878 100.138 78.8613 99.1605 77.0581V76.9398ZM44.451 26.4509C44.451 24.8817 45.0744 23.3767 46.184 22.2671C47.2936 21.1576 48.7985 20.5342 50.3677 20.5342C51.9369 20.5342 53.4418 21.1576 54.5514 22.2671C55.661 23.3767 56.2843 24.8817 56.2843 26.4509V53.6281C56.2843 55.1973 55.661 56.7022 54.5514 57.8118C53.4418 58.9214 51.9369 59.5448 50.3677 59.5448C48.7985 59.5448 47.2936 58.9214 46.184 57.8118C45.0744 56.7022 44.451 55.1973 44.451 53.6281V26.4509ZM50.5255 79.7403C49.1836 79.7403 47.8719 79.3424 46.7562 78.5969C45.6405 77.8514 44.7709 76.7918 44.2574 75.5522C43.7439 74.3125 43.6096 72.9483 43.8714 71.6323C44.1332 70.3162 44.7793 69.1074 45.7281 68.1585C46.677 67.2097 47.8858 66.5636 49.2019 66.3018C50.5179 66.04 51.8821 66.1744 53.1217 66.6879C54.3614 67.2013 55.421 68.0709 56.1665 69.1866C56.912 70.3023 57.3099 71.614 57.3099 72.9559C57.3099 74.7552 56.5951 76.4809 55.3228 77.7532C54.0504 79.0255 52.3248 79.7403 50.5255 79.7403Z" fill="#134FAE"/>
</svg>
