<svg width="243" height="123" viewBox="0 0 243 123" fill="none" xmlns="http://www.w3.org/2000/svg">
<path id="Combined Shape" opacity="0.745652" fill-rule="evenodd" clip-rule="evenodd" d="M61.2251 0.0182886L51.9321 34.7864L110.169 34.801C101.906 42.2686 94.4395 59.8185 94.4395 59.8185L9.47034 59.7651L0 94.575L84.6726 94.6292C84.4577 106.986 87.2523 119.759 87.2523 119.759H29.2211L28.44 122.682H216.007C225.966 110.969 234.542 95.1115 239.754 73.7107C252.839 19.9714 216.711 -0.396058 186.856 0.00582081L61.2251 0.0182886ZM151.771 118.877C159.237 118.881 180.946 117.336 193.071 80.8066C206.378 40.7129 186.358 34.3973 176.515 34.2473C169.057 34.1343 143.997 34.1107 132.296 76.7566C121.216 117.137 144.303 118.87 151.771 118.877Z" fill="#0653AF"/>
</svg>
