<svg width="44" height="44" viewBox="0 0 44 44" fill="none" xmlns="http://www.w3.org/2000/svg">
<g filter="url(#filter0_dd_359_20543)">
<circle cx="22" cy="18" r="14" fill="white"/>
</g>
<rect x="14" y="10" width="16" height="16" fill="white" fill-opacity="0.01"/>
<path fill-rule="evenodd" clip-rule="evenodd" d="M23.1882 11.2856L15.3002 18.9713C15.1082 19.1594 15 19.4169 15 19.6857V23.9909C15 24.5432 15.4477 24.9909 16 24.9909H20.307C20.5756 24.9909 20.8328 24.8829 21.0209 24.6911L28.7139 16.8096C29.0981 16.4179 29.095 15.7898 28.7069 15.402L24.5949 11.2927C24.2072 10.9052 23.5798 10.9021 23.1882 11.2856ZM23.881 13.406L26.592 16.116L25.2822 17.4588L22.5365 14.7149L23.881 13.406ZM21.1033 16.1102L17 20.105V22.99H19.887L23.8856 18.8906L21.1033 16.1102Z" fill="#8A9AB4"/>
<defs>
<filter id="filter0_dd_359_20543" x="0" y="0" width="44" height="44" filterUnits="userSpaceOnUse" color-interpolation-filters="sRGB">
<feFlood flood-opacity="0" result="BackgroundImageFix"/>
<feColorMatrix in="SourceAlpha" type="matrix" values="0 0 0 0 0 0 0 0 0 0 0 0 0 0 0 0 0 0 127 0" result="hardAlpha"/>
<feOffset dy="4"/>
<feGaussianBlur stdDeviation="4"/>
<feColorMatrix type="matrix" values="0 0 0 0 0.0862745 0 0 0 0 0.129412 0 0 0 0 0.2 0 0 0 0.16 0"/>
<feBlend mode="normal" in2="BackgroundImageFix" result="effect1_dropShadow_359_20543"/>
<feColorMatrix in="SourceAlpha" type="matrix" values="0 0 0 0 0 0 0 0 0 0 0 0 0 0 0 0 0 0 127 0" result="hardAlpha"/>
<feOffset dy="2"/>
<feGaussianBlur stdDeviation="2"/>
<feColorMatrix type="matrix" values="0 0 0 0 0.0862745 0 0 0 0 0.129412 0 0 0 0 0.2 0 0 0 0.08 0"/>
<feBlend mode="normal" in2="effect1_dropShadow_359_20543" result="effect2_dropShadow_359_20543"/>
<feBlend mode="normal" in="SourceGraphic" in2="effect2_dropShadow_359_20543" result="shape"/>
</filter>
</defs>
</svg>
