<svg width="24" height="24" viewBox="0 0 24 24" fill="none" xmlns="http://www.w3.org/2000/svg">
<rect width="24" height="24" fill="white" fill-opacity="0.01"/>
<path fill-rule="evenodd" clip-rule="evenodd" d="M2 12C2 6.47715 6.47715 2 12 2C17.5228 2 22 6.47715 22 12C22 17.5228 17.5228 22 12 22C6.47715 22 2 17.5228 2 12ZM20 12C20 7.58172 16.4183 4 12 4C7.58172 4 4 7.58172 4 12C4 16.4183 7.58172 20 12 20C16.4183 20 20 16.4183 20 12ZM8.14667 8.66816C8.79391 6.82822 10.6738 5.72337 12.5962 6.05311C14.5186 6.38285 15.9229 8.05103 15.92 10C15.92 11.2797 15.1618 12.2906 13.9747 13.0821C13.6502 13.2984 13.3286 13.4773 13.0316 13.6211L12.92 13.672V14.0135C12.92 14.5263 12.534 14.949 12.0366 15.0067L11.92 15.0135C11.4072 15.0135 10.9845 14.6274 10.9267 14.1301L10.92 14.0135V13C10.92 12.6087 11.1476 12.2573 11.4958 12.0944L11.7904 11.9807L11.9826 11.8987C12.2857 11.764 12.5884 11.6025 12.8653 11.4179C13.5532 10.9594 13.92 10.4703 13.92 9.99851C13.9215 9.02328 13.2193 8.18919 12.2581 8.02432C11.3503 7.86861 10.4615 8.35271 10.0929 9.18198L10.0333 9.33184C9.85006 9.85283 9.27915 10.1266 8.75816 9.94333C8.23717 9.76006 7.96339 9.18915 8.14667 8.66816ZM13.01 17C13.01 16.4477 12.5623 16 12.01 16L11.8834 16.0067C11.386 16.0645 11 16.4872 11 17C11 17.5523 11.4477 18 12 18L12.1266 17.9933C12.624 17.9355 13.01 17.5128 13.01 17Z" fill="#134FAE"/>
</svg>
