<svg width="147" height="26" viewBox="0 0 147 26" fill="none" xmlns="http://www.w3.org/2000/svg">
<rect width="147" height="26" rx="10" fill="#5FCC29"/>
<path d="M16.1953 14.25C17.2308 14.25 18.0703 13.4105 18.0703 12.375C18.0703 11.3395 17.2308 10.5 16.1953 10.5C15.1598 10.5 14.3203 11.3395 14.3203 12.375C14.3203 13.4105 15.1598 14.25 16.1953 14.25Z" stroke="white" stroke-width="1.2" stroke-linecap="round" stroke-linejoin="round"/>
<path d="M13.7742 16.125C13.9129 15.5883 14.226 15.113 14.6642 14.7736C15.1024 14.4342 15.641 14.25 16.1953 14.25C16.7496 14.25 17.2882 14.4341 17.7265 14.7735C18.1647 15.1128 18.4778 15.5882 18.6166 16.1248" stroke="white" stroke-width="1.2" stroke-linecap="round" stroke-linejoin="round"/>
<path d="M25.875 6.75H12.125C11.7798 6.75 11.5 7.02982 11.5 7.375V18.625C11.5 18.9702 11.7798 19.25 12.125 19.25H25.875C26.2202 19.25 26.5 18.9702 26.5 18.625V7.375C26.5 7.02982 26.2202 6.75 25.875 6.75Z" stroke="white" stroke-width="1.2" stroke-linecap="round" stroke-linejoin="round"/>
<path d="M24 13L22 15L21 14" stroke="white" stroke-width="1.1" stroke-linecap="round" stroke-linejoin="round"/>
<path d="M33.996 17V9.152H35.388V12.716H35.424L38.22 9.152H39.768L37.356 12.212L40.176 17H38.64L36.516 13.304L35.388 14.708V17H33.996ZM41.0362 17V11.108H42.4162V17H41.0362ZM41.7322 10.076C41.4842 10.076 41.2842 10.004 41.1322 9.86C40.9802 9.716 40.9042 9.524 40.9042 9.284C40.9042 9.052 40.9802 8.864 41.1322 8.72C41.2842 8.576 41.4842 8.504 41.7322 8.504C41.9802 8.504 42.1802 8.576 42.3322 8.72C42.4842 8.864 42.5602 9.052 42.5602 9.284C42.5602 9.524 42.4842 9.716 42.3322 9.86C42.1802 10.004 41.9802 10.076 41.7322 10.076ZM44.1768 17V11.108H45.3168L45.4128 11.912H45.4608C45.7088 11.648 45.9768 11.424 46.2648 11.24C46.5608 11.056 46.8928 10.964 47.2608 10.964C47.6928 10.964 48.0368 11.06 48.2928 11.252C48.5568 11.436 48.7568 11.692 48.8928 12.02C49.1728 11.716 49.4648 11.464 49.7688 11.264C50.0808 11.064 50.4208 10.964 50.7888 10.964C51.4128 10.964 51.8728 11.168 52.1688 11.576C52.4648 11.984 52.6128 12.56 52.6128 13.304V17H51.2208V13.484C51.2208 12.996 51.1448 12.652 50.9928 12.452C50.8488 12.252 50.6248 12.152 50.3208 12.152C49.9528 12.152 49.5408 12.396 49.0848 12.884V17H47.7048V13.484C47.7048 12.996 47.6288 12.652 47.4768 12.452C47.3328 12.252 47.1048 12.152 46.7928 12.152C46.4248 12.152 46.0128 12.396 45.5568 12.884V17H44.1768ZM55.6341 17.144C55.1461 17.144 54.7981 16.996 54.5901 16.7C54.3901 16.404 54.2901 16 54.2901 15.488V8.528H55.6701V15.56C55.6701 15.728 55.7021 15.848 55.7661 15.92C55.8301 15.984 55.8981 16.016 55.9701 16.016C56.0021 16.016 56.0301 16.016 56.0541 16.016C56.0861 16.008 56.1301 16 56.1861 15.992L56.3661 17.024C56.2861 17.056 56.1821 17.084 56.0541 17.108C55.9341 17.132 55.7941 17.144 55.6341 17.144ZM57.5479 17V11.108H58.9279V17H57.5479ZM58.2439 10.076C57.9959 10.076 57.7959 10.004 57.6439 9.86C57.4919 9.716 57.4159 9.524 57.4159 9.284C57.4159 9.052 57.4919 8.864 57.6439 8.72C57.7959 8.576 57.9959 8.504 58.2439 8.504C58.4919 8.504 58.6919 8.576 58.8439 8.72C58.9959 8.864 59.0719 9.052 59.0719 9.284C59.0719 9.524 58.9959 9.716 58.8439 9.86C58.6919 10.004 58.4919 10.076 58.2439 10.076ZM62.7405 19.604C62.2765 19.604 61.8565 19.548 61.4805 19.436C61.1125 19.324 60.8205 19.152 60.6045 18.92C60.3965 18.696 60.2925 18.412 60.2925 18.068C60.2925 17.58 60.5725 17.16 61.1325 16.808V16.76C60.9805 16.664 60.8525 16.536 60.7485 16.376C60.6525 16.216 60.6045 16.016 60.6045 15.776C60.6045 15.544 60.6685 15.336 60.7965 15.152C60.9325 14.96 61.0845 14.804 61.2525 14.684V14.636C61.0525 14.484 60.8725 14.272 60.7125 14C60.5605 13.728 60.4845 13.42 60.4845 13.076C60.4845 12.62 60.5925 12.236 60.8085 11.924C61.0245 11.612 61.3085 11.376 61.6605 11.216C62.0205 11.048 62.4045 10.964 62.8125 10.964C62.9725 10.964 63.1245 10.98 63.2685 11.012C63.4205 11.036 63.5565 11.068 63.6765 11.108H65.7885V12.128H64.7085C64.8045 12.24 64.8845 12.384 64.9485 12.56C65.0125 12.728 65.0445 12.916 65.0445 13.124C65.0445 13.556 64.9445 13.924 64.7445 14.228C64.5445 14.524 64.2765 14.748 63.9405 14.9C63.6045 15.052 63.2285 15.128 62.8125 15.128C62.6845 15.128 62.5525 15.116 62.4165 15.092C62.2805 15.068 62.1445 15.028 62.0085 14.972C61.9205 15.052 61.8485 15.132 61.7925 15.212C61.7445 15.292 61.7205 15.4 61.7205 15.536C61.7205 15.704 61.7885 15.836 61.9245 15.932C62.0685 16.028 62.3205 16.076 62.6805 16.076H63.7245C64.4365 16.076 64.9725 16.192 65.3325 16.424C65.7005 16.648 65.8845 17.016 65.8845 17.528C65.8845 17.912 65.7565 18.26 65.5005 18.572C65.2445 18.892 64.8805 19.144 64.4085 19.328C63.9365 19.512 63.3805 19.604 62.7405 19.604ZM62.8125 14.264C63.0925 14.264 63.3325 14.16 63.5325 13.952C63.7325 13.744 63.8325 13.452 63.8325 13.076C63.8325 12.708 63.7325 12.424 63.5325 12.224C63.3405 12.016 63.1005 11.912 62.8125 11.912C62.5245 11.912 62.2805 12.012 62.0805 12.212C61.8805 12.412 61.7805 12.7 61.7805 13.076C61.7805 13.452 61.8805 13.744 62.0805 13.952C62.2805 14.16 62.5245 14.264 62.8125 14.264ZM62.9565 18.704C63.4285 18.704 63.8125 18.608 64.1085 18.416C64.4045 18.224 64.5525 18.004 64.5525 17.756C64.5525 17.524 64.4605 17.368 64.2765 17.288C64.1005 17.208 63.8445 17.168 63.5085 17.168H62.7045C62.3845 17.168 62.1165 17.14 61.9005 17.084C61.5965 17.316 61.4445 17.576 61.4445 17.864C61.4445 18.128 61.5805 18.332 61.8525 18.476C62.1245 18.628 62.4925 18.704 62.9565 18.704ZM62.9925 10.148C62.5525 10.148 62.1885 10.064 61.9005 9.896C61.6205 9.72 61.4125 9.492 61.2765 9.212C61.1405 8.924 61.0605 8.616 61.0365 8.288L61.8525 8.156C61.8925 8.436 62.0045 8.692 62.1885 8.924C62.3725 9.148 62.6405 9.26 62.9925 9.26C63.3445 9.26 63.6125 9.148 63.7965 8.924C63.9805 8.692 64.0925 8.436 64.1325 8.156L64.9485 8.288C64.9325 8.616 64.8525 8.924 64.7085 9.212C64.5725 9.492 64.3645 9.72 64.0845 9.896C63.8045 10.064 63.4405 10.148 62.9925 10.148ZM66.9229 17V11.108H68.3029V17H66.9229ZM67.6189 10.076C67.3709 10.076 67.1709 10.004 67.0189 9.86C66.8669 9.716 66.7909 9.524 66.7909 9.284C66.7909 9.052 66.8669 8.864 67.0189 8.72C67.1709 8.576 67.3709 8.504 67.6189 8.504C67.8669 8.504 68.0669 8.576 68.2189 8.72C68.3709 8.864 68.4469 9.052 68.4469 9.284C68.4469 9.524 68.3709 9.716 68.2189 9.86C68.0669 10.004 67.8669 10.076 67.6189 10.076ZM70.0635 17V11.108H71.2035L71.2995 11.9H71.3475C71.6115 11.644 71.8995 11.424 72.2115 11.24C72.5235 11.056 72.8795 10.964 73.2795 10.964C73.9115 10.964 74.3715 11.168 74.6595 11.576C74.9475 11.984 75.0915 12.56 75.0915 13.304V17H73.7115V13.484C73.7115 12.996 73.6395 12.652 73.4955 12.452C73.3515 12.252 73.1155 12.152 72.7875 12.152C72.5315 12.152 72.3035 12.216 72.1035 12.344C71.9115 12.464 71.6915 12.644 71.4435 12.884V17H70.0635ZM79.3007 17V9.152H81.4007C82.6007 9.152 83.5367 9.476 84.2087 10.124C84.8807 10.772 85.2167 11.744 85.2167 13.04C85.2167 14.344 84.8847 15.332 84.2207 16.004C83.5567 16.668 82.6407 17 81.4727 17H79.3007ZM80.6927 15.872H81.3047C82.0967 15.872 82.7087 15.644 83.1407 15.188C83.5727 14.724 83.7887 14.008 83.7887 13.04C83.7887 12.08 83.5727 11.38 83.1407 10.94C82.7087 10.5 82.0967 10.28 81.3047 10.28H80.6927V15.872ZM89.0927 17.144C88.6047 17.144 88.1487 17.024 87.7247 16.784C87.3007 16.536 86.9567 16.184 86.6927 15.728C86.4287 15.264 86.2967 14.708 86.2967 14.06C86.2967 13.404 86.4287 12.848 86.6927 12.392C86.9567 11.928 87.3007 11.576 87.7247 11.336C88.1487 11.088 88.6047 10.964 89.0927 10.964C89.5887 10.964 90.0487 11.088 90.4727 11.336C90.8967 11.576 91.2407 11.928 91.5047 12.392C91.7687 12.848 91.9007 13.404 91.9007 14.06C91.9007 14.708 91.7687 15.264 91.5047 15.728C91.2407 16.184 90.8967 16.536 90.4727 16.784C90.0487 17.024 89.5887 17.144 89.0927 17.144ZM89.0927 16.016C89.5247 16.016 89.8647 15.836 90.1127 15.476C90.3607 15.116 90.4847 14.644 90.4847 14.06C90.4847 13.468 90.3607 12.992 90.1127 12.632C89.8647 12.272 89.5247 12.092 89.0927 12.092C88.6607 12.092 88.3207 12.272 88.0727 12.632C87.8327 12.992 87.7127 13.468 87.7127 14.06C87.7127 14.644 87.8327 15.116 88.0727 15.476C88.3207 15.836 88.6607 16.016 89.0927 16.016ZM95.3186 19.604C94.8546 19.604 94.4346 19.548 94.0586 19.436C93.6906 19.324 93.3986 19.152 93.1826 18.92C92.9746 18.696 92.8706 18.412 92.8706 18.068C92.8706 17.58 93.1506 17.16 93.7106 16.808V16.76C93.5586 16.664 93.4306 16.536 93.3266 16.376C93.2306 16.216 93.1826 16.016 93.1826 15.776C93.1826 15.544 93.2466 15.336 93.3746 15.152C93.5106 14.96 93.6626 14.804 93.8306 14.684V14.636C93.6306 14.484 93.4506 14.272 93.2906 14C93.1386 13.728 93.0626 13.42 93.0626 13.076C93.0626 12.62 93.1706 12.236 93.3866 11.924C93.6026 11.612 93.8866 11.376 94.2386 11.216C94.5986 11.048 94.9826 10.964 95.3906 10.964C95.5506 10.964 95.7026 10.98 95.8466 11.012C95.9986 11.036 96.1346 11.068 96.2546 11.108H98.3666V12.128H97.2866C97.3826 12.24 97.4626 12.384 97.5266 12.56C97.5906 12.728 97.6226 12.916 97.6226 13.124C97.6226 13.556 97.5226 13.924 97.3226 14.228C97.1226 14.524 96.8546 14.748 96.5186 14.9C96.1826 15.052 95.8066 15.128 95.3906 15.128C95.2626 15.128 95.1306 15.116 94.9946 15.092C94.8586 15.068 94.7226 15.028 94.5866 14.972C94.4986 15.052 94.4266 15.132 94.3706 15.212C94.3226 15.292 94.2986 15.4 94.2986 15.536C94.2986 15.704 94.3666 15.836 94.5026 15.932C94.6466 16.028 94.8986 16.076 95.2586 16.076H96.3026C97.0146 16.076 97.5506 16.192 97.9106 16.424C98.2786 16.648 98.4626 17.016 98.4626 17.528C98.4626 17.912 98.3346 18.26 98.0786 18.572C97.8226 18.892 97.4586 19.144 96.9866 19.328C96.5146 19.512 95.9586 19.604 95.3186 19.604ZM95.3906 14.264C95.6706 14.264 95.9106 14.16 96.1106 13.952C96.3106 13.744 96.4106 13.452 96.4106 13.076C96.4106 12.708 96.3106 12.424 96.1106 12.224C95.9186 12.016 95.6786 11.912 95.3906 11.912C95.1026 11.912 94.8586 12.012 94.6586 12.212C94.4586 12.412 94.3586 12.7 94.3586 13.076C94.3586 13.452 94.4586 13.744 94.6586 13.952C94.8586 14.16 95.1026 14.264 95.3906 14.264ZM95.5346 18.704C96.0066 18.704 96.3906 18.608 96.6866 18.416C96.9826 18.224 97.1306 18.004 97.1306 17.756C97.1306 17.524 97.0386 17.368 96.8546 17.288C96.6786 17.208 96.4226 17.168 96.0866 17.168H95.2826C94.9626 17.168 94.6946 17.14 94.4786 17.084C94.1746 17.316 94.0226 17.576 94.0226 17.864C94.0226 18.128 94.1586 18.332 94.4306 18.476C94.7026 18.628 95.0706 18.704 95.5346 18.704ZM95.5706 10.148C95.1306 10.148 94.7666 10.064 94.4786 9.896C94.1986 9.72 93.9906 9.492 93.8546 9.212C93.7186 8.924 93.6386 8.616 93.6146 8.288L94.4306 8.156C94.4706 8.436 94.5826 8.692 94.7666 8.924C94.9506 9.148 95.2186 9.26 95.5706 9.26C95.9226 9.26 96.1906 9.148 96.3746 8.924C96.5586 8.692 96.6706 8.436 96.7106 8.156L97.5266 8.288C97.5106 8.616 97.4306 8.924 97.2866 9.212C97.1506 9.492 96.9426 9.72 96.6626 9.896C96.3826 10.064 96.0186 10.148 95.5706 10.148ZM99.501 17V11.108H100.641L100.737 12.152H100.785C100.993 11.768 101.245 11.476 101.541 11.276C101.837 11.068 102.141 10.964 102.453 10.964C102.733 10.964 102.957 11.004 103.125 11.084L102.885 12.284C102.781 12.252 102.685 12.228 102.597 12.212C102.509 12.196 102.401 12.188 102.273 12.188C102.041 12.188 101.797 12.28 101.541 12.464C101.285 12.64 101.065 12.952 100.881 13.4V17H99.501ZM105.73 17.144C105.098 17.144 104.638 16.94 104.35 16.532C104.062 16.124 103.918 15.548 103.918 14.804V11.108H105.298V14.624C105.298 15.112 105.37 15.456 105.514 15.656C105.658 15.856 105.89 15.956 106.21 15.956C106.466 15.956 106.69 15.892 106.882 15.764C107.082 15.636 107.294 15.428 107.518 15.14V11.108H108.898V17H107.77L107.662 16.136H107.626C107.37 16.44 107.09 16.684 106.786 16.868C106.482 17.052 106.13 17.144 105.73 17.144ZM111.99 17.144C111.502 17.144 111.154 16.996 110.946 16.7C110.746 16.404 110.646 16 110.646 15.488V8.528H112.026V15.56C112.026 15.728 112.058 15.848 112.122 15.92C112.186 15.984 112.254 16.016 112.326 16.016C112.358 16.016 112.386 16.016 112.41 16.016C112.442 16.008 112.486 16 112.542 15.992L112.722 17.024C112.642 17.056 112.538 17.084 112.41 17.108C112.29 17.132 112.15 17.144 111.99 17.144ZM115.331 17.144C114.819 17.144 114.399 16.984 114.071 16.664C113.751 16.344 113.591 15.928 113.591 15.416C113.591 14.784 113.867 14.296 114.419 13.952C114.971 13.6 115.851 13.36 117.059 13.232C117.051 12.92 116.967 12.652 116.807 12.428C116.655 12.196 116.379 12.08 115.979 12.08C115.691 12.08 115.407 12.136 115.127 12.248C114.855 12.36 114.587 12.496 114.323 12.656L113.819 11.732C114.147 11.524 114.515 11.344 114.923 11.192C115.339 11.04 115.779 10.964 116.243 10.964C116.979 10.964 117.527 11.184 117.887 11.624C118.255 12.056 118.439 12.684 118.439 13.508V17H117.299L117.203 16.352H117.155C116.891 16.576 116.607 16.764 116.303 16.916C116.007 17.068 115.683 17.144 115.331 17.144ZM115.775 16.064C116.015 16.064 116.231 16.008 116.423 15.896C116.623 15.776 116.835 15.616 117.059 15.416V14.096C116.259 14.2 115.703 14.356 115.391 14.564C115.079 14.764 114.923 15.012 114.923 15.308C114.923 15.572 115.003 15.764 115.163 15.884C115.323 16.004 115.527 16.064 115.775 16.064ZM120.091 17V11.108H121.231L121.327 11.9H121.375C121.639 11.644 121.927 11.424 122.239 11.24C122.551 11.056 122.907 10.964 123.307 10.964C123.939 10.964 124.399 11.168 124.687 11.576C124.975 11.984 125.119 12.56 125.119 13.304V17H123.739V13.484C123.739 12.996 123.667 12.652 123.523 12.452C123.379 12.252 123.143 12.152 122.815 12.152C122.559 12.152 122.331 12.216 122.131 12.344C121.939 12.464 121.719 12.644 121.471 12.884V17H120.091ZM128.87 17.144C128.134 17.144 127.546 16.872 127.106 16.328C126.666 15.784 126.446 15.028 126.446 14.06C126.446 13.42 126.562 12.868 126.794 12.404C127.034 11.94 127.346 11.584 127.73 11.336C128.114 11.088 128.518 10.964 128.942 10.964C129.278 10.964 129.562 11.024 129.794 11.144C130.034 11.256 130.266 11.412 130.49 11.612L130.442 10.664V8.528H131.822V17H130.682L130.586 16.364H130.538C130.322 16.58 130.07 16.764 129.782 16.916C129.494 17.068 129.19 17.144 128.87 17.144ZM129.206 16.004C129.646 16.004 130.058 15.784 130.442 15.344V12.596C130.242 12.412 130.042 12.284 129.842 12.212C129.642 12.14 129.442 12.104 129.242 12.104C128.866 12.104 128.542 12.276 128.27 12.62C128.006 12.956 127.874 13.432 127.874 14.048C127.874 14.68 127.99 15.164 128.222 15.5C128.454 15.836 128.782 16.004 129.206 16.004ZM133.579 17V11.108H134.959V17H133.579Z" fill="white"/>
</svg>
