<svg width="200" height="41" viewBox="0 0 200 41" fill="none" xmlns="http://www.w3.org/2000/svg">
<path d="M143.6 32V5.76H151.08C153.053 5.76 154.773 6 156.24 6.48C157.707 6.96 158.853 7.77333 159.68 8.92C160.507 10.04 160.92 11.56 160.92 13.48C160.92 16.2267 160.027 18.2667 158.24 19.6C156.453 20.9333 154.12 21.6 151.24 21.6H146.92V32H143.6ZM146.92 18.88H150.84C153.133 18.88 154.827 18.4533 155.92 17.6C157.04 16.72 157.6 15.3467 157.6 13.48C157.6 11.5867 157.013 10.28 155.84 9.56C154.693 8.81333 152.973 8.44 150.68 8.44H146.92V18.88ZM168.698 32.48C167.071 32.48 165.711 32 164.618 31.04C163.551 30.0533 163.018 28.6933 163.018 26.96C163.018 24.8267 163.964 23.2 165.858 22.08C167.778 20.9333 170.804 20.1333 174.938 19.68C174.938 18.8533 174.818 18.0667 174.578 17.32C174.364 16.5733 173.964 15.9733 173.378 15.52C172.818 15.04 172.004 14.8 170.938 14.8C169.818 14.8 168.764 15.0133 167.778 15.44C166.791 15.8667 165.911 16.3467 165.138 16.88L163.858 14.6C164.764 14.0133 165.871 13.4533 167.178 12.92C168.511 12.36 169.951 12.08 171.497 12.08C173.871 12.08 175.591 12.8133 176.658 14.28C177.724 15.72 178.258 17.6533 178.258 20.08V32H175.538L175.258 29.68H175.138C174.231 30.4267 173.231 31.08 172.138 31.64C171.071 32.2 169.924 32.48 168.698 32.48ZM169.658 29.84C170.591 29.84 171.471 29.6133 172.298 29.16C173.124 28.7067 174.004 28.0667 174.938 27.24V21.84C171.711 22.24 169.444 22.84 168.138 23.64C166.858 24.44 166.217 25.4667 166.217 26.72C166.217 27.8133 166.551 28.6133 167.218 29.12C167.884 29.6 168.698 29.84 169.658 29.84ZM184.694 40.36C184.267 40.36 183.854 40.32 183.454 40.24C183.08 40.16 182.734 40.0667 182.414 39.96L183.054 37.36C183.267 37.4133 183.507 37.4667 183.774 37.52C184.04 37.6 184.294 37.64 184.534 37.64C185.627 37.64 186.534 37.24 187.254 36.44C187.974 35.6667 188.534 34.68 188.934 33.48L189.374 32.04L181.574 12.56H184.974L188.934 23.32C189.227 24.1467 189.534 25.04 189.854 26C190.2 26.96 190.52 27.8933 190.814 28.8H190.974C191.267 27.92 191.547 27 191.814 26.04C192.08 25.08 192.347 24.1733 192.614 23.32L196.094 12.56H199.294L191.974 33.6C191.52 34.88 190.974 36.0267 190.334 37.04C189.72 38.0533 188.947 38.8533 188.014 39.44C187.107 40.0533 186 40.36 184.694 40.36Z" fill="white"/>
<path fill-rule="evenodd" clip-rule="evenodd" d="M123.173 32.885L124.857 26.6424C124.857 26.6424 123.347 27.0831 122.516 27.3257C117.114 28.8986 115.077 27.5697 114.323 26.9362C112.828 25.6818 112.803 23.9853 112.796 23.4967L112.795 23.4781C112.77 21.8565 113.129 19.8704 113.981 16.6053C114.758 13.6348 115.457 11.1226 115.457 11.1226L125.093 11.1195L126.877 4.44664H117.239L118.415 0.00226721L110.441 0C110.441 0 104.996 19.9598 104.725 21.7066C104.592 22.5725 104.43 23.8042 104.565 25.5951C104.72 27.6543 105.391 29.8687 107.461 31.845C108.541 32.8761 111.517 34.6071 115.192 34.5255C119.32 34.434 123.173 32.885 123.173 32.885ZM98.7681 21.5143C104.447 18.6012 105.012 13.546 105.091 11.7867C105.276 7.68771 101.411 2.71378 91.9854 4.21321C83.9728 5.48738 77.9974 11.7867 76.7694 20.0837C76.2111 23.8497 75.3698 31.9972 84.5992 34.1063C91.2544 35.6278 98.7971 32.8908 98.7971 32.8908L100.452 26.6424C93.252 28.3745 90.3645 28.4131 87.7023 27.6177C84.6966 26.7199 84.8407 23.6365 84.8407 23.6365C88.6568 23.6067 94.8825 23.5063 98.7681 21.5143ZM91.962 10.6943C94.2014 9.95864 96.968 10.1316 97.6925 11.5407C98.4853 13.0832 97.0114 15.8884 93.8463 16.8479C90.0101 18.0115 86.2467 17.7481 85.4054 17.6891C85.2926 17.6813 85.2324 17.677 85.2315 17.6804C85.5146 16.6327 85.7837 16.0803 85.9818 15.6735L86.0314 15.5714C87.2625 13.0224 90.2109 11.2694 91.962 10.6943ZM35.483 4.44909L11.6263 4.45151L9.86164 11.1109L20.9206 11.1137C19.3514 12.544 17.9336 15.9054 17.9336 15.9054L1.79834 15.8952L0 22.5626L16.0789 22.573C16.038 24.9398 16.5688 27.3862 16.5688 27.3862H5.54892L3.77637 34.0761L28.4466 34.0787C32.1887 34.0295 42.2854 31.9952 45.528 18.5663C48.0127 8.27321 41.1522 4.37216 35.483 4.44909ZM36.7179 20.0463C34.4104 27.0648 30.2788 27.3616 28.858 27.361C27.4368 27.3595 23.0431 27.0266 25.1516 19.2682C27.3785 11.0745 32.1478 11.079 33.5671 11.1007C35.4404 11.1296 39.2504 12.343 36.7179 20.0463ZM48.1603 15.6477C48.3725 14.8613 51.6529 2.92384 66.2736 4.02181C69.3101 4.24983 77.8409 7.0644 75.1053 19.6659C72.7625 30.4565 61.9484 38.65 51.9232 32.3693L49.8872 39.9931H41.6162C41.6162 39.9931 48.1059 15.8508 48.1603 15.6477ZM59.0157 27.3946C60.4367 27.3951 64.5681 27.0978 66.8758 20.0795C69.4082 12.376 65.5987 11.1625 63.7246 11.1339C62.3058 11.112 57.5364 11.1073 55.3098 19.3008C53.2009 27.06 57.5948 27.3935 59.0157 27.3946Z" fill="white"/>
</svg>
