<svg width="206" height="45" viewBox="0 0 206 45" fill="none" xmlns="http://www.w3.org/2000/svg">
<path d="M141.656 34V2.368H149.624C153.208 2.368 156.008 3.024 158.024 4.336C160.072 5.648 161.096 7.936 161.096 11.2C161.096 14.304 160.088 16.624 158.072 18.16C156.088 19.664 153.336 20.416 149.816 20.416H143.864V34H141.656ZM143.864 18.544H149.288C152.52 18.544 154.92 17.968 156.488 16.816C158.056 15.664 158.84 13.792 158.84 11.2C158.84 8.544 158.024 6.72 156.392 5.728C154.792 4.736 152.36 4.24 149.096 4.24H143.864V18.544ZM170.503 34.576C168.679 34.576 167.111 34.064 165.799 33.04C164.487 32.016 163.831 30.416 163.831 28.24C163.831 25.68 165.031 23.744 167.431 22.432C169.831 21.088 173.591 20.128 178.711 19.552C178.743 18.368 178.615 17.232 178.327 16.144C178.039 15.024 177.495 14.096 176.695 13.36C175.927 12.624 174.775 12.256 173.239 12.256C171.703 12.256 170.295 12.56 169.015 13.168C167.735 13.776 166.695 14.368 165.895 14.944L164.935 13.36C165.479 12.976 166.183 12.56 167.047 12.112C167.911 11.632 168.887 11.232 169.975 10.912C171.095 10.56 172.279 10.384 173.527 10.384C175.351 10.384 176.791 10.784 177.847 11.584C178.903 12.384 179.655 13.456 180.103 14.8C180.583 16.112 180.823 17.6 180.823 19.264V34H178.999L178.807 31.024H178.663C177.479 31.952 176.199 32.784 174.823 33.52C173.447 34.224 172.007 34.576 170.503 34.576ZM170.887 32.752C172.199 32.752 173.463 32.432 174.679 31.792C175.927 31.152 177.271 30.224 178.711 29.008V21.184C175.543 21.568 173.031 22.064 171.175 22.672C169.319 23.28 167.991 24.048 167.191 24.976C166.391 25.872 165.991 26.928 165.991 28.144C165.991 29.808 166.471 30.992 167.431 31.696C168.423 32.4 169.575 32.752 170.887 32.752ZM188.129 44.512C187.265 44.512 186.481 44.352 185.777 44.032L186.257 42.16C186.513 42.256 186.801 42.336 187.121 42.4C187.473 42.496 187.809 42.544 188.129 42.544C189.537 42.544 190.721 41.968 191.681 40.816C192.673 39.664 193.457 38.208 194.033 36.448L194.657 34.432L185.201 10.96H187.505L193.073 25.456C193.425 26.416 193.825 27.472 194.273 28.624C194.721 29.776 195.153 30.864 195.569 31.888H195.761C196.113 30.864 196.465 29.776 196.817 28.624C197.201 27.472 197.553 26.416 197.873 25.456L202.817 10.96H204.977L195.857 36.88C195.441 38.16 194.881 39.376 194.177 40.528C193.505 41.712 192.673 42.672 191.681 43.408C190.689 44.144 189.505 44.512 188.129 44.512Z" fill="white"/>
<path fill-rule="evenodd" clip-rule="evenodd" d="M123.173 32.885L124.857 26.6424C124.857 26.6424 123.347 27.0831 122.516 27.3257C117.114 28.8986 115.077 27.5697 114.323 26.9362C112.828 25.6818 112.803 23.9853 112.796 23.4967L112.795 23.4781C112.77 21.8565 113.129 19.8704 113.981 16.6053C114.758 13.6348 115.457 11.1226 115.457 11.1226L125.093 11.1195L126.877 4.44664H117.239L118.415 0.00226721L110.441 0C110.441 0 104.996 19.9598 104.725 21.7066C104.592 22.5725 104.43 23.8042 104.565 25.5951C104.72 27.6543 105.391 29.8687 107.461 31.845C108.541 32.8761 111.517 34.6071 115.192 34.5255C119.32 34.434 123.173 32.885 123.173 32.885ZM98.7681 21.5143C104.447 18.6012 105.012 13.546 105.091 11.7867C105.276 7.68771 101.411 2.71378 91.9854 4.21321C83.9728 5.48738 77.9974 11.7867 76.7694 20.0837C76.2111 23.8497 75.3698 31.9972 84.5992 34.1063C91.2544 35.6278 98.7971 32.8908 98.7971 32.8908L100.452 26.6424C93.252 28.3745 90.3645 28.4131 87.7023 27.6177C84.6966 26.7199 84.8407 23.6365 84.8407 23.6365C88.6568 23.6067 94.8825 23.5063 98.7681 21.5143ZM91.962 10.6943C94.2014 9.95864 96.968 10.1316 97.6925 11.5407C98.4853 13.0832 97.0114 15.8884 93.8463 16.8479C90.0101 18.0115 86.2467 17.7481 85.4054 17.6891C85.2926 17.6813 85.2324 17.677 85.2315 17.6804C85.5146 16.6327 85.7837 16.0803 85.9818 15.6735L86.0314 15.5714C87.2625 13.0224 90.2109 11.2694 91.962 10.6943ZM35.483 4.44909L11.6263 4.45151L9.86164 11.1109L20.9206 11.1137C19.3514 12.544 17.9336 15.9054 17.9336 15.9054L1.79834 15.8952L0 22.5626L16.0789 22.573C16.038 24.9398 16.5688 27.3862 16.5688 27.3862H5.54892L3.77637 34.0761L28.4466 34.0787C32.1887 34.0295 42.2854 31.9952 45.528 18.5663C48.0127 8.27321 41.1522 4.37216 35.483 4.44909ZM36.7179 20.0463C34.4104 27.0648 30.2788 27.3616 28.858 27.361C27.4368 27.3595 23.0431 27.0266 25.1516 19.2682C27.3785 11.0745 32.1478 11.079 33.5671 11.1007C35.4404 11.1296 39.2504 12.343 36.7179 20.0463ZM48.1603 15.6477C48.3725 14.8613 51.6529 2.92384 66.2736 4.02181C69.3101 4.24983 77.8409 7.0644 75.1053 19.6659C72.7625 30.4565 61.9484 38.65 51.9232 32.3693L49.8872 39.9931H41.6162C41.6162 39.9931 48.1059 15.8508 48.1603 15.6477ZM59.0157 27.3946C60.4367 27.3951 64.5681 27.0978 66.8758 20.0795C69.4082 12.376 65.5987 11.1625 63.7246 11.1339C62.3058 11.112 57.5364 11.1073 55.3098 19.3008C53.2009 27.06 57.5948 27.3935 59.0157 27.3946Z" fill="white"/>
</svg>
