<svg width="145" height="26" viewBox="0 0 145 26" fill="none" xmlns="http://www.w3.org/2000/svg">
<rect x="0.5" width="144" height="26" rx="10" fill="white"/>
<path d="M21.375 11.75H24.5" stroke="#E65245" stroke-width="1.1" stroke-linecap="round" stroke-linejoin="round"/>
<path d="M21.375 14.25H24.5" stroke="#E65245" stroke-width="1.1" stroke-linecap="round" stroke-linejoin="round"/>
<path d="M16.6953 14.25C17.7308 14.25 18.5703 13.4105 18.5703 12.375C18.5703 11.3395 17.7308 10.5 16.6953 10.5C15.6598 10.5 14.8203 11.3395 14.8203 12.375C14.8203 13.4105 15.6598 14.25 16.6953 14.25Z" stroke="#E65245" stroke-width="1.2" stroke-linecap="round" stroke-linejoin="round"/>
<path d="M14.2739 16.125C14.4126 15.5883 14.7257 15.113 15.164 14.7736C15.6022 14.4342 16.1408 14.25 16.6951 14.25C17.2494 14.25 17.7879 14.4341 18.2262 14.7735C18.6645 15.1128 18.9776 15.5882 19.1163 16.1248" stroke="#E65245" stroke-width="1.2" stroke-linecap="round" stroke-linejoin="round"/>
<path d="M26.375 6.75H12.625C12.2798 6.75 12 7.02982 12 7.375V18.625C12 18.9702 12.2798 19.25 12.625 19.25H26.375C26.7202 19.25 27 18.9702 27 18.625V7.375C27 7.02982 26.7202 6.75 26.375 6.75Z" stroke="#E65245" stroke-width="1.2" stroke-linecap="round" stroke-linejoin="round"/>
<path d="M34.496 17V9.152H35.888V12.716H35.924L38.72 9.152H40.268L37.856 12.212L40.676 17H39.14L37.016 13.304L35.888 14.708V17H34.496ZM41.5362 17V11.108H42.9162V17H41.5362ZM42.2322 10.076C41.9842 10.076 41.7842 10.004 41.6322 9.86C41.4802 9.716 41.4042 9.524 41.4042 9.284C41.4042 9.052 41.4802 8.864 41.6322 8.72C41.7842 8.576 41.9842 8.504 42.2322 8.504C42.4802 8.504 42.6802 8.576 42.8322 8.72C42.9842 8.864 43.0602 9.052 43.0602 9.284C43.0602 9.524 42.9842 9.716 42.8322 9.86C42.6802 10.004 42.4802 10.076 42.2322 10.076ZM44.6768 17V11.108H45.8168L45.9128 11.912H45.9608C46.2088 11.648 46.4768 11.424 46.7648 11.24C47.0608 11.056 47.3928 10.964 47.7608 10.964C48.1928 10.964 48.5368 11.06 48.7928 11.252C49.0568 11.436 49.2568 11.692 49.3928 12.02C49.6728 11.716 49.9648 11.464 50.2688 11.264C50.5808 11.064 50.9208 10.964 51.2888 10.964C51.9128 10.964 52.3728 11.168 52.6688 11.576C52.9648 11.984 53.1128 12.56 53.1128 13.304V17H51.7208V13.484C51.7208 12.996 51.6448 12.652 51.4928 12.452C51.3488 12.252 51.1248 12.152 50.8208 12.152C50.4528 12.152 50.0408 12.396 49.5848 12.884V17H48.2048V13.484C48.2048 12.996 48.1288 12.652 47.9768 12.452C47.8328 12.252 47.6048 12.152 47.2928 12.152C46.9248 12.152 46.5128 12.396 46.0568 12.884V17H44.6768ZM56.1341 17.144C55.6461 17.144 55.2981 16.996 55.0901 16.7C54.8901 16.404 54.7901 16 54.7901 15.488V8.528H56.1701V15.56C56.1701 15.728 56.2021 15.848 56.2661 15.92C56.3301 15.984 56.3981 16.016 56.4701 16.016C56.5021 16.016 56.5301 16.016 56.5541 16.016C56.5861 16.008 56.6301 16 56.6861 15.992L56.8661 17.024C56.7861 17.056 56.6821 17.084 56.5541 17.108C56.4341 17.132 56.2941 17.144 56.1341 17.144ZM58.0479 17V11.108H59.4279V17H58.0479ZM58.7439 10.076C58.4959 10.076 58.2959 10.004 58.1439 9.86C57.9919 9.716 57.9159 9.524 57.9159 9.284C57.9159 9.052 57.9919 8.864 58.1439 8.72C58.2959 8.576 58.4959 8.504 58.7439 8.504C58.9919 8.504 59.1919 8.576 59.3439 8.72C59.4959 8.864 59.5719 9.052 59.5719 9.284C59.5719 9.524 59.4959 9.716 59.3439 9.86C59.1919 10.004 58.9919 10.076 58.7439 10.076ZM63.2405 19.604C62.7765 19.604 62.3565 19.548 61.9805 19.436C61.6125 19.324 61.3205 19.152 61.1045 18.92C60.8965 18.696 60.7925 18.412 60.7925 18.068C60.7925 17.58 61.0725 17.16 61.6325 16.808V16.76C61.4805 16.664 61.3525 16.536 61.2485 16.376C61.1525 16.216 61.1045 16.016 61.1045 15.776C61.1045 15.544 61.1685 15.336 61.2965 15.152C61.4325 14.96 61.5845 14.804 61.7525 14.684V14.636C61.5525 14.484 61.3725 14.272 61.2125 14C61.0605 13.728 60.9845 13.42 60.9845 13.076C60.9845 12.62 61.0925 12.236 61.3085 11.924C61.5245 11.612 61.8085 11.376 62.1605 11.216C62.5205 11.048 62.9045 10.964 63.3125 10.964C63.4725 10.964 63.6245 10.98 63.7685 11.012C63.9205 11.036 64.0565 11.068 64.1765 11.108H66.2885V12.128H65.2085C65.3045 12.24 65.3845 12.384 65.4485 12.56C65.5125 12.728 65.5445 12.916 65.5445 13.124C65.5445 13.556 65.4445 13.924 65.2445 14.228C65.0445 14.524 64.7765 14.748 64.4405 14.9C64.1045 15.052 63.7285 15.128 63.3125 15.128C63.1845 15.128 63.0525 15.116 62.9165 15.092C62.7805 15.068 62.6445 15.028 62.5085 14.972C62.4205 15.052 62.3485 15.132 62.2925 15.212C62.2445 15.292 62.2205 15.4 62.2205 15.536C62.2205 15.704 62.2885 15.836 62.4245 15.932C62.5685 16.028 62.8205 16.076 63.1805 16.076H64.2245C64.9365 16.076 65.4725 16.192 65.8325 16.424C66.2005 16.648 66.3845 17.016 66.3845 17.528C66.3845 17.912 66.2565 18.26 66.0005 18.572C65.7445 18.892 65.3805 19.144 64.9085 19.328C64.4365 19.512 63.8805 19.604 63.2405 19.604ZM63.3125 14.264C63.5925 14.264 63.8325 14.16 64.0325 13.952C64.2325 13.744 64.3325 13.452 64.3325 13.076C64.3325 12.708 64.2325 12.424 64.0325 12.224C63.8405 12.016 63.6005 11.912 63.3125 11.912C63.0245 11.912 62.7805 12.012 62.5805 12.212C62.3805 12.412 62.2805 12.7 62.2805 13.076C62.2805 13.452 62.3805 13.744 62.5805 13.952C62.7805 14.16 63.0245 14.264 63.3125 14.264ZM63.4565 18.704C63.9285 18.704 64.3125 18.608 64.6085 18.416C64.9045 18.224 65.0525 18.004 65.0525 17.756C65.0525 17.524 64.9605 17.368 64.7765 17.288C64.6005 17.208 64.3445 17.168 64.0085 17.168H63.2045C62.8845 17.168 62.6165 17.14 62.4005 17.084C62.0965 17.316 61.9445 17.576 61.9445 17.864C61.9445 18.128 62.0805 18.332 62.3525 18.476C62.6245 18.628 62.9925 18.704 63.4565 18.704ZM63.4925 10.148C63.0525 10.148 62.6885 10.064 62.4005 9.896C62.1205 9.72 61.9125 9.492 61.7765 9.212C61.6405 8.924 61.5605 8.616 61.5365 8.288L62.3525 8.156C62.3925 8.436 62.5045 8.692 62.6885 8.924C62.8725 9.148 63.1405 9.26 63.4925 9.26C63.8445 9.26 64.1125 9.148 64.2965 8.924C64.4805 8.692 64.5925 8.436 64.6325 8.156L65.4485 8.288C65.4325 8.616 65.3525 8.924 65.2085 9.212C65.0725 9.492 64.8645 9.72 64.5845 9.896C64.3045 10.064 63.9405 10.148 63.4925 10.148ZM67.4229 17V11.108H68.8029V17H67.4229ZM68.1189 10.076C67.8709 10.076 67.6709 10.004 67.5189 9.86C67.3669 9.716 67.2909 9.524 67.2909 9.284C67.2909 9.052 67.3669 8.864 67.5189 8.72C67.6709 8.576 67.8709 8.504 68.1189 8.504C68.3669 8.504 68.5669 8.576 68.7189 8.72C68.8709 8.864 68.9469 9.052 68.9469 9.284C68.9469 9.524 68.8709 9.716 68.7189 9.86C68.5669 10.004 68.3669 10.076 68.1189 10.076ZM70.5635 17V11.108H71.7035L71.7995 11.9H71.8475C72.1115 11.644 72.3995 11.424 72.7115 11.24C73.0235 11.056 73.3795 10.964 73.7795 10.964C74.4115 10.964 74.8715 11.168 75.1595 11.576C75.4475 11.984 75.5915 12.56 75.5915 13.304V17H74.2115V13.484C74.2115 12.996 74.1395 12.652 73.9955 12.452C73.8515 12.252 73.6155 12.152 73.2875 12.152C73.0315 12.152 72.8035 12.216 72.6035 12.344C72.4115 12.464 72.1915 12.644 71.9435 12.884V17H70.5635ZM77.2783 17V11.108H78.6583V17H77.2783ZM77.9743 10.076C77.7263 10.076 77.5263 10.004 77.3743 9.86C77.2223 9.716 77.1463 9.524 77.1463 9.284C77.1463 9.052 77.2223 8.864 77.3743 8.72C77.5263 8.576 77.7263 8.504 77.9743 8.504C78.2223 8.504 78.4223 8.576 78.5743 8.72C78.7263 8.864 78.8023 9.052 78.8023 9.284C78.8023 9.524 78.7263 9.716 78.5743 9.86C78.4223 10.004 78.2223 10.076 77.9743 10.076ZM82.9413 17V9.152H85.0413C86.2413 9.152 87.1773 9.476 87.8493 10.124C88.5213 10.772 88.8573 11.744 88.8573 13.04C88.8573 14.344 88.5253 15.332 87.8613 16.004C87.1973 16.668 86.2813 17 85.1133 17H82.9413ZM84.3333 15.872H84.9453C85.7373 15.872 86.3493 15.644 86.7813 15.188C87.2133 14.724 87.4293 14.008 87.4293 13.04C87.4293 12.08 87.2133 11.38 86.7813 10.94C86.3493 10.5 85.7373 10.28 84.9453 10.28H84.3333V15.872ZM92.7333 17.144C92.2453 17.144 91.7893 17.024 91.3653 16.784C90.9413 16.536 90.5973 16.184 90.3333 15.728C90.0693 15.264 89.9373 14.708 89.9373 14.06C89.9373 13.404 90.0693 12.848 90.3333 12.392C90.5973 11.928 90.9413 11.576 91.3653 11.336C91.7893 11.088 92.2453 10.964 92.7333 10.964C93.2293 10.964 93.6893 11.088 94.1133 11.336C94.5373 11.576 94.8813 11.928 95.1453 12.392C95.4093 12.848 95.5413 13.404 95.5413 14.06C95.5413 14.708 95.4093 15.264 95.1453 15.728C94.8813 16.184 94.5373 16.536 94.1133 16.784C93.6893 17.024 93.2293 17.144 92.7333 17.144ZM92.7333 16.016C93.1653 16.016 93.5053 15.836 93.7533 15.476C94.0013 15.116 94.1253 14.644 94.1253 14.06C94.1253 13.468 94.0013 12.992 93.7533 12.632C93.5053 12.272 93.1653 12.092 92.7333 12.092C92.3013 12.092 91.9613 12.272 91.7133 12.632C91.4733 12.992 91.3533 13.468 91.3533 14.06C91.3533 14.644 91.4733 15.116 91.7133 15.476C91.9613 15.836 92.3013 16.016 92.7333 16.016ZM98.9593 19.604C98.4953 19.604 98.0753 19.548 97.6993 19.436C97.3313 19.324 97.0393 19.152 96.8232 18.92C96.6153 18.696 96.5113 18.412 96.5113 18.068C96.5113 17.58 96.7913 17.16 97.3513 16.808V16.76C97.1993 16.664 97.0713 16.536 96.9673 16.376C96.8713 16.216 96.8232 16.016 96.8232 15.776C96.8232 15.544 96.8873 15.336 97.0153 15.152C97.1513 14.96 97.3033 14.804 97.4713 14.684V14.636C97.2713 14.484 97.0913 14.272 96.9313 14C96.7793 13.728 96.7033 13.42 96.7033 13.076C96.7033 12.62 96.8113 12.236 97.0273 11.924C97.2433 11.612 97.5273 11.376 97.8793 11.216C98.2393 11.048 98.6233 10.964 99.0312 10.964C99.1913 10.964 99.3433 10.98 99.4873 11.012C99.6393 11.036 99.7753 11.068 99.8953 11.108H102.007V12.128H100.927C101.023 12.24 101.103 12.384 101.167 12.56C101.231 12.728 101.263 12.916 101.263 13.124C101.263 13.556 101.163 13.924 100.963 14.228C100.763 14.524 100.495 14.748 100.159 14.9C99.8233 15.052 99.4473 15.128 99.0312 15.128C98.9033 15.128 98.7713 15.116 98.6353 15.092C98.4993 15.068 98.3633 15.028 98.2273 14.972C98.1393 15.052 98.0673 15.132 98.0113 15.212C97.9633 15.292 97.9393 15.4 97.9393 15.536C97.9393 15.704 98.0073 15.836 98.1433 15.932C98.2873 16.028 98.5393 16.076 98.8993 16.076H99.9433C100.655 16.076 101.191 16.192 101.551 16.424C101.919 16.648 102.103 17.016 102.103 17.528C102.103 17.912 101.975 18.26 101.719 18.572C101.463 18.892 101.099 19.144 100.627 19.328C100.155 19.512 99.5993 19.604 98.9593 19.604ZM99.0312 14.264C99.3113 14.264 99.5513 14.16 99.7513 13.952C99.9513 13.744 100.051 13.452 100.051 13.076C100.051 12.708 99.9513 12.424 99.7513 12.224C99.5593 12.016 99.3193 11.912 99.0312 11.912C98.7433 11.912 98.4993 12.012 98.2993 12.212C98.0993 12.412 97.9993 12.7 97.9993 13.076C97.9993 13.452 98.0993 13.744 98.2993 13.952C98.4993 14.16 98.7433 14.264 99.0312 14.264ZM99.1753 18.704C99.6473 18.704 100.031 18.608 100.327 18.416C100.623 18.224 100.771 18.004 100.771 17.756C100.771 17.524 100.679 17.368 100.495 17.288C100.319 17.208 100.063 17.168 99.7273 17.168H98.9233C98.6033 17.168 98.3353 17.14 98.1193 17.084C97.8153 17.316 97.6633 17.576 97.6633 17.864C97.6633 18.128 97.7993 18.332 98.0713 18.476C98.3433 18.628 98.7113 18.704 99.1753 18.704ZM99.2113 10.148C98.7713 10.148 98.4073 10.064 98.1193 9.896C97.8393 9.72 97.6313 9.492 97.4953 9.212C97.3593 8.924 97.2793 8.616 97.2553 8.288L98.0713 8.156C98.1113 8.436 98.2233 8.692 98.4073 8.924C98.5913 9.148 98.8593 9.26 99.2113 9.26C99.5633 9.26 99.8313 9.148 100.015 8.924C100.199 8.692 100.311 8.436 100.351 8.156L101.167 8.288C101.151 8.616 101.071 8.924 100.927 9.212C100.791 9.492 100.583 9.72 100.303 9.896C100.023 10.064 99.6593 10.148 99.2113 10.148ZM103.142 17V11.108H104.282L104.378 12.152H104.426C104.634 11.768 104.886 11.476 105.182 11.276C105.478 11.068 105.782 10.964 106.094 10.964C106.374 10.964 106.598 11.004 106.766 11.084L106.526 12.284C106.422 12.252 106.326 12.228 106.238 12.212C106.15 12.196 106.042 12.188 105.914 12.188C105.682 12.188 105.438 12.28 105.182 12.464C104.926 12.64 104.706 12.952 104.522 13.4V17H103.142ZM109.37 17.144C108.738 17.144 108.278 16.94 107.99 16.532C107.702 16.124 107.558 15.548 107.558 14.804V11.108H108.938V14.624C108.938 15.112 109.01 15.456 109.154 15.656C109.298 15.856 109.53 15.956 109.85 15.956C110.106 15.956 110.33 15.892 110.522 15.764C110.722 15.636 110.934 15.428 111.158 15.14V11.108H112.538V17H111.41L111.302 16.136H111.266C111.01 16.44 110.73 16.684 110.426 16.868C110.122 17.052 109.77 17.144 109.37 17.144ZM115.63 17.144C115.142 17.144 114.794 16.996 114.586 16.7C114.386 16.404 114.286 16 114.286 15.488V8.528H115.666V15.56C115.666 15.728 115.698 15.848 115.762 15.92C115.826 15.984 115.894 16.016 115.966 16.016C115.998 16.016 116.026 16.016 116.05 16.016C116.082 16.008 116.126 16 116.182 15.992L116.362 17.024C116.282 17.056 116.178 17.084 116.05 17.108C115.93 17.132 115.79 17.144 115.63 17.144ZM118.972 17.144C118.46 17.144 118.04 16.984 117.712 16.664C117.392 16.344 117.232 15.928 117.232 15.416C117.232 14.784 117.508 14.296 118.06 13.952C118.612 13.6 119.492 13.36 120.7 13.232C120.692 12.92 120.608 12.652 120.448 12.428C120.296 12.196 120.02 12.08 119.62 12.08C119.332 12.08 119.048 12.136 118.768 12.248C118.496 12.36 118.228 12.496 117.964 12.656L117.46 11.732C117.788 11.524 118.156 11.344 118.564 11.192C118.98 11.04 119.42 10.964 119.884 10.964C120.62 10.964 121.168 11.184 121.528 11.624C121.896 12.056 122.08 12.684 122.08 13.508V17H120.94L120.844 16.352H120.796C120.532 16.576 120.248 16.764 119.944 16.916C119.648 17.068 119.324 17.144 118.972 17.144ZM119.416 16.064C119.656 16.064 119.872 16.008 120.064 15.896C120.264 15.776 120.476 15.616 120.7 15.416V14.096C119.9 14.2 119.344 14.356 119.032 14.564C118.72 14.764 118.564 15.012 118.564 15.308C118.564 15.572 118.644 15.764 118.804 15.884C118.964 16.004 119.168 16.064 119.416 16.064Z" fill="#E65245"/>
<path d="M132.458 17.375L136.542 13L132.458 8.625" stroke="#E65245" stroke-width="1.5" stroke-linecap="round" stroke-linejoin="round"/>
</svg>
