<svg width="350" height="197" viewBox="0 0 350 197" fill="none" xmlns="http://www.w3.org/2000/svg">
<rect width="349.965" height="197" rx="24" fill="#005CC5"/>
<path opacity="0.745652" fill-rule="evenodd" clip-rule="evenodd" d="M129.676 74.3366L120.383 109.105L178.62 109.119C170.357 116.587 162.891 134.137 162.891 134.137L77.9215 134.083L68.4512 168.893L153.124 168.948C152.909 181.304 155.703 194.078 155.703 194.078H97.6722L96.8912 197H284.458C294.418 185.288 302.993 169.43 308.205 148.029C321.29 94.2897 285.162 73.9223 255.307 74.3242L129.676 74.3366ZM220.222 193.196C227.688 193.199 249.398 191.654 261.522 155.125C274.829 115.031 254.809 108.716 244.966 108.566C237.509 108.453 212.448 108.429 200.747 151.075C189.667 191.455 212.755 193.188 220.222 193.196Z" fill="url(#paint0_linear_2619_6756)"/>
<path d="M160.656 49V17.368H168.624C172.208 17.368 175.008 18.024 177.024 19.336C179.072 20.648 180.096 22.936 180.096 26.2C180.096 29.304 179.088 31.624 177.072 33.16C175.088 34.664 172.336 35.416 168.816 35.416H162.864V49H160.656ZM162.864 33.544H168.288C171.52 33.544 173.92 32.968 175.488 31.816C177.056 30.664 177.84 28.792 177.84 26.2C177.84 23.544 177.024 21.72 175.392 20.728C173.792 19.736 171.36 19.24 168.096 19.24H162.864V33.544ZM189.503 49.576C187.679 49.576 186.111 49.064 184.799 48.04C183.487 47.016 182.831 45.416 182.831 43.24C182.831 40.68 184.031 38.744 186.431 37.432C188.831 36.088 192.591 35.128 197.711 34.552C197.743 33.368 197.615 32.232 197.327 31.144C197.039 30.024 196.495 29.096 195.695 28.36C194.927 27.624 193.775 27.256 192.239 27.256C190.703 27.256 189.295 27.56 188.015 28.168C186.735 28.776 185.695 29.368 184.895 29.944L183.935 28.36C184.479 27.976 185.183 27.56 186.047 27.112C186.911 26.632 187.887 26.232 188.975 25.912C190.095 25.56 191.279 25.384 192.527 25.384C194.351 25.384 195.791 25.784 196.847 26.584C197.903 27.384 198.655 28.456 199.103 29.8C199.583 31.112 199.823 32.6 199.823 34.264V49H197.999L197.807 46.024H197.663C196.479 46.952 195.199 47.784 193.823 48.52C192.447 49.224 191.007 49.576 189.503 49.576ZM189.887 47.752C191.199 47.752 192.463 47.432 193.679 46.792C194.927 46.152 196.271 45.224 197.711 44.008V36.184C194.543 36.568 192.031 37.064 190.175 37.672C188.319 38.28 186.991 39.048 186.191 39.976C185.391 40.872 184.991 41.928 184.991 43.144C184.991 44.808 185.471 45.992 186.431 46.696C187.423 47.4 188.575 47.752 189.887 47.752ZM207.129 59.512C206.265 59.512 205.481 59.352 204.777 59.032L205.257 57.16C205.513 57.256 205.801 57.336 206.121 57.4C206.473 57.496 206.809 57.544 207.129 57.544C208.537 57.544 209.721 56.968 210.681 55.816C211.673 54.664 212.457 53.208 213.033 51.448L213.657 49.432L204.201 25.96H206.505L212.073 40.456C212.425 41.416 212.825 42.472 213.273 43.624C213.721 44.776 214.153 45.864 214.569 46.888H214.761C215.113 45.864 215.465 44.776 215.817 43.624C216.201 42.472 216.553 41.416 216.873 40.456L221.817 25.96H223.977L214.857 51.88C214.441 53.16 213.881 54.376 213.177 55.528C212.505 56.712 211.673 57.672 210.681 58.408C209.689 59.144 208.505 59.512 207.129 59.512Z" fill="white"/>
<path fill-rule="evenodd" clip-rule="evenodd" d="M142.173 47.885L143.857 41.6424C143.857 41.6424 142.347 42.0831 141.516 42.3257C136.114 43.8986 134.077 42.5697 133.323 41.9362C131.828 40.6818 131.803 38.9853 131.796 38.4967L131.795 38.4781C131.77 36.8565 132.129 34.8704 132.981 31.6053C133.758 28.6348 134.457 26.1226 134.457 26.1226L144.093 26.1195L145.877 19.4466H136.239L137.415 15.0023L129.441 15C129.441 15 123.996 34.9598 123.725 36.7066C123.592 37.5725 123.43 38.8042 123.565 40.5951C123.72 42.6543 124.391 44.8687 126.461 46.845C127.541 47.8761 130.517 49.6071 134.192 49.5255C138.32 49.434 142.173 47.885 142.173 47.885ZM117.768 36.5143C123.447 33.6012 124.012 28.546 124.091 26.7867C124.276 22.6877 120.411 17.7138 110.985 19.2132C102.973 20.4874 96.9974 26.7867 95.7694 35.0837C95.2111 38.8497 94.3698 46.9972 103.599 49.1063C110.254 50.6278 117.797 47.8908 117.797 47.8908L119.452 41.6424C112.252 43.3745 109.364 43.4131 106.702 42.6177C103.697 41.7199 103.841 38.6365 103.841 38.6365C107.657 38.6067 113.882 38.5063 117.768 36.5143ZM110.962 25.6943C113.201 24.9586 115.968 25.1316 116.693 26.5407C117.485 28.0832 116.011 30.8884 112.846 31.8479C109.01 33.0115 105.247 32.7481 104.405 32.6891C104.293 32.6813 104.232 32.677 104.231 32.6804C104.515 31.6327 104.784 31.0803 104.982 30.6735L105.031 30.5714C106.262 28.0224 109.211 26.2694 110.962 25.6943ZM54.483 19.4491L30.6263 19.4515L28.8616 26.1109L39.9206 26.1137C38.3514 27.544 36.9336 30.9054 36.9336 30.9054L20.7983 30.8952L19 37.5626L35.0789 37.573C35.038 39.9398 35.5688 42.3862 35.5688 42.3862H24.5489L22.7764 49.0761L47.4466 49.0787C51.1887 49.0295 61.2854 46.9952 64.528 33.5663C67.0127 23.2732 60.1522 19.3722 54.483 19.4491ZM55.7179 35.0463C53.4104 42.0648 49.2788 42.3616 47.858 42.361C46.4368 42.3595 42.0431 42.0266 44.1516 34.2682C46.3785 26.0745 51.1478 26.079 52.5671 26.1007C54.4404 26.1296 58.2504 27.343 55.7179 35.0463ZM67.1603 30.6477C67.3725 29.8613 70.6529 17.9238 85.2736 19.0218C88.3101 19.2498 96.8409 22.0644 94.1053 34.6659C91.7625 45.4565 80.9484 53.65 70.9232 47.3693L68.8872 54.9931H60.6162C60.6162 54.9931 67.1059 30.8508 67.1603 30.6477ZM78.0157 42.3946C79.4367 42.3951 83.5681 42.0978 85.8758 35.0795C88.4082 27.376 84.5987 26.1625 82.7246 26.1339C81.3058 26.112 76.5364 26.1073 74.3098 34.3008C72.2009 42.06 76.5948 42.3935 78.0157 42.3946Z" fill="white"/>
<defs>
<linearGradient id="paint0_linear_2619_6756" x1="323.5" y1="62.5006" x2="160.345" y2="259.895" gradientUnits="userSpaceOnUse">
<stop stop-color="#005CC5"/>
<stop offset="1" stop-color="#1F2E58" stop-opacity="0.01"/>
</linearGradient>
</defs>
</svg>
