<svg width="350" height="197" viewBox="0 0 350 197" fill="none" xmlns="http://www.w3.org/2000/svg">
<rect width="349.965" height="197" rx="24" fill="#005CC5"/>
<path opacity="0.745652" fill-rule="evenodd" clip-rule="evenodd" d="M129.676 74.3366L120.383 109.105L178.62 109.119C170.357 116.587 162.891 134.137 162.891 134.137L77.9215 134.083L68.4512 168.893L153.124 168.948C152.909 181.304 155.703 194.078 155.703 194.078H97.6722L96.8912 197H284.458C294.418 185.288 302.993 169.43 308.205 148.029C321.29 94.2897 285.162 73.9223 255.307 74.3242L129.676 74.3366ZM220.222 193.196C227.688 193.199 249.398 191.654 261.522 155.125C274.829 115.031 254.809 108.716 244.966 108.566C237.509 108.453 212.448 108.429 200.747 151.075C189.667 191.455 212.755 193.188 220.222 193.196Z" fill="url(#paint0_linear_970_5628)"/>
<path fill-rule="evenodd" clip-rule="evenodd" d="M138.251 45.7118L139.861 39.8187C139.861 39.8187 138.417 40.2347 137.623 40.4637C132.46 41.9486 130.513 40.6941 129.793 40.096C128.365 38.9118 128.34 37.3104 128.333 36.8491L128.333 36.8315C128.309 35.3008 128.652 33.4259 129.466 30.3436C130.208 27.5394 130.877 25.1678 130.877 25.1678L140.086 25.1649L141.791 18.8656H132.58L133.704 14.6701L126.083 14.668C126.083 14.668 120.879 33.5103 120.621 35.1592C120.493 35.9766 120.339 37.1394 120.468 38.8301C120.616 40.7739 121.257 42.8643 123.235 44.73C124.267 45.7034 127.111 47.3375 130.624 47.2604C134.569 47.1741 138.251 45.7118 138.251 45.7118ZM114.927 34.9779C120.354 32.2279 120.894 27.4557 120.969 25.7949C121.146 21.9254 117.452 17.23 108.444 18.6455C100.787 19.8483 95.0762 25.7949 93.9026 33.6274C93.369 37.1825 92.565 44.8739 101.385 46.8649C107.746 48.3012 114.954 45.7174 114.954 45.7174L116.536 39.8189C109.655 41.454 106.895 41.4904 104.351 40.7396C101.479 39.8921 101.616 36.9813 101.616 36.9813C105.263 36.9532 111.213 36.8584 114.927 34.9779ZM108.422 24.7634C110.562 24.0689 113.206 24.2322 113.898 25.5624C114.656 27.0185 113.247 29.6666 110.222 30.5724C106.556 31.6709 102.96 31.4222 102.155 31.3666L102.155 31.3666C102.048 31.3591 101.99 31.3552 101.989 31.3584C102.26 30.3693 102.517 29.8478 102.706 29.4638L102.754 29.3674C103.93 26.9612 106.748 25.3063 108.422 24.7634ZM54.4459 18.8682L31.6464 18.8705L29.9598 25.1571L40.5288 25.1597C39.0291 26.5099 37.6741 29.6832 37.6741 29.6832L22.2538 29.6735L20.5352 35.9676L35.9016 35.9774C35.8626 38.2117 36.3698 40.5212 36.3698 40.5212H25.8382L24.1442 46.8365L47.7213 46.839C51.2976 46.7925 60.947 44.872 64.0459 32.1951C66.4205 22.4783 59.864 18.7956 54.4459 18.8682ZM55.6258 33.5922C53.4206 40.2177 49.472 40.498 48.1141 40.4974C46.7559 40.496 42.5568 40.1817 44.572 32.8577C46.7002 25.1227 51.2582 25.127 52.6146 25.1475C54.4049 25.1747 58.0461 26.3202 55.6258 33.5922ZM66.5616 29.4396C66.7644 28.6973 69.8995 17.4281 83.8723 18.4647C86.7743 18.6799 94.9271 21.3369 92.3127 33.2328C90.0737 43.4193 79.7388 51.154 70.1578 45.225L68.212 52.422H60.3075C60.3075 52.422 66.5096 29.6313 66.5616 29.4396ZM76.9359 40.5289C78.294 40.5293 82.2424 40.2486 84.4477 33.6233C86.868 26.3511 83.2273 25.2056 81.4362 25.1785C80.0803 25.1579 75.5222 25.1535 73.3942 32.8883C71.3788 40.213 75.578 40.5278 76.9359 40.5289Z" fill="white"/>
<defs>
<linearGradient id="paint0_linear_970_5628" x1="323.501" y1="62.5005" x2="160.344" y2="259.895" gradientUnits="userSpaceOnUse">
<stop stop-color="#005CC5"/>
<stop offset="1" stop-color="#1F2E58" stop-opacity="0.01"/>
</linearGradient>
</defs>
</svg>
