<svg width="150" height="280" viewBox="0 0 150 280" fill="none" xmlns="http://www.w3.org/2000/svg">
<rect x="11.2705" width="128.672" height="258.284" rx="14" fill="url(#paint0_linear_12617_179351)"/>
<path d="M76.1904 16.0811V21.7163" stroke="#848484" stroke-linecap="round" stroke-linejoin="round"/>
<path d="M81.0707 24.5335L76.1904 21.7158" stroke="#848484" stroke-linecap="round" stroke-linejoin="round"/>
<path d="M82.7847 18.3953H87.4807V13.6992" stroke="#848484" stroke-linecap="round" stroke-linejoin="round"/>
<path d="M83.4961 29.0215C82.0512 30.4664 80.2104 31.4503 78.2063 31.849C76.2022 32.2476 74.1249 32.043 72.2371 31.2611C70.3493 30.4791 68.7357 29.1549 67.6005 27.4559C66.4653 25.7569 65.8594 23.7595 65.8594 21.7161C65.8594 19.6728 66.4653 17.6753 67.6005 15.9763C68.7357 14.2773 70.3493 12.9532 72.2371 12.1712C74.1249 11.3892 76.2022 11.1846 78.2063 11.5833C80.2104 11.9819 82.0512 12.9659 83.4961 14.4108L87.4809 18.3955" stroke="#848484" stroke-linecap="round" stroke-linejoin="round"/>
<path d="M71.267 48.1729H69.946V50.6552L68.348 51.3903V52.7113L69.946 51.9762V53.1481L68.348 53.8832V55.2042L69.946 54.4691V59.1673C70.2443 59.2099 70.7983 59.2312 71.2457 59.2312C73.8664 59.2312 75.571 57.6758 75.571 54.3093H74.25C74.25 57.1112 72.9183 57.9901 71.267 57.9954V53.8619L73.5468 52.8178V51.4968L71.267 52.5408V51.369L73.5468 50.3249V49.0039L71.267 50.0479V48.1729Z" fill="black"/>
<path d="M97.5649 36.9024H96.2438V39.3847L94.6458 40.1198V41.4408L96.2438 40.7057V41.8776L94.6458 42.6127V43.9337L96.2438 43.1986V47.8968C96.5421 47.9394 97.0961 47.9607 97.5435 47.9607C100.164 47.9607 101.869 46.4053 101.869 43.0388H100.548C100.548 45.8406 99.2161 46.7195 97.5649 46.7249V42.5914L99.8447 41.5473V40.2263L97.5649 41.2703V40.0985L99.8447 39.0544V37.7334L97.5649 38.7774V36.9024Z" fill="black"/>
<path d="M134.195 22.8145H132.874V25.2968L131.276 26.0319V27.3529L132.874 26.6178V27.7897L131.276 28.5248V29.8458L132.874 29.1107V33.8089C133.172 33.8515 133.726 33.8728 134.173 33.8728C136.794 33.8728 138.499 32.3174 138.499 28.9509H137.178C137.178 31.7528 135.846 32.6317 134.195 32.637V28.5035L136.475 27.4594V26.1384L134.195 27.1824V26.0106L136.475 24.9665V23.6455L134.195 24.6895V22.8145Z" fill="black"/>
<path d="M43.5332 125.449C50.853 125.449 57.4849 122.481 62.2827 117.685L43.5332 98.9434V125.449Z" fill="#6633CC"/>
<path d="M43.5335 125.779C43.349 125.779 43.2036 125.633 43.2036 125.449V98.9492C43.2036 98.8151 43.2819 98.6977 43.4049 98.6418C43.5279 98.5915 43.6677 98.6195 43.7628 98.7145L62.5123 117.456C62.6409 117.585 62.6409 117.791 62.5123 117.925C57.4461 122.99 50.7023 125.779 43.5335 125.779ZM43.8635 99.743V125.114C50.624 125.03 56.9764 122.403 61.8133 117.685L43.8635 99.743Z" fill="black"/>
<path d="M126.6 258.284H24.7222C17.2235 258.284 11.1172 252.186 11.1172 244.685V13.5992C11.1172 6.09811 17.2179 0 24.7222 0H126.6C134.099 0 140.205 6.09811 140.205 13.5992V244.685C140.205 252.18 134.099 258.284 126.6 258.284ZM24.7222 0.659558C17.587 0.659558 11.777 6.46143 11.777 13.5992V244.685C11.777 251.817 17.5814 257.624 24.7222 257.624H126.6C133.736 257.624 139.546 251.823 139.546 244.685V13.5992C139.546 6.46702 133.741 0.659558 126.6 0.659558H24.7222Z" fill="black"/>
<path d="M60.5545 78.4454C60.4874 78.4454 60.4147 78.423 60.3588 78.3783C60.2134 78.2665 60.1855 78.0597 60.2917 77.9144C61.466 76.3493 62.5844 74.7004 63.6636 73.1019C65.7438 70.0276 67.8966 66.8528 70.564 64.1252C71.9843 62.6775 73.8967 61.0286 76.2006 61.2019C77.4867 61.2969 78.5939 61.9509 79.6619 62.5825C80.3329 62.9793 81.0319 63.3929 81.7533 63.6445C85.1196 64.8406 88.8158 62.6495 91.1588 60.2069C92.0703 59.2567 92.9202 58.1947 93.7366 57.1719C95.1849 55.3665 96.6891 53.494 98.6072 52.1078C99.8709 51.1911 101.045 50.716 102.186 50.6545C104.372 50.5372 106.033 51.7948 107.655 53.0077C108.337 53.5219 108.986 54.0026 109.668 54.3883C112.637 56.0651 116.859 56.5123 119.705 55.4503C122.238 54.5057 124.62 52.6891 127.204 49.7435C128.647 48.1001 130.033 46.3842 131.504 44.5676C136.537 38.3465 141.737 31.913 148.984 28.7215C149.146 28.6488 149.348 28.7214 149.42 28.8891C149.493 29.0568 149.42 29.2524 149.253 29.3251C142.151 32.4552 137.001 38.8216 132.019 44.9812C130.542 46.8034 129.15 48.5249 127.702 50.1794C125.04 53.2145 122.574 55.087 119.935 56.0707C116.87 57.2166 112.514 56.7638 109.338 54.9696C108.622 54.5672 107.929 54.0473 107.258 53.5443C105.731 52.404 104.137 51.2135 102.219 51.3253C101.207 51.3812 100.151 51.8171 98.9874 52.6556C97.1421 53.9914 95.6658 55.8248 94.2455 57.6022C93.4179 58.6363 92.5567 59.7039 91.6285 60.6765C89.1457 63.27 85.1867 65.5784 81.524 64.2817C80.7411 64.0022 80.0198 63.5774 79.3208 63.1638C78.2695 62.5433 77.2742 61.9564 76.1446 61.8726C74.1204 61.7217 72.3478 63.2532 71.0281 64.6003C68.4055 67.2832 66.2694 70.4357 64.206 73.4819C63.1212 75.0861 61.9972 76.7406 60.8117 78.3168C60.7502 78.4007 60.6496 78.4454 60.5545 78.4454Z" fill="black"/>
<path d="M103.662 50.8902C103.662 52.0249 102.744 52.9415 101.609 52.9415C100.474 52.9415 99.5571 52.0249 99.5571 50.8902C99.5571 49.7555 100.474 48.8389 101.609 48.8389C102.744 48.8389 103.662 49.7555 103.662 50.8902Z" fill="white"/>
<path d="M77.3627 62.1607C77.3627 63.2954 76.4457 64.212 75.3105 64.212C74.1754 64.212 73.2583 63.2954 73.2583 62.1607C73.2583 61.026 74.1754 60.1094 75.3105 60.1094C76.4457 60.1094 77.3627 61.026 77.3627 62.1607Z" fill="white"/>
<path d="M75.4065 64.1363C74.0925 64.1363 73.0244 63.0687 73.0244 61.7551C73.0244 60.4416 74.0925 59.374 75.4065 59.374C76.7206 59.374 77.7887 60.4416 77.7887 61.7551C77.7887 63.0687 76.7206 64.1363 75.4065 64.1363ZM75.4065 60.0336C74.4559 60.0336 73.6843 60.8049 73.6843 61.7551C73.6843 62.7054 74.4559 63.4767 75.4065 63.4767C76.3572 63.4767 77.1288 62.7054 77.1288 61.7551C77.1288 60.8049 76.3572 60.0336 75.4065 60.0336Z" fill="black"/>
<path d="M101.733 53.4273C100.419 53.4273 99.3511 52.3597 99.3511 51.0462C99.3511 49.7326 100.419 48.665 101.733 48.665C103.047 48.665 104.115 49.7326 104.115 51.0462C104.115 52.3597 103.047 53.4273 101.733 53.4273ZM101.733 49.319C100.783 49.319 100.011 50.0904 100.011 51.0406C100.011 51.9908 100.783 52.7621 101.733 52.7621C102.684 52.7621 103.455 51.9908 103.455 51.0406C103.455 50.0959 102.684 49.319 101.733 49.319Z" fill="black"/>
<path d="M141.765 35.6304C141.765 36.7651 140.848 37.6818 139.713 37.6818C138.578 37.6818 137.661 36.7651 137.661 35.6304C137.661 34.4958 138.578 33.5791 139.713 33.5791C140.848 33.5791 141.765 34.4958 141.765 35.6304Z" fill="white"/>
<path d="M139.714 38.0113C138.4 38.0113 137.332 36.9437 137.332 35.6301C137.332 34.3166 138.4 33.249 139.714 33.249C141.028 33.249 142.096 34.3166 142.096 35.6301C142.096 36.9437 141.028 38.0113 139.714 38.0113ZM139.714 33.9086C138.763 33.9086 137.991 34.6799 137.991 35.6301C137.991 36.5803 138.763 37.3517 139.714 37.3517C140.664 37.3517 141.436 36.5803 141.436 35.6301C141.436 34.6799 140.664 33.9086 139.714 33.9086Z" fill="black"/>
<path d="M114.701 66.6875H109.814V72.8918H114.701V66.6875Z" fill="white"/>
<path d="M114.706 73.2213H109.819C109.634 73.2213 109.489 73.076 109.489 72.8915V66.6872C109.489 66.5027 109.634 66.3574 109.819 66.3574H114.706C114.891 66.3574 115.036 66.5027 115.036 66.6872V72.8915C115.036 73.0704 114.885 73.2213 114.706 73.2213ZM110.149 72.5561H114.376V67.0114H110.149V72.5561Z" fill="black"/>
<path d="M123.978 60.8574H119.09V72.886H123.978V60.8574Z" fill="white"/>
<path d="M123.983 73.2213H119.096C118.911 73.2213 118.766 73.076 118.766 72.8915V60.863C118.766 60.6785 118.911 60.5332 119.096 60.5332H123.983C124.167 60.5332 124.313 60.6785 124.313 60.863V72.8915C124.313 73.0704 124.162 73.2213 123.983 73.2213ZM119.42 72.5562H123.647V61.1872H119.42V72.5562Z" fill="black"/>
<path d="M133.255 55.2236H128.368V72.892H133.255V55.2236Z" fill="white"/>
<path d="M133.254 73.2214H128.367C128.183 73.2214 128.037 73.0761 128.037 72.8917V55.2233C128.037 55.0389 128.183 54.8936 128.367 54.8936H133.254C133.439 54.8936 133.584 55.0389 133.584 55.2233V72.8917C133.59 73.0705 133.439 73.2214 133.254 73.2214ZM128.697 72.5563H132.924V55.5531H128.697V72.5563Z" fill="black"/>
<path d="M142.531 49.584H137.644V72.8921H142.531V49.584Z" fill="white"/>
<path d="M142.531 73.2216H137.644C137.459 73.2216 137.314 73.0762 137.314 72.8918V49.5837C137.314 49.3992 137.459 49.2539 137.644 49.2539H142.531C142.716 49.2539 142.861 49.3992 142.861 49.5837V72.8918C142.861 73.0706 142.716 73.2216 142.531 73.2216ZM137.974 72.5564H142.201V49.9135H137.974V72.5564Z" fill="black"/>
<path d="M53.5667 60.2269C50.8007 57.4621 47.509 55.2161 43.8626 53.6465L31.5371 82.2405L53.5667 104.261C59.2038 98.6259 62.6926 90.8437 62.6926 82.2405C62.6926 73.6439 59.2038 65.8617 53.5667 60.2269Z" fill="white"/>
<path d="M9.51358 60.2274C3.87642 65.8622 0.387695 73.6444 0.387695 82.2476C0.387695 90.8442 3.87642 98.633 9.51358 104.268C15.1507 109.903 22.9363 113.39 31.5432 113.39V82.2542V51.1055C22.9363 51.1055 15.1507 54.5927 9.51358 60.2274Z" fill="white"/>
<path d="M8.9085 73.9854C8.34347 73.9854 7.89014 74.4385 7.89014 75.0033C7.89014 75.5681 8.34347 76.0212 8.9085 76.0212C9.47353 76.0212 9.92687 75.5681 9.92687 75.0033C9.92687 74.4385 9.47353 73.9854 8.9085 73.9854Z" fill="#6633CC"/>
<path d="M16.2811 73.9854C15.716 73.9854 15.2627 74.4385 15.2627 75.0033C15.2627 75.5681 15.716 76.0212 16.2811 76.0212C16.8461 76.0212 17.2994 75.5681 17.2994 75.0033C17.2994 74.4385 16.8395 73.9854 16.2811 73.9854Z" fill="#6633CC"/>
<path d="M23.6458 73.9854C23.0808 73.9854 22.6274 74.4385 22.6274 75.0033C22.6274 75.5681 23.0808 76.0212 23.6458 76.0212C24.2108 76.0212 24.6642 75.5681 24.6642 75.0033C24.6642 74.4385 24.2043 73.9854 23.6458 73.9854Z" fill="#6633CC"/>
<path d="M5.22979 79.2266C4.66476 79.2266 4.21143 79.6797 4.21143 80.2445C4.21143 80.8093 4.66476 81.2624 5.22979 81.2624C5.79482 81.2624 6.24816 80.8093 6.24816 80.2445C6.24816 79.6863 5.78825 79.2266 5.22979 79.2266Z" fill="#6633CC"/>
<path d="M12.5955 79.2266C12.0305 79.2266 11.5771 79.6797 11.5771 80.2445C11.5771 80.8093 12.0305 81.2624 12.5955 81.2624C13.1605 81.2624 13.6139 80.8093 13.6139 80.2445C13.6139 79.6863 13.1605 79.2266 12.5955 79.2266Z" fill="#6633CC"/>
<path d="M19.9598 79.2266C19.3947 79.2266 18.9414 79.6797 18.9414 80.2445C18.9414 80.8093 19.3947 81.2624 19.9598 81.2624C20.5248 81.2624 20.9781 80.8093 20.9781 80.2445C20.9781 79.6863 20.5248 79.2266 19.9598 79.2266Z" fill="#6633CC"/>
<path d="M27.3245 79.2266C26.7595 79.2266 26.3062 79.6797 26.3062 80.2445C26.3062 80.8093 26.7595 81.2624 27.3245 81.2624C27.8895 81.2624 28.3429 80.8093 28.3429 80.2445C28.3495 79.6863 27.8895 79.2266 27.3245 79.2266Z" fill="#6633CC"/>
<path d="M8.9085 84.4668C8.34347 84.4668 7.89014 84.9199 7.89014 85.4847C7.89014 86.0495 8.34347 86.5027 8.9085 86.5027C9.47353 86.5027 9.92687 86.0495 9.92687 85.4847C9.92687 84.9199 9.47353 84.4668 8.9085 84.4668Z" fill="#6633CC"/>
<path d="M16.2811 84.4668C15.716 84.4668 15.2627 84.9199 15.2627 85.4847C15.2627 86.0495 15.716 86.5027 16.2811 86.5027C16.8461 86.5027 17.2994 86.0495 17.2994 85.4847C17.2994 84.9199 16.8395 84.4668 16.2811 84.4668Z" fill="#6633CC"/>
<path d="M23.6458 84.4668C23.0808 84.4668 22.6274 84.9199 22.6274 85.4847C22.6274 86.0495 23.0808 86.5027 23.6458 86.5027C24.2108 86.5027 24.6642 86.0495 24.6642 85.4847C24.6642 84.9199 24.2043 84.4668 23.6458 84.4668Z" fill="#6633CC"/>
<path d="M5.22979 91.7507C5.79222 91.7507 6.24816 91.295 6.24816 90.7328C6.24816 90.1706 5.79222 89.7148 5.22979 89.7148C4.66736 89.7148 4.21143 90.1706 4.21143 90.7328C4.21143 91.295 4.66736 91.7507 5.22979 91.7507Z" fill="#6633CC"/>
<path d="M12.5955 91.7507C13.1579 91.7507 13.6139 91.295 13.6139 90.7328C13.6139 90.1706 13.1579 89.7148 12.5955 89.7148C12.0331 89.7148 11.5771 90.1706 11.5771 90.7328C11.5771 91.295 12.0331 91.7507 12.5955 91.7507Z" fill="#6633CC"/>
<path d="M19.9598 91.7507C20.5222 91.7507 20.9781 91.295 20.9781 90.7328C20.9781 90.1706 20.5222 89.7148 19.9598 89.7148C19.3973 89.7148 18.9414 90.1706 18.9414 90.7328C18.9414 91.295 19.3973 91.7507 19.9598 91.7507Z" fill="#6633CC"/>
<path d="M8.9085 94.9551C8.34347 94.9551 7.89014 95.4082 7.89014 95.973C7.89014 96.5378 8.34347 96.9909 8.9085 96.9909C9.47353 96.9909 9.92687 96.5378 9.92687 95.973C9.92687 95.4082 9.47353 94.9551 8.9085 94.9551Z" fill="#6633CC"/>
<path d="M23.6458 55.0525C24.2082 55.0525 24.6642 54.5967 24.6642 54.0345C24.6642 53.4723 24.2082 53.0166 23.6458 53.0166C23.0834 53.0166 22.6274 53.4723 22.6274 54.0345C22.6274 54.5967 23.0834 55.0525 23.6458 55.0525Z" fill="#6633CC"/>
<path d="M19.9598 60.2927C20.5222 60.2927 20.9781 59.837 20.9781 59.2748C20.9781 58.7126 20.5222 58.2568 19.9598 58.2568C19.3973 58.2568 18.9414 58.7126 18.9414 59.2748C18.9414 59.837 19.3973 60.2927 19.9598 60.2927Z" fill="#6633CC"/>
<path d="M27.3245 60.2927C27.8869 60.2927 28.3429 59.837 28.3429 59.2748C28.3429 58.7126 27.8869 58.2568 27.3245 58.2568C26.7621 58.2568 26.3062 58.7126 26.3062 59.2748C26.3062 59.837 26.7621 60.2927 27.3245 60.2927Z" fill="#6633CC"/>
<path d="M8.9085 65.5339C9.47093 65.5339 9.92687 65.0782 9.92687 64.516C9.92687 63.9538 9.47093 63.498 8.9085 63.498C8.34608 63.498 7.89014 63.9538 7.89014 64.516C7.89014 65.0782 8.34608 65.5339 8.9085 65.5339Z" fill="#6633CC"/>
<path d="M16.2811 63.498C15.716 63.498 15.2627 63.9512 15.2627 64.516C15.2627 65.0808 15.716 65.5339 16.2811 65.5339C16.8461 65.5339 17.2994 65.0808 17.2994 64.516C17.2994 63.9578 16.8395 63.498 16.2811 63.498Z" fill="#6633CC"/>
<path d="M23.6458 65.5339C24.2082 65.5339 24.6642 65.0782 24.6642 64.516C24.6642 63.9538 24.2082 63.498 23.6458 63.498C23.0834 63.498 22.6274 63.9538 22.6274 64.516C22.6274 65.0782 23.0834 65.5339 23.6458 65.5339Z" fill="#6633CC"/>
<path d="M5.22979 70.781C5.79222 70.781 6.24816 70.3252 6.24816 69.7631C6.24816 69.2009 5.79222 68.7451 5.22979 68.7451C4.66736 68.7451 4.21143 69.2009 4.21143 69.7631C4.21143 70.3252 4.66736 70.781 5.22979 70.781Z" fill="#6633CC"/>
<path d="M12.5955 70.781C13.1579 70.781 13.6139 70.3252 13.6139 69.7631C13.6139 69.2009 13.1579 68.7451 12.5955 68.7451C12.0331 68.7451 11.5771 69.2009 11.5771 69.7631C11.5771 70.3252 12.0331 70.781 12.5955 70.781Z" fill="#6633CC"/>
<path d="M19.9598 70.781C20.5222 70.781 20.9781 70.3252 20.9781 69.7631C20.9781 69.2009 20.5222 68.7451 19.9598 68.7451C19.3973 68.7451 18.9414 69.2009 18.9414 69.7631C18.9414 70.3252 19.3973 70.781 19.9598 70.781Z" fill="#6633CC"/>
<path d="M27.3245 70.781C27.8869 70.781 28.3429 70.3252 28.3429 69.7631C28.3429 69.2009 27.8869 68.7451 27.3245 68.7451C26.7621 68.7451 26.3062 69.2009 26.3062 69.7631C26.3062 70.3252 26.7621 70.781 27.3245 70.781Z" fill="#6633CC"/>
<path d="M53.842 59.9514C51.0037 57.1143 47.699 54.8749 44.0197 53.2856C40.0645 51.5781 35.8662 50.7178 31.5431 50.7178C23.1202 50.7178 15.1967 53.9949 9.24414 59.9514C3.27848 65.9079 0 73.8215 0 82.2408C0 90.6601 3.27848 98.5737 9.23757 104.53C15.1967 110.487 23.1136 113.764 31.5365 113.764C31.7533 113.764 31.9242 113.593 31.9242 113.376V83.1734L53.2901 104.53C53.3624 104.602 53.461 104.642 53.5661 104.642C53.6712 104.642 53.7698 104.602 53.842 104.53C59.8011 98.5737 63.0796 90.6601 63.0796 82.2408C63.0796 73.8215 59.7945 65.9014 53.842 59.9514ZM31.1489 112.989C23.2056 112.89 15.7485 109.804 10.0588 104.254L31.1489 83.1734V112.989ZM17.2925 95.9336C17.2728 95.3885 16.826 94.9551 16.2742 94.9551C15.7091 94.9551 15.2558 95.4082 15.2558 95.973C15.2558 96.5247 15.6894 96.9713 16.2347 96.991L12.9563 100.268C12.8446 100.222 12.7197 100.202 12.5883 100.202C12.0233 100.202 11.57 100.656 11.57 101.22C11.57 101.352 11.5962 101.47 11.6357 101.588L9.50695 103.716C4.84217 98.9349 1.91847 92.9061 1.04465 86.3848C1.18919 86.4636 1.36001 86.5096 1.53741 86.5096C2.10243 86.5096 2.55577 86.0564 2.55577 85.4916C2.55577 84.9268 2.10243 84.4737 1.53741 84.4737C1.28117 84.4737 1.04465 84.5656 0.867254 84.7233C0.801553 83.9023 0.768703 83.0749 0.768703 82.2474C0.768703 80.1327 0.978946 78.0443 1.39943 76.015C1.44542 76.0216 1.49141 76.0216 1.53741 76.0216C2.10243 76.0216 2.55577 75.5684 2.55577 75.0037C2.55577 74.5571 2.26669 74.1762 1.87248 74.0383C3.26534 68.9683 5.95909 64.3187 9.78289 60.4965C10.4202 59.8595 11.0838 59.2553 11.7671 58.6773C11.6488 58.8481 11.5765 59.0517 11.5765 59.275C11.5765 59.8398 12.0299 60.2929 12.5949 60.2929C13.1599 60.2929 13.6133 59.8398 13.6133 59.275C13.6133 58.7102 13.1599 58.257 12.5949 58.257C12.4438 58.257 12.2992 58.2899 12.1678 58.349C17.5356 53.9817 24.1583 51.5781 31.1555 51.4927V53.0229C31.1095 53.0163 31.0635 53.0163 31.0175 53.0163C30.4524 53.0163 29.9991 53.4695 29.9991 54.0343C29.9991 54.599 30.4524 55.0522 31.0175 55.0522C31.0635 55.0522 31.1095 55.0456 31.1555 55.0456V63.5109C31.1095 63.5043 31.0635 63.5043 31.0175 63.5043C30.4524 63.5043 29.9991 63.9574 29.9991 64.5222C29.9991 65.087 30.4524 65.5402 31.0175 65.5402C31.0635 65.5402 31.1095 65.5336 31.1555 65.5336V73.9988C31.1095 73.9923 31.0635 73.9923 31.0175 73.9923C30.4524 73.9923 29.9991 74.4454 29.9991 75.0102C29.9991 75.575 30.4524 76.0281 31.0175 76.0281C31.0635 76.0281 31.1095 76.0281 31.1555 76.0216V82.0898L17.2925 95.9336ZM58.3557 67.1426C60.872 71.5887 62.2386 76.6192 62.3043 81.8533H58.3557V67.1426ZM57.5739 65.8488V81.8533H52.7185V61.6195L53.5661 60.7723C55.0904 62.3419 56.4307 64.0428 57.5739 65.8488ZM44.0657 54.1525C47.3968 55.6367 50.4059 57.6791 53.0142 60.2272L49.7291 63.5109L32.6929 80.5399L44.0657 54.1525ZM51.9433 62.3944V81.8533H47.088V67.2477L51.9433 62.3944ZM46.3127 68.0292V81.8599H41.4574V72.889L46.3127 68.0292ZM40.6755 73.6574V81.8533H35.8202V78.5106L40.6755 73.6574ZM35.045 79.2921V81.8599H32.476L35.045 79.2921ZM53.5661 103.709L32.476 82.6283H62.2978C62.1992 90.5682 59.1113 98.0286 53.5661 103.709Z" fill="#6633CC"/>
<g clip-path="url(#clip0_12617_179351)">
<path d="M13.2632 211.855L141.964 211.855V168.726C141.964 163.531 139.903 158.549 136.234 154.875C132.566 151.202 127.59 149.138 122.402 149.138H32.8257C27.6374 149.138 22.6616 151.202 18.9929 154.875C15.3242 158.549 13.2632 163.531 13.2632 168.726L13.2632 211.855Z" fill="#3C26E6"/>
<path d="M131.668 183.956H121.587C118.86 183.956 116.244 185.041 114.316 186.972C112.388 188.902 111.305 191.521 111.305 194.252V205.263C111.307 205.749 111.213 206.231 111.028 206.681C110.843 207.131 110.572 207.54 110.229 207.884C109.886 208.229 109.479 208.502 109.031 208.689C108.582 208.876 108.101 208.972 107.615 208.972H47.5548C46.5726 208.972 45.6305 208.581 44.9359 207.885C44.2414 207.19 43.8511 206.247 43.8511 205.263V194.252C43.8511 191.521 42.7679 188.902 40.8397 186.972C38.9115 185.041 36.2962 183.956 33.5693 183.956H23.5593C20.8324 183.956 18.2172 185.041 16.2889 186.972C14.3607 188.902 13.2775 191.521 13.2775 194.252V244.784C13.2813 248.99 14.9519 253.024 17.9225 255.998C20.8931 258.973 24.921 260.645 29.122 260.649H126.105C130.305 260.645 134.332 258.972 137.3 255.997C140.268 253.022 141.936 248.989 141.936 244.784V194.252C141.937 192.9 141.673 191.562 141.158 190.313C140.643 189.064 139.887 187.929 138.933 186.972C137.98 186.016 136.847 185.258 135.601 184.74C134.354 184.222 133.018 183.956 131.668 183.956Z" fill="#0F0655"/>
<path d="M32.7685 259.71C25.1285 251.833 18.5692 242.973 13.2632 233.363V231.115C18.8405 241.631 25.917 251.279 34.27 259.753L32.7685 259.71Z" fill="#4A447B"/>
<path d="M71.0784 208.032H72.823C91.9224 222.987 109.005 240.358 123.646 259.71H122.301C107.546 240.325 90.3262 222.952 71.0784 208.032Z" fill="#4A447B"/>
<path d="M117.711 183.775C124.251 196.242 132.396 207.795 141.936 218.141V219.716C131.991 209.085 123.516 197.166 116.739 184.277C117.053 184.062 117.382 183.919 117.711 183.775Z" fill="#4A447B"/>
<path d="M88.6104 208.032C106.671 218.686 124.504 229.869 141.936 241.439V242.727C123.832 230.685 105.27 219.072 86.4941 208.032H88.6104Z" fill="#4A447B"/>
<path d="M30.7093 208.72C27.0815 200.428 22.4363 192.622 16.8812 185.48C17.1511 185.24 17.4378 185.02 17.7391 184.821C23.5821 192.36 28.436 200.618 32.1823 209.393C38.0167 212.085 43.7653 214.949 49.4282 217.984C48.7036 214.701 48.1078 211.402 47.6407 208.09H48.7275C49.2137 211.641 49.8667 215.159 50.6866 218.643C72.3912 230.224 92.8521 244.005 111.748 259.768H110.075C91.754 244.597 71.9699 231.291 51.0155 220.046C54.4688 234.233 60.4306 247.685 68.6189 259.768H67.3319C59.0969 247.463 53.139 233.776 49.7428 219.359C44.1943 216.409 38.5601 213.603 32.84 210.939C35.3712 216.667 37.602 222.638 39.7327 228.48L41.1627 232.389C44.4946 241.568 47.8838 250.904 52.088 259.768H50.9011C46.7683 251.004 43.4365 241.797 40.1617 232.762L38.7317 228.838C36.4723 222.652 34.0985 216.366 31.3814 210.223C25.4326 207.474 19.398 204.892 13.2775 202.477V201.317C19.1596 203.627 24.9702 206.095 30.7093 208.72Z" fill="#4A447B"/>
<path d="M64.5865 152.016C63.4711 146.746 63.8858 141.391 60.94 136.637C60.4044 135.936 60.0329 135.124 59.8532 134.26C59.8646 133.341 60.0642 132.435 60.4395 131.597C60.9114 130.165 61.8695 126.284 60.4395 125.353C60.0576 125.154 59.6333 125.05 59.2026 125.05C58.7718 125.05 58.3474 125.154 57.9656 125.353C58.0146 124.753 57.9663 124.149 57.8226 123.564C57.6512 123.217 57.3793 122.93 57.0424 122.741C56.7056 122.552 56.3196 122.47 55.935 122.504C55.3058 122.504 54.5908 122.819 54.505 123.449C54.5903 123.042 54.5303 122.618 54.3353 122.251C54.1403 121.883 53.8228 121.596 53.4381 121.44C53.0535 121.283 52.626 121.266 52.2304 121.393C51.8347 121.519 51.4959 121.781 51.2731 122.132C50.7382 123.437 50.3636 124.802 50.1577 126.198C49.7716 127.63 49.3712 129.062 48.9708 130.494C48.5592 131.549 48.494 132.707 48.7845 133.802C49.0751 134.896 49.7064 135.869 50.5867 136.58C50.9299 137.023 51.2731 137.453 51.5591 137.897C52.8359 139.841 53.9139 141.908 54.7767 144.069C56.0494 147.505 56.1352 151.5 56.4498 155.109C57.624 154.852 58.8133 154.67 60.0105 154.564C61.1116 154.421 64.3005 154.65 64.6437 153.448C64.7276 152.972 64.708 152.483 64.5865 152.016Z" fill="#E8B7B4"/>
<path d="M51.5442 131.883L51.8445 130.752C52.5512 127.837 53.4347 124.968 54.4901 122.16C54.5139 122.094 54.5507 122.033 54.5983 121.982C54.6459 121.93 54.7034 121.888 54.7673 121.859C54.8312 121.829 54.9003 121.813 54.9705 121.811C55.0408 121.809 55.1108 121.82 55.1765 121.845C55.2426 121.869 55.3033 121.906 55.355 121.954C55.4067 122.002 55.4485 122.059 55.4778 122.123C55.5071 122.187 55.5233 122.256 55.5256 122.327C55.5279 122.397 55.5162 122.467 55.4911 122.533C54.4493 125.313 53.5754 128.153 52.8741 131.038L52.5882 132.17C52.5572 132.283 52.4903 132.384 52.3975 132.456C52.3047 132.528 52.1909 132.568 52.0733 132.57H51.9303C51.8578 132.554 51.7895 132.523 51.7299 132.479C51.6702 132.434 51.6206 132.378 51.5842 132.313C51.5477 132.248 51.5254 132.176 51.5185 132.102C51.5116 132.028 51.5204 131.954 51.5442 131.883Z" fill="#3D4040"/>
<path d="M58.0944 123.98C58.1457 123.848 58.246 123.742 58.374 123.683C58.5021 123.624 58.6479 123.618 58.7808 123.665C58.8481 123.687 58.9102 123.723 58.963 123.77C59.0159 123.817 59.0584 123.875 59.0879 123.94C59.1175 124.004 59.1334 124.074 59.1347 124.145C59.136 124.216 59.1226 124.286 59.0954 124.352C58.266 126.543 57.1077 130.566 56.4499 133.244C56.4188 133.362 56.3503 133.466 56.2548 133.541C56.1594 133.615 56.0421 133.657 55.9208 133.659H55.7921C55.6542 133.622 55.5364 133.533 55.4642 133.409C55.392 133.286 55.3711 133.139 55.406 133.001C56.0781 130.28 57.2507 126.199 58.0944 123.98Z" fill="#3D4040"/>
<path d="M50.3433 145.3C50.3433 145.3 61.7834 144.742 65.6873 144.585C67.1173 149.224 69.1909 157.472 71.579 161.653C71.7223 157.611 72.6246 153.633 74.2388 149.926C77.1989 144.198 82.3612 137.625 90.9556 138.47C99.4356 139.573 85.9505 174.626 85.3499 178.149C82.0895 178.893 78.1999 180.082 75.1254 180.525C72.3402 180.859 69.5283 180.178 67.2032 178.607C63.957 176.244 61.7405 172.063 59.7957 168.655C56.5495 162.899 50.3433 145.3 50.3433 145.3Z" fill="#CDC7FD"/>
<path d="M74.2389 167.38C74.3448 167.379 74.4484 167.349 74.5392 167.294C74.6574 167.215 74.7401 167.093 74.7695 166.954C74.7989 166.815 74.7727 166.67 74.6965 166.55C71.8365 162.254 69.0623 155.094 66.1164 144.699C66.0983 144.631 66.0667 144.567 66.0237 144.511C65.9806 144.455 65.9268 144.409 65.8656 144.374C65.8043 144.34 65.7368 144.317 65.6669 144.309C65.5971 144.301 65.5262 144.307 65.4586 144.326C65.3203 144.366 65.2033 144.46 65.1336 144.586C65.0639 144.712 65.0471 144.861 65.0868 144.999C68.0469 155.452 70.8784 162.698 73.7813 167.137C73.8303 167.213 73.8982 167.276 73.9783 167.318C74.0585 167.361 74.1482 167.382 74.2389 167.38Z" fill="#3D4040"/>
<path d="M47.5263 267.987C46.9741 269.266 45.9857 270.306 44.7377 270.922C42.6499 271.982 40.5192 271.452 38.3313 273.657C36.9717 275.246 36.2707 277.295 36.3722 279.385H63.9714C64.4038 277.352 64.1732 275.234 63.3136 273.342C63.0991 272.956 62.7559 272.655 62.5414 272.283C61.8693 271.08 62.141 256.646 62.1982 253.238L48.1841 253.625C48.4129 253.668 48.4129 266.097 47.5263 267.987Z" fill="#A79F9D"/>
<path d="M37.3587 273.857C39.2463 271.537 42.7784 270.578 48.1696 270.907C52.0128 271.122 55.7317 272.347 58.9519 274.458C59.6667 273.355 60.6512 272.453 61.8119 271.838C61.3335 267.311 61.5894 262.737 62.5698 258.292C62.5815 258.222 62.6075 258.156 62.6461 258.096C62.6847 258.037 62.7351 257.986 62.7941 257.947C62.8532 257.908 62.9196 257.882 62.9893 257.87C63.0589 257.858 63.1303 257.86 63.199 257.877C63.2693 257.89 63.3361 257.918 63.3954 257.958C63.4547 257.998 63.5053 258.05 63.5441 258.11C63.5828 258.17 63.609 258.238 63.621 258.309C63.6329 258.379 63.6305 258.452 63.6137 258.521C62.6311 262.971 62.3943 267.554 62.913 272.081C62.9276 272.194 62.9064 272.309 62.8525 272.409C62.7986 272.509 62.7148 272.59 62.6127 272.64C61.3228 273.257 60.2542 274.257 59.5525 275.504C59.4707 275.606 59.3537 275.675 59.2242 275.696C59.0947 275.717 58.962 275.69 58.8518 275.618C55.7072 273.423 52.0118 272.154 48.1839 271.953C43.1503 271.652 39.9184 272.482 38.2596 274.501C37.7186 275.171 37.3307 275.952 37.1232 276.788C36.9157 277.624 36.8935 278.496 37.0584 279.341C37.0836 279.482 37.0528 279.626 36.9726 279.744C36.8923 279.862 36.7691 279.944 36.6294 279.971H36.5293C36.4047 279.974 36.2834 279.932 36.1866 279.853C36.0898 279.775 36.0238 279.664 36.0002 279.542C35.8053 278.552 35.8257 277.532 36.0601 276.551C36.2946 275.57 36.7375 274.651 37.3587 273.857Z" fill="#3D4040"/>
<path d="M49.1422 210.939C49.6474 206.198 50.392 201.486 51.373 196.821C51.8805 194.499 52.8985 192.32 54.3531 190.443C55.8077 188.565 57.6622 187.036 59.7815 185.967C63.5996 183.862 69.0908 182.473 73.2522 181.227C81.9037 178.65 92.114 176.144 100.994 178.635C114.236 182.344 112.921 202.19 101.18 207.402C97.0988 209.037 92.6859 209.671 88.3102 209.25C84.9353 209.063 76.9559 207.589 76.3553 211.254C74.6679 221.478 66.4739 267.099 66.4739 267.099L41.32 266.598C41.32 266.598 47.9124 222.595 49.1422 210.939Z" fill="#6633CC"/>
<path d="M28.6929 175.013C28.078 181.156 32.2965 191.007 34.084 196.076C39.8041 212.543 46.2248 225.602 54.5332 243.114C63.8674 243.485 73.2149 243.337 82.5328 242.67C82.5328 242.67 67.5749 210.767 59.7956 194.215C66.9456 192.783 93.8585 195.475 93.787 193.312C93.6297 188.888 88.2814 179.237 83.9056 178.592C81.2172 178.206 60.8824 168.082 47.9694 165.705C38.8889 163.987 33.3404 165.333 30.1515 170.531C29.3359 171.896 28.8373 173.428 28.6929 175.013Z" fill="#6633CC"/>
<path d="M93.5583 131.826C101.109 135.062 110.146 125.826 105.384 118.666C101.609 112.939 92.6002 111.908 89.0395 118.351C88.449 119.532 88.0974 120.819 88.005 122.136C87.9126 123.454 88.0813 124.777 88.5012 126.029C88.9212 127.281 89.5841 128.438 90.452 129.433C91.3198 130.428 92.3755 131.241 93.5583 131.826Z" fill="#E8B7B4"/>
<path d="M99.0354 121.86C100.276 121.658 101.451 121.168 102.467 120.428C100.137 122.389 104.255 134.088 107.544 127C108.531 124.935 108.877 122.621 108.537 120.358C108.198 118.094 107.19 115.983 105.641 114.299C104.093 112.615 102.076 111.434 99.8514 110.908C97.6263 110.382 95.295 110.536 93.1581 111.349C91.61 111.888 90.263 112.887 89.2971 114.213C88.8238 114.877 88.5169 115.645 88.4024 116.453C88.2879 117.26 88.3692 118.083 88.6393 118.853C89.8834 121.917 95.1458 122.633 99.0354 121.86Z" fill="#3D4040"/>
<path d="M103.883 101.426C105.67 100.678 107.628 100.437 109.543 100.73C111.457 101.023 113.255 101.838 114.737 103.087C116.173 104.391 117.178 106.102 117.62 107.992C118.062 109.882 117.919 111.862 117.21 113.669C116.417 115.437 115.06 116.892 113.352 117.804C111.643 118.717 109.681 119.035 107.772 118.709C100.837 117.249 95.8175 104.863 103.883 101.426Z" fill="#3D4040"/>
<path d="M121.658 158.431C122.359 163.171 122.187 166.049 125.834 169.156C128.565 171.476 133.756 174.44 134.114 178.42C134.314 180.754 131.597 184.449 129.509 185.494C127.421 186.539 116.639 186.239 113.307 183.117C111.315 180.842 109.933 178.097 109.289 175.141C107.458 166.965 95.2602 140.976 96.4185 139.344C98.3204 136.838 104.469 138.112 107.472 139.043C115.895 141.706 120.471 150.269 121.658 158.431Z" fill="#CDC7FD"/>
<path d="M82.0039 143.081C78.486 148.164 80.1449 174.067 82.9191 178.678C88.0242 177.862 94.5737 177.06 99.5215 178.306C101.256 178.768 102.92 179.462 104.469 180.368C105.385 180.926 106.185 180.597 106.815 179.623C108.245 177.347 108.817 172.865 109.675 170.216C110.933 166.536 113.035 147.477 109.746 143.339C105.027 137.396 95.5461 137.468 88.4103 139.043C88.1815 139.157 83.4625 140.962 82.0039 143.081Z" fill="#CDC7FD"/>
<path d="M79.4298 177.017C79.5006 177.014 79.57 176.996 79.6338 176.965C79.6976 176.934 79.7545 176.89 79.8012 176.837C79.8479 176.784 79.8833 176.721 79.9055 176.654C79.9277 176.586 79.9361 176.515 79.9303 176.444C79.9303 175.872 79.8588 175.342 79.8302 174.826C79.6578 171.6 79.2949 168.387 78.7434 165.204C77.3134 156.054 78.7434 149.453 82.7903 146.675C82.8476 146.636 82.8966 146.585 82.9344 146.527C82.9722 146.468 82.9981 146.403 83.0107 146.334C83.0234 146.266 83.0224 146.196 83.0079 146.128C82.9934 146.059 82.9656 145.995 82.9262 145.938C82.8867 145.88 82.8364 145.831 82.7781 145.793C82.7197 145.755 82.6545 145.729 82.5861 145.717C82.5177 145.704 82.4475 145.705 82.3795 145.72C82.3115 145.734 82.247 145.762 82.1897 145.802C77.7567 148.851 76.1551 155.825 77.6852 165.361C78.2343 168.516 78.5925 171.7 78.7577 174.898C78.7577 175.413 78.8292 175.943 78.8578 176.53C78.8723 176.67 78.9398 176.798 79.0463 176.889C79.1529 176.979 79.2902 177.025 79.4298 177.017Z" fill="#3D4040"/>
<path d="M90.2409 151.199C90.3279 151.201 90.4139 151.181 90.4912 151.141C90.5685 151.101 90.6348 151.042 90.6842 150.97C92.2163 148.802 93.8582 146.713 95.6034 144.713C97.6081 142.577 99.3419 140.201 100.766 137.639C100.825 137.51 100.831 137.363 100.783 137.229C100.735 137.095 100.636 136.985 100.508 136.923C100.377 136.869 100.23 136.867 100.097 136.917C99.964 136.968 99.8554 137.067 99.7933 137.195C98.4009 139.662 96.7207 141.955 94.7883 144.026C93.3583 145.758 91.7996 147.548 90.3982 149.496C89.1702 145.665 89.4359 141.511 91.1418 137.868C91.1888 137.806 91.2219 137.734 91.2387 137.658C91.2555 137.581 91.2557 137.502 91.2392 137.426C91.2227 137.349 91.19 137.277 91.1432 137.215C91.0965 137.152 91.0368 137.1 90.9682 137.063C90.8997 137.026 90.8239 137.003 90.746 136.998C90.6681 136.992 90.5899 137.004 90.5168 137.031C90.4437 137.059 90.3774 137.102 90.3223 137.157C90.2673 137.213 90.2249 137.28 90.198 137.353C87.7956 141.849 88.4534 147.376 89.7261 150.856C89.7631 150.947 89.8236 151.027 89.9015 151.087C89.9793 151.148 90.0718 151.186 90.1694 151.199H90.2409Z" fill="#3D4040"/>
<path d="M118.297 185.494C118.436 185.491 118.569 185.434 118.667 185.335C118.766 185.237 118.823 185.104 118.826 184.965C118.83 184.894 118.82 184.824 118.796 184.758C118.772 184.693 118.734 184.632 118.686 184.581C118.638 184.53 118.58 184.49 118.515 184.462C118.451 184.434 118.382 184.42 118.312 184.42C116.634 184.287 115.037 183.648 113.73 182.587C112.423 181.526 111.467 180.093 110.99 178.478L103.168 153.964C103.147 153.897 103.112 153.834 103.067 153.781C103.022 153.727 102.966 153.683 102.904 153.651C102.841 153.619 102.773 153.6 102.703 153.594C102.633 153.589 102.562 153.598 102.496 153.62C102.363 153.666 102.252 153.762 102.188 153.887C102.124 154.013 102.111 154.158 102.152 154.293L109.903 178.807C110.452 180.631 111.539 182.247 113.022 183.44C114.505 184.634 116.314 185.35 118.211 185.494H118.297Z" fill="#3D4040"/>
<path d="M113.421 179.294C114.851 174.998 119.899 173.208 123.76 173.05C126.749 172.921 133.298 173.967 134.5 177.976C134.654 178.74 134.644 179.529 134.471 180.289C134.299 181.049 133.967 181.764 133.499 182.386C132.697 183.746 131.456 184.792 129.981 185.35C128.655 185.583 127.308 185.674 125.962 185.623C123.546 185.623 120.8 185.494 119.642 185.436H119.07C117.111 185.35 114.665 185.265 113.564 183.059C113.023 181.872 112.972 180.519 113.421 179.294ZM114.522 182.573C115.337 184.205 117.268 184.277 119.113 184.348H119.685C123.015 184.64 126.364 184.64 129.695 184.348C130.926 183.861 131.959 182.973 132.626 181.828C133.006 181.333 133.279 180.764 133.429 180.158C133.579 179.552 133.603 178.921 133.499 178.305C132.583 175.241 127.178 174.01 123.832 174.153C120.042 174.31 115.681 176.072 114.465 179.666C114.109 180.606 114.129 181.647 114.522 182.573Z" fill="#3D4040"/>
<path d="M108.373 172.335C108.46 172.336 108.546 172.316 108.624 172.276C108.701 172.236 108.767 172.177 108.817 172.106C110.32 169.97 112.581 168.49 115.137 167.967C115.215 167.963 115.29 167.943 115.359 167.907C115.428 167.871 115.488 167.821 115.536 167.76C115.584 167.699 115.618 167.628 115.637 167.553C115.655 167.478 115.657 167.399 115.643 167.323C115.628 167.247 115.598 167.174 115.553 167.111C115.509 167.047 115.451 166.994 115.384 166.955C115.317 166.916 115.243 166.891 115.166 166.883C115.089 166.875 115.011 166.883 114.937 166.908C112.107 167.494 109.604 169.131 107.93 171.49C107.89 171.548 107.862 171.613 107.847 171.683C107.832 171.752 107.832 171.823 107.845 171.892C107.858 171.962 107.885 172.028 107.925 172.087C107.964 172.145 108.014 172.196 108.073 172.234C108.159 172.302 108.265 172.337 108.373 172.335Z" fill="#3D4040"/>
<path d="M115.023 177.633C115.955 176.399 117.179 175.415 118.583 174.769C120.865 173.643 123.456 173.311 125.948 173.824C126.978 174.962 128.123 175.989 129.366 176.888C130.595 177.705 135.743 178.507 136.516 179.895C137.012 181.381 137.254 182.94 137.231 184.506L137.917 190.792C138.11 191.737 138.11 192.711 137.917 193.656C137.66 194.544 136.802 195.446 135.786 195.088C135.52 194.999 135.286 194.833 135.113 194.612C134.94 194.39 134.836 194.123 134.814 193.842C134.889 194.42 134.755 195.005 134.436 195.491C134.117 195.978 133.634 196.334 133.076 196.495C132.517 196.656 131.919 196.611 131.391 196.369C130.862 196.127 130.438 195.703 130.195 195.174C130.211 195.451 130.169 195.728 130.073 195.989C129.977 196.249 129.829 196.487 129.637 196.687C129.445 196.887 129.214 197.045 128.958 197.152C128.702 197.259 128.427 197.312 128.15 197.308C127.59 197.271 127.05 197.087 126.583 196.776C126.116 196.464 125.74 196.035 125.49 195.532C124.947 194.558 124.604 189.804 123.932 188.516C123.844 189.212 123.504 189.851 122.977 190.313C122.45 190.775 121.772 191.027 121.072 191.021C119.356 191.093 117.968 187.957 117.74 185.537C117.779 183.729 117.488 181.929 116.882 180.225C116.51 179.724 114.622 178.263 115.023 177.633Z" fill="#E8B7B4"/>
<path d="M113.421 179.294C114.851 174.998 119.899 173.208 123.76 173.05C126.888 172.901 129.986 173.726 132.626 175.413C132.735 175.5 132.807 175.627 132.825 175.765C132.844 175.904 132.808 176.044 132.726 176.158C132.684 176.215 132.631 176.264 132.569 176.3C132.508 176.337 132.44 176.36 132.369 176.37C132.298 176.379 132.226 176.374 132.157 176.355C132.088 176.336 132.024 176.303 131.968 176.258C129.519 174.749 126.676 174.007 123.803 174.124C120.014 174.282 115.652 176.043 114.437 179.637C114.403 179.744 114.337 179.838 114.247 179.905C114.157 179.972 114.048 180.009 113.936 180.01H113.764C113.694 179.987 113.628 179.95 113.572 179.902C113.516 179.853 113.47 179.793 113.438 179.726C113.406 179.659 113.388 179.586 113.385 179.512C113.382 179.437 113.394 179.363 113.421 179.294Z" fill="#3D4040"/>
<path d="M120.886 181.513C120.945 181.475 121.012 181.45 121.082 181.438C121.151 181.427 121.223 181.43 121.291 181.448C121.359 181.465 121.423 181.496 121.479 181.54C121.535 181.583 121.581 181.637 121.615 181.699C123.732 185.249 125.014 189.235 125.362 193.355C125.37 193.495 125.324 193.632 125.233 193.739C125.143 193.846 125.015 193.913 124.876 193.928C124.74 193.932 124.608 193.884 124.507 193.793C124.406 193.703 124.343 193.576 124.332 193.441C123.995 189.485 122.768 185.657 120.743 182.243C120.703 182.187 120.675 182.122 120.661 182.054C120.646 181.986 120.646 181.916 120.659 181.848C120.672 181.78 120.699 181.715 120.738 181.657C120.777 181.6 120.828 181.551 120.886 181.513Z" fill="#3D4040"/>
<path d="M128.808 182.788C128.877 182.771 128.948 182.768 129.018 182.779C129.087 182.79 129.154 182.815 129.214 182.852C129.274 182.89 129.326 182.939 129.367 182.997C129.408 183.054 129.436 183.12 129.452 183.189C130.474 187.405 130.922 191.74 130.782 196.076C130.774 196.215 130.714 196.346 130.613 196.442C130.511 196.538 130.377 196.592 130.238 196.591C130.167 196.59 130.098 196.574 130.033 196.544C129.969 196.515 129.911 196.473 129.863 196.421C129.815 196.369 129.778 196.308 129.754 196.241C129.73 196.175 129.719 196.104 129.723 196.033C129.871 191.774 129.433 187.515 128.422 183.375C128.407 183.247 128.437 183.118 128.508 183.011C128.578 182.903 128.685 182.824 128.808 182.788Z" fill="#3D4040"/>
<path d="M133.999 183.217C134.07 183.205 134.142 183.206 134.211 183.222C134.281 183.238 134.347 183.267 134.406 183.308C134.464 183.35 134.514 183.402 134.552 183.462C134.59 183.523 134.616 183.59 134.628 183.661C135.264 187.335 135.566 191.059 135.529 194.787C135.529 194.927 135.473 195.062 135.374 195.162C135.275 195.261 135.14 195.317 135 195.317C134.856 195.317 134.718 195.259 134.616 195.157C134.514 195.055 134.457 194.917 134.457 194.773C134.497 191.107 134.201 187.444 133.57 183.833C133.558 183.764 133.559 183.694 133.574 183.626C133.589 183.557 133.617 183.493 133.657 183.436C133.697 183.379 133.747 183.33 133.806 183.292C133.865 183.255 133.931 183.229 133.999 183.217Z" fill="#3D4040"/>
<path d="M74.3818 240.737C76.0568 242.989 77.9435 245.075 80.0161 246.966C81.7893 248.512 83.7055 248.154 85.9077 250.36C87.2673 251.948 87.9683 253.998 87.8668 256.087H62.241C62.241 256.087 60.4535 251.147 61.6833 248.928C62.3697 247.725 57.0072 237.916 53.4608 230.499L69.4912 231.43C70.8412 234.672 72.4779 237.787 74.3818 240.737Z" fill="#A79F9D"/>
<path d="M53.6756 232.131C53.8047 232.072 53.9519 232.066 54.0856 232.114C54.2192 232.162 54.3287 232.261 54.3906 232.389C55.1056 233.907 56.1495 235.74 57.2506 237.673C59.5243 241.668 61.8695 245.792 62.3414 248.641C62.7839 248.9 63.1636 249.254 63.4529 249.677C63.7423 250.101 63.9341 250.583 64.0146 251.09C67.7416 249.125 71.8492 247.992 76.0552 247.768C81.4607 247.424 84.9928 248.383 86.8804 250.703C87.5201 251.497 87.9794 252.42 88.2263 253.409C88.4733 254.398 88.502 255.429 88.3104 256.431C88.2872 256.555 88.2218 256.667 88.1253 256.748C88.0288 256.829 87.9072 256.874 87.7813 256.875H87.6812C87.5415 256.847 87.4183 256.765 87.3381 256.648C87.2578 256.53 87.227 256.385 87.2522 256.245C87.4132 255.399 87.3892 254.528 87.1818 253.693C86.9744 252.857 86.5886 252.077 86.051 251.405C84.3922 249.386 81.1461 248.541 76.1267 248.87C72.2228 249.114 66.9318 250.302 63.843 252.507C63.7607 252.55 63.669 252.572 63.5761 252.571C63.4833 252.57 63.3923 252.545 63.3113 252.5C63.2304 252.454 63.1621 252.389 63.1126 252.31C63.063 252.232 63.0339 252.142 63.0278 252.049C63.0664 251.532 62.9512 251.016 62.6967 250.565C62.4421 250.114 62.0597 249.748 61.5978 249.515C61.5151 249.479 61.4435 249.422 61.3906 249.348C61.3378 249.275 61.3056 249.189 61.2975 249.099C60.9686 246.45 58.4375 242.083 56.2925 238.231C55.1771 236.284 54.1189 234.422 53.4325 232.876C53.3961 232.812 53.3736 232.741 53.3662 232.667C53.3588 232.594 53.3669 232.52 53.3898 232.45C53.4126 232.38 53.4499 232.315 53.4991 232.26C53.5483 232.205 53.6084 232.162 53.6756 232.131Z" fill="#3D4040"/>
<path d="M75.7116 228.566L82.6758 243.4L54.9622 243.844L46.9684 223.225L75.7116 228.566Z" fill="#6633CC"/>
<path d="M56.6786 180.955C56.6995 180.888 56.7337 180.826 56.7794 180.773C56.825 180.72 56.8809 180.676 56.9438 180.645C57.0067 180.615 57.0753 180.597 57.1453 180.594C57.2152 180.59 57.2851 180.601 57.3507 180.626C57.4177 180.647 57.4799 180.681 57.5335 180.726C57.5872 180.772 57.6313 180.828 57.6632 180.89C57.6952 180.953 57.7144 181.021 57.7196 181.091C57.7249 181.161 57.7161 181.232 57.6939 181.299C57.1551 183.031 57.0958 184.877 57.5223 186.64C60.1915 185.218 62.9874 184.048 65.8736 183.146L67.99 182.416C73.3599 180.454 78.8914 178.969 84.5209 177.977C89.1337 176.992 93.8865 176.851 98.5493 177.561C100.917 177.944 103.183 178.801 105.212 180.08C107.242 181.359 108.993 183.035 110.361 185.007C110.399 185.067 110.424 185.133 110.436 185.202C110.448 185.271 110.447 185.342 110.432 185.41C110.401 185.548 110.316 185.669 110.197 185.745C110.077 185.821 109.933 185.846 109.794 185.815C109.656 185.784 109.536 185.7 109.46 185.58C108.171 183.732 106.522 182.163 104.613 180.967C102.704 179.771 100.573 178.973 98.3491 178.621C93.814 177.933 89.1919 178.074 84.7068 179.036C79.1369 180.018 73.663 181.484 68.3475 183.418L66.2311 184.163C63.3046 185.06 60.4775 186.254 57.794 187.728C58.3822 189.651 59.1234 191.523 60.0105 193.327C63.7715 201.36 67.7612 209.808 71.7366 218.256C75.7121 226.705 79.7018 235.139 83.4627 243.186C83.4939 243.25 83.512 243.319 83.5159 243.39C83.5198 243.461 83.5094 243.532 83.4854 243.598C83.4614 243.665 83.4242 243.727 83.3761 243.779C83.328 243.831 83.2699 243.873 83.2053 243.902C83.1298 243.917 83.0521 243.917 82.9765 243.902C82.8759 243.9 82.7776 243.872 82.692 243.819C82.6064 243.766 82.5367 243.691 82.4903 243.601C78.7294 235.554 74.754 227.12 70.7642 218.672L59.0381 193.742C56.9932 189.589 55.2772 185.151 56.6786 180.955Z" fill="#3D4040"/>
<path d="M28.9933 179.68C29.0609 179.663 29.1312 179.66 29.2002 179.67C29.2692 179.68 29.3355 179.704 29.3954 179.74C29.4552 179.775 29.5073 179.823 29.5488 179.879C29.5902 179.935 29.6201 179.999 29.6368 180.067C33.3119 195.216 43.6223 220.604 55.3055 243.314L69.4483 243.143C69.59 243.143 69.7261 243.198 69.8276 243.297C69.9291 243.396 69.988 243.531 69.9917 243.672C69.9917 243.814 69.9365 243.951 69.8376 244.052C69.7388 244.154 69.6042 244.213 69.4626 244.217L54.9766 244.388C54.8792 244.389 54.7837 244.362 54.7004 244.312C54.6171 244.261 54.5494 244.189 54.5047 244.102C51.9164 239.09 49.3996 233.95 46.9972 228.809L46.0533 235.811C44.323 248.627 42.6356 261.213 41.8777 266.783C41.8571 266.912 41.7909 267.03 41.6911 267.114C41.5914 267.198 41.4647 267.243 41.3343 267.242H41.2628C41.1251 267.217 41.0017 267.142 40.9169 267.03C40.8322 266.919 40.7923 266.78 40.8052 266.64C41.5631 261.07 43.2648 248.484 44.9951 235.668L46.1391 227.162C46.1331 227.12 46.1331 227.076 46.1391 227.034C37.9881 209.335 31.3528 191.88 28.55 180.325C28.5334 180.253 28.5319 180.179 28.5457 180.106C28.5594 180.034 28.5881 179.965 28.6298 179.905C28.6715 179.844 28.7253 179.793 28.7879 179.754C28.8505 179.715 28.9205 179.69 28.9933 179.68Z" fill="#3D4040"/>
</g>
<defs>
<linearGradient id="paint0_linear_12617_179351" x1="18.5343" y1="5.24967" x2="132.812" y2="257.283" gradientUnits="userSpaceOnUse">
<stop stop-color="#EFF2FF"/>
<stop offset="0.240707" stop-color="#F8F5FF"/>
<stop offset="0.696907" stop-color="#E7DEFF"/>
<stop offset="1" stop-color="#BDD7FF"/>
</linearGradient>
<clipPath id="clip0_12617_179351">
<rect width="128.672" height="179.39" fill="white" transform="matrix(-1 0 0 1 141.936 100.61)"/>
</clipPath>
</defs>
</svg>
