<svg width="150" height="279" viewBox="0 0 150 279" fill="none" xmlns="http://www.w3.org/2000/svg">
<rect x="11.2705" width="128.672" height="258.284" rx="14" fill="url(#paint0_linear_2108_6538)"/>
<path d="M76.1904 16.0806V21.7159" stroke="#848484" stroke-linecap="round" stroke-linejoin="round"/>
<path d="M81.0707 24.5335L76.1904 21.7158" stroke="#848484" stroke-linecap="round" stroke-linejoin="round"/>
<path d="M82.7847 18.3953H87.4807V13.6992" stroke="#848484" stroke-linecap="round" stroke-linejoin="round"/>
<path d="M83.4961 29.0215C82.0512 30.4664 80.2104 31.4503 78.2063 31.849C76.2022 32.2476 74.1249 32.043 72.2371 31.2611C70.3493 30.4791 68.7357 29.1549 67.6005 27.4559C66.4653 25.7569 65.8594 23.7595 65.8594 21.7161C65.8594 19.6728 66.4653 17.6753 67.6005 15.9763C68.7357 14.2773 70.3493 12.9532 72.2371 12.1712C74.1249 11.3892 76.2022 11.1846 78.2063 11.5833C80.2104 11.9819 82.0512 12.9659 83.4961 14.4108L87.4809 18.3955" stroke="#848484" stroke-linecap="round" stroke-linejoin="round"/>
<path d="M71.267 48.1734V59.0825L69.946 59.1677V48.1734H71.267ZM74.25 54.3098H75.571C75.571 55.432 75.3916 56.357 75.033 57.085C74.6779 57.8094 74.1754 58.3492 73.5255 58.7043C72.8792 59.0559 72.1193 59.2317 71.2457 59.2317C71.022 59.2317 70.7858 59.2263 70.5372 59.2157C70.2922 59.205 70.0951 59.1891 69.946 59.1677L71.2457 57.9959C71.7997 57.9959 72.3039 57.884 72.7585 57.6603C73.213 57.4366 73.5752 57.0566 73.8451 56.5204C74.115 55.9842 74.25 55.2473 74.25 54.3098ZM73.5468 49.0044V50.3254L68.348 52.7118V51.3908L73.5468 49.0044ZM73.5468 51.4973V52.8183L68.348 55.2047V53.8837L73.5468 51.4973Z" fill="black"/>
<path d="M97.5649 36.9029V47.812L96.2438 47.8972V36.9029H97.5649ZM100.548 43.0393H101.869C101.869 44.1614 101.689 45.0865 101.331 45.8145C100.976 46.5389 100.473 47.0787 99.8234 47.4338C99.1771 47.7854 98.4171 47.9612 97.5435 47.9612C97.3198 47.9612 97.0837 47.9558 96.8351 47.9452C96.5901 47.9345 96.393 47.9185 96.2438 47.8972L97.5435 46.7254C98.0975 46.7254 98.6018 46.6135 99.0563 46.3898C99.5109 46.1661 99.8731 45.7861 100.143 45.2499C100.413 44.7136 100.548 43.9768 100.548 43.0393ZM99.8447 37.7339V39.0549L94.6458 41.4413V40.1202L99.8447 37.7339ZM99.8447 40.2268V41.5478L94.6458 43.9342V42.6131L99.8447 40.2268Z" fill="black"/>
<path d="M134.195 22.8145V33.7236L132.874 33.8089V22.8145H134.195ZM137.178 28.9509H138.499C138.499 30.0731 138.319 30.9981 137.961 31.7261C137.606 32.4506 137.103 32.9903 136.453 33.3454C135.807 33.697 135.047 33.8728 134.173 33.8728C133.95 33.8728 133.714 33.8675 133.465 33.8568C133.22 33.8461 133.023 33.8302 132.874 33.8089L134.173 32.637C134.727 32.637 135.232 32.5251 135.686 32.3014C136.141 32.0777 136.503 31.6977 136.773 31.1615C137.043 30.6253 137.178 29.8884 137.178 28.9509ZM136.475 23.6455V24.9665L131.276 27.3529V26.0319L136.475 23.6455ZM136.475 26.1384V27.4594L131.276 29.8458V28.5248L136.475 26.1384Z" fill="black"/>
<path d="M43.5332 125.45C50.853 125.45 57.4849 122.482 62.2827 117.686L43.5332 98.9443V125.45Z" fill="#134FAE"/>
<path d="M43.5335 125.779C43.349 125.779 43.2036 125.634 43.2036 125.449V98.9497C43.2036 98.8156 43.2819 98.6982 43.4049 98.6423C43.5279 98.592 43.6677 98.62 43.7628 98.715L62.5123 117.456C62.6409 117.585 62.6409 117.792 62.5123 117.926C57.4461 122.99 50.7023 125.779 43.5335 125.779ZM43.8635 99.7434V125.114C50.624 125.03 56.9764 122.403 61.8133 117.686L43.8635 99.7434Z" fill="black"/>
<path d="M126.6 258.284H24.7222C17.2235 258.284 11.1172 252.186 11.1172 244.685V13.5992C11.1172 6.09811 17.2179 0 24.7222 0H126.6C134.099 0 140.205 6.09811 140.205 13.5992V244.685C140.205 252.18 134.099 258.284 126.6 258.284ZM24.7222 0.659558C17.587 0.659558 11.777 6.46143 11.777 13.5992V244.685C11.777 251.817 17.5814 257.624 24.7222 257.624H126.6C133.736 257.624 139.546 251.823 139.546 244.685V13.5992C139.546 6.46702 133.741 0.659558 126.6 0.659558H24.7222Z" fill="black"/>
<path d="M60.5545 78.4454C60.4874 78.4454 60.4147 78.423 60.3588 78.3783C60.2134 78.2665 60.1855 78.0597 60.2917 77.9144C61.466 76.3493 62.5844 74.7004 63.6636 73.1019C65.7438 70.0276 67.8966 66.8528 70.564 64.1252C71.9843 62.6775 73.8967 61.0286 76.2006 61.2019C77.4867 61.2969 78.5939 61.9509 79.6619 62.5825C80.3329 62.9793 81.0319 63.3929 81.7533 63.6445C85.1196 64.8406 88.8158 62.6495 91.1588 60.2069C92.0703 59.2567 92.9202 58.1947 93.7366 57.1719C95.1849 55.3665 96.6891 53.494 98.6072 52.1078C99.8709 51.1911 101.045 50.716 102.186 50.6545C104.372 50.5372 106.033 51.7948 107.655 53.0077C108.337 53.5219 108.986 54.0026 109.668 54.3883C112.637 56.0651 116.859 56.5123 119.705 55.4503C122.238 54.5057 124.62 52.6891 127.204 49.7435C128.647 48.1001 130.033 46.3842 131.504 44.5676C136.537 38.3465 141.737 31.913 148.984 28.7215C149.146 28.6488 149.348 28.7214 149.42 28.8891C149.493 29.0568 149.42 29.2524 149.253 29.3251C142.151 32.4552 137.001 38.8216 132.019 44.9812C130.542 46.8034 129.15 48.5249 127.702 50.1794C125.04 53.2145 122.574 55.087 119.935 56.0707C116.87 57.2166 112.514 56.7638 109.338 54.9696C108.622 54.5672 107.929 54.0473 107.258 53.5443C105.731 52.404 104.137 51.2135 102.219 51.3253C101.207 51.3812 100.151 51.8171 98.9874 52.6556C97.1421 53.9914 95.6658 55.8248 94.2455 57.6022C93.4179 58.6363 92.5567 59.7039 91.6285 60.6765C89.1457 63.27 85.1867 65.5784 81.524 64.2817C80.7411 64.0022 80.0198 63.5774 79.3208 63.1638C78.2695 62.5433 77.2742 61.9564 76.1446 61.8726C74.1204 61.7217 72.3478 63.2532 71.0281 64.6003C68.4055 67.2832 66.2694 70.4357 64.206 73.4819C63.1212 75.0861 61.9972 76.7406 60.8117 78.3168C60.7502 78.4007 60.6496 78.4454 60.5545 78.4454Z" fill="black"/>
<path d="M103.662 50.8907C103.662 52.0254 102.744 52.942 101.609 52.942C100.474 52.942 99.5571 52.0254 99.5571 50.8907C99.5571 49.756 100.474 48.8394 101.609 48.8394C102.744 48.8394 103.662 49.756 103.662 50.8907Z" fill="white"/>
<path d="M77.3627 62.1612C77.3627 63.2959 76.4457 64.2125 75.3105 64.2125C74.1754 64.2125 73.2583 63.2959 73.2583 62.1612C73.2583 61.0265 74.1754 60.1099 75.3105 60.1099C76.4457 60.1099 77.3627 61.0265 77.3627 62.1612Z" fill="white"/>
<path d="M75.4065 64.1367C74.0925 64.1367 73.0244 63.0692 73.0244 61.7556C73.0244 60.4421 74.0925 59.3745 75.4065 59.3745C76.7206 59.3745 77.7887 60.4421 77.7887 61.7556C77.7887 63.0692 76.7206 64.1367 75.4065 64.1367ZM75.4065 60.0341C74.4559 60.0341 73.6843 60.8054 73.6843 61.7556C73.6843 62.7058 74.4559 63.4772 75.4065 63.4772C76.3572 63.4772 77.1288 62.7058 77.1288 61.7556C77.1288 60.8054 76.3572 60.0341 75.4065 60.0341Z" fill="black"/>
<path d="M101.733 53.4268C100.419 53.4268 99.3511 52.3592 99.3511 51.0457C99.3511 49.7321 100.419 48.6646 101.733 48.6646C103.047 48.6646 104.115 49.7321 104.115 51.0457C104.115 52.3592 103.047 53.4268 101.733 53.4268ZM101.733 49.3185C100.783 49.3185 100.011 50.0899 100.011 51.0401C100.011 51.9903 100.783 52.7616 101.733 52.7616C102.684 52.7616 103.455 51.9903 103.455 51.0401C103.455 50.0955 102.684 49.3185 101.733 49.3185Z" fill="black"/>
<path d="M141.765 35.63C141.765 36.7646 140.848 37.6813 139.713 37.6813C138.578 37.6813 137.661 36.7646 137.661 35.63C137.661 34.4953 138.578 33.5786 139.713 33.5786C140.848 33.5786 141.765 34.4953 141.765 35.63Z" fill="white"/>
<path d="M139.714 38.0113C138.4 38.0113 137.332 36.9437 137.332 35.6301C137.332 34.3166 138.4 33.249 139.714 33.249C141.028 33.249 142.096 34.3166 142.096 35.6301C142.096 36.9437 141.028 38.0113 139.714 38.0113ZM139.714 33.9086C138.763 33.9086 137.991 34.6799 137.991 35.6301C137.991 36.5803 138.763 37.3517 139.714 37.3517C140.664 37.3517 141.436 36.5803 141.436 35.6301C141.436 34.6799 140.664 33.9086 139.714 33.9086Z" fill="black"/>
<path d="M114.701 66.688H109.814V72.8923H114.701V66.688Z" fill="white"/>
<path d="M114.706 73.2223H109.819C109.634 73.2223 109.489 73.0769 109.489 72.8925V66.6882C109.489 66.5037 109.634 66.3584 109.819 66.3584H114.706C114.891 66.3584 115.036 66.5037 115.036 66.6882V72.8925C115.036 73.0714 114.885 73.2223 114.706 73.2223ZM110.149 72.5571H114.376V67.0124H110.149V72.5571Z" fill="black"/>
<path d="M123.978 60.8584H119.09V72.8869H123.978V60.8584Z" fill="white"/>
<path d="M123.983 73.2223H119.096C118.911 73.2223 118.766 73.077 118.766 72.8925V60.864C118.766 60.6795 118.911 60.5342 119.096 60.5342H123.983C124.167 60.5342 124.313 60.6795 124.313 60.864V72.8925C124.313 73.0714 124.162 73.2223 123.983 73.2223ZM119.42 72.5571H123.647V61.1881H119.42V72.5571Z" fill="black"/>
<path d="M133.255 55.2236H128.368V72.892H133.255V55.2236Z" fill="white"/>
<path d="M133.254 73.2219H128.367C128.183 73.2219 128.037 73.0766 128.037 72.8921V55.2238C128.037 55.0394 128.183 54.894 128.367 54.894H133.254C133.439 54.894 133.584 55.0394 133.584 55.2238V72.8921C133.59 73.071 133.439 73.2219 133.254 73.2219ZM128.697 72.5568H132.924V55.5536H128.697V72.5568Z" fill="black"/>
<path d="M142.531 49.584H137.644V72.8921H142.531V49.584Z" fill="white"/>
<path d="M142.531 73.222H137.644C137.459 73.222 137.314 73.0767 137.314 72.8923V49.5842C137.314 49.3997 137.459 49.2544 137.644 49.2544H142.531C142.716 49.2544 142.861 49.3997 142.861 49.5842V72.8923C142.861 73.0711 142.716 73.222 142.531 73.222ZM137.974 72.5569H142.201V49.914H137.974V72.5569Z" fill="black"/>
<path d="M53.5667 60.2274C50.8007 57.4626 47.509 55.2166 43.8626 53.647L31.5371 82.241L53.5667 104.261C59.2038 98.6264 62.6926 90.8442 62.6926 82.241C62.6926 73.6444 59.2038 65.8622 53.5667 60.2274Z" fill="white"/>
<path d="M9.51358 60.2274C3.87642 65.8622 0.387695 73.6444 0.387695 82.2476C0.387695 90.8442 3.87642 98.633 9.51358 104.268C15.1507 109.903 22.9363 113.39 31.5432 113.39V82.2542V51.1055C22.9363 51.1055 15.1507 54.5927 9.51358 60.2274Z" fill="white"/>
<path d="M8.9085 73.9858C8.34347 73.9858 7.89014 74.439 7.89014 75.0038C7.89014 75.5686 8.34347 76.0217 8.9085 76.0217C9.47353 76.0217 9.92687 75.5686 9.92687 75.0038C9.92687 74.439 9.47353 73.9858 8.9085 73.9858Z" fill="#134FAE"/>
<path d="M16.2811 73.9858C15.716 73.9858 15.2627 74.439 15.2627 75.0038C15.2627 75.5686 15.716 76.0217 16.2811 76.0217C16.8461 76.0217 17.2994 75.5686 17.2994 75.0038C17.2994 74.439 16.8395 73.9858 16.2811 73.9858Z" fill="#134FAE"/>
<path d="M23.6458 73.9858C23.0808 73.9858 22.6274 74.439 22.6274 75.0038C22.6274 75.5686 23.0808 76.0217 23.6458 76.0217C24.2108 76.0217 24.6642 75.5686 24.6642 75.0038C24.6642 74.439 24.2043 73.9858 23.6458 73.9858Z" fill="#134FAE"/>
<path d="M5.22979 79.2266C4.66476 79.2266 4.21143 79.6797 4.21143 80.2445C4.21143 80.8093 4.66476 81.2624 5.22979 81.2624C5.79482 81.2624 6.24816 80.8093 6.24816 80.2445C6.24816 79.6863 5.78825 79.2266 5.22979 79.2266Z" fill="#134FAE"/>
<path d="M12.5955 79.2266C12.0305 79.2266 11.5771 79.6797 11.5771 80.2445C11.5771 80.8093 12.0305 81.2624 12.5955 81.2624C13.1605 81.2624 13.6139 80.8093 13.6139 80.2445C13.6139 79.6863 13.1605 79.2266 12.5955 79.2266Z" fill="#134FAE"/>
<path d="M19.9598 79.2266C19.3947 79.2266 18.9414 79.6797 18.9414 80.2445C18.9414 80.8093 19.3947 81.2624 19.9598 81.2624C20.5248 81.2624 20.9781 80.8093 20.9781 80.2445C20.9781 79.6863 20.5248 79.2266 19.9598 79.2266Z" fill="#134FAE"/>
<path d="M27.3245 79.2266C26.7595 79.2266 26.3062 79.6797 26.3062 80.2445C26.3062 80.8093 26.7595 81.2624 27.3245 81.2624C27.8895 81.2624 28.3429 80.8093 28.3429 80.2445C28.3495 79.6863 27.8895 79.2266 27.3245 79.2266Z" fill="#134FAE"/>
<path d="M8.9085 84.4673C8.34347 84.4673 7.89014 84.9204 7.89014 85.4852C7.89014 86.05 8.34347 86.5031 8.9085 86.5031C9.47353 86.5031 9.92687 86.05 9.92687 85.4852C9.92687 84.9204 9.47353 84.4673 8.9085 84.4673Z" fill="#134FAE"/>
<path d="M16.2811 84.4673C15.716 84.4673 15.2627 84.9204 15.2627 85.4852C15.2627 86.05 15.716 86.5031 16.2811 86.5031C16.8461 86.5031 17.2994 86.05 17.2994 85.4852C17.2994 84.9204 16.8395 84.4673 16.2811 84.4673Z" fill="#134FAE"/>
<path d="M23.6458 84.4673C23.0808 84.4673 22.6274 84.9204 22.6274 85.4852C22.6274 86.05 23.0808 86.5031 23.6458 86.5031C24.2108 86.5031 24.6642 86.05 24.6642 85.4852C24.6642 84.9204 24.2043 84.4673 23.6458 84.4673Z" fill="#134FAE"/>
<path d="M5.22979 91.7502C5.79222 91.7502 6.24816 91.2945 6.24816 90.7323C6.24816 90.1701 5.79222 89.7144 5.22979 89.7144C4.66736 89.7144 4.21143 90.1701 4.21143 90.7323C4.21143 91.2945 4.66736 91.7502 5.22979 91.7502Z" fill="#134FAE"/>
<path d="M12.5955 91.7502C13.1579 91.7502 13.6139 91.2945 13.6139 90.7323C13.6139 90.1701 13.1579 89.7144 12.5955 89.7144C12.0331 89.7144 11.5771 90.1701 11.5771 90.7323C11.5771 91.2945 12.0331 91.7502 12.5955 91.7502Z" fill="#134FAE"/>
<path d="M19.9598 91.7502C20.5222 91.7502 20.9781 91.2945 20.9781 90.7323C20.9781 90.1701 20.5222 89.7144 19.9598 89.7144C19.3973 89.7144 18.9414 90.1701 18.9414 90.7323C18.9414 91.2945 19.3973 91.7502 19.9598 91.7502Z" fill="#134FAE"/>
<path d="M8.9085 94.9551C8.34347 94.9551 7.89014 95.4082 7.89014 95.973C7.89014 96.5378 8.34347 96.9909 8.9085 96.9909C9.47353 96.9909 9.92687 96.5378 9.92687 95.973C9.92687 95.4082 9.47353 94.9551 8.9085 94.9551Z" fill="#134FAE"/>
<path d="M23.6458 55.0525C24.2082 55.0525 24.6642 54.5967 24.6642 54.0345C24.6642 53.4723 24.2082 53.0166 23.6458 53.0166C23.0834 53.0166 22.6274 53.4723 22.6274 54.0345C22.6274 54.5967 23.0834 55.0525 23.6458 55.0525Z" fill="#134FAE"/>
<path d="M19.9598 60.2927C20.5222 60.2927 20.9781 59.837 20.9781 59.2748C20.9781 58.7126 20.5222 58.2568 19.9598 58.2568C19.3973 58.2568 18.9414 58.7126 18.9414 59.2748C18.9414 59.837 19.3973 60.2927 19.9598 60.2927Z" fill="#134FAE"/>
<path d="M27.3245 60.2927C27.8869 60.2927 28.3429 59.837 28.3429 59.2748C28.3429 58.7126 27.8869 58.2568 27.3245 58.2568C26.7621 58.2568 26.3062 58.7126 26.3062 59.2748C26.3062 59.837 26.7621 60.2927 27.3245 60.2927Z" fill="#134FAE"/>
<path d="M8.9085 65.5334C9.47093 65.5334 9.92687 65.0777 9.92687 64.5155C9.92687 63.9533 9.47093 63.4976 8.9085 63.4976C8.34608 63.4976 7.89014 63.9533 7.89014 64.5155C7.89014 65.0777 8.34608 65.5334 8.9085 65.5334Z" fill="#134FAE"/>
<path d="M16.2811 63.4976C15.716 63.4976 15.2627 63.9507 15.2627 64.5155C15.2627 65.0803 15.716 65.5334 16.2811 65.5334C16.8461 65.5334 17.2994 65.0803 17.2994 64.5155C17.2994 63.9573 16.8395 63.4976 16.2811 63.4976Z" fill="#134FAE"/>
<path d="M23.6458 65.5334C24.2082 65.5334 24.6642 65.0777 24.6642 64.5155C24.6642 63.9533 24.2082 63.4976 23.6458 63.4976C23.0834 63.4976 22.6274 63.9533 22.6274 64.5155C22.6274 65.0777 23.0834 65.5334 23.6458 65.5334Z" fill="#134FAE"/>
<path d="M5.22979 70.781C5.79222 70.781 6.24816 70.3252 6.24816 69.7631C6.24816 69.2009 5.79222 68.7451 5.22979 68.7451C4.66736 68.7451 4.21143 69.2009 4.21143 69.7631C4.21143 70.3252 4.66736 70.781 5.22979 70.781Z" fill="#134FAE"/>
<path d="M12.5955 70.781C13.1579 70.781 13.6139 70.3252 13.6139 69.7631C13.6139 69.2009 13.1579 68.7451 12.5955 68.7451C12.0331 68.7451 11.5771 69.2009 11.5771 69.7631C11.5771 70.3252 12.0331 70.781 12.5955 70.781Z" fill="#134FAE"/>
<path d="M19.9598 70.781C20.5222 70.781 20.9781 70.3252 20.9781 69.7631C20.9781 69.2009 20.5222 68.7451 19.9598 68.7451C19.3973 68.7451 18.9414 69.2009 18.9414 69.7631C18.9414 70.3252 19.3973 70.781 19.9598 70.781Z" fill="#134FAE"/>
<path d="M27.3245 70.781C27.8869 70.781 28.3429 70.3252 28.3429 69.7631C28.3429 69.2009 27.8869 68.7451 27.3245 68.7451C26.7621 68.7451 26.3062 69.2009 26.3062 69.7631C26.3062 70.3252 26.7621 70.781 27.3245 70.781Z" fill="#134FAE"/>
<path d="M53.842 59.9514C51.0037 57.1143 47.699 54.8749 44.0197 53.2856C40.0645 51.5781 35.8662 50.7178 31.5431 50.7178C23.1202 50.7178 15.1967 53.9949 9.24414 59.9514C3.27848 65.9079 0 73.8215 0 82.2408C0 90.6601 3.27848 98.5737 9.23757 104.53C15.1967 110.487 23.1136 113.764 31.5365 113.764C31.7533 113.764 31.9242 113.593 31.9242 113.376V83.1734L53.2901 104.53C53.3624 104.602 53.461 104.642 53.5661 104.642C53.6712 104.642 53.7698 104.602 53.842 104.53C59.8011 98.5737 63.0796 90.6601 63.0796 82.2408C63.0796 73.8215 59.7945 65.9014 53.842 59.9514ZM31.1489 112.989C23.2056 112.89 15.7485 109.804 10.0588 104.254L31.1489 83.1734V112.989ZM17.2925 95.9336C17.2728 95.3885 16.826 94.9551 16.2742 94.9551C15.7091 94.9551 15.2558 95.4082 15.2558 95.973C15.2558 96.5247 15.6894 96.9713 16.2347 96.991L12.9563 100.268C12.8446 100.222 12.7197 100.202 12.5883 100.202C12.0233 100.202 11.57 100.656 11.57 101.22C11.57 101.352 11.5962 101.47 11.6357 101.588L9.50695 103.716C4.84217 98.9349 1.91847 92.9061 1.04465 86.3848C1.18919 86.4636 1.36001 86.5096 1.53741 86.5096C2.10243 86.5096 2.55577 86.0564 2.55577 85.4916C2.55577 84.9268 2.10243 84.4737 1.53741 84.4737C1.28117 84.4737 1.04465 84.5656 0.867254 84.7233C0.801553 83.9023 0.768703 83.0749 0.768703 82.2474C0.768703 80.1327 0.978946 78.0443 1.39943 76.015C1.44542 76.0216 1.49141 76.0216 1.53741 76.0216C2.10243 76.0216 2.55577 75.5684 2.55577 75.0037C2.55577 74.5571 2.26669 74.1762 1.87248 74.0383C3.26534 68.9683 5.95909 64.3187 9.78289 60.4965C10.4202 59.8595 11.0838 59.2553 11.7671 58.6773C11.6488 58.8481 11.5765 59.0517 11.5765 59.275C11.5765 59.8398 12.0299 60.2929 12.5949 60.2929C13.1599 60.2929 13.6133 59.8398 13.6133 59.275C13.6133 58.7102 13.1599 58.257 12.5949 58.257C12.4438 58.257 12.2992 58.2899 12.1678 58.349C17.5356 53.9817 24.1583 51.5781 31.1555 51.4927V53.0229C31.1095 53.0163 31.0635 53.0163 31.0175 53.0163C30.4524 53.0163 29.9991 53.4695 29.9991 54.0343C29.9991 54.599 30.4524 55.0522 31.0175 55.0522C31.0635 55.0522 31.1095 55.0456 31.1555 55.0456V63.5109C31.1095 63.5043 31.0635 63.5043 31.0175 63.5043C30.4524 63.5043 29.9991 63.9574 29.9991 64.5222C29.9991 65.087 30.4524 65.5402 31.0175 65.5402C31.0635 65.5402 31.1095 65.5336 31.1555 65.5336V73.9988C31.1095 73.9923 31.0635 73.9923 31.0175 73.9923C30.4524 73.9923 29.9991 74.4454 29.9991 75.0102C29.9991 75.575 30.4524 76.0281 31.0175 76.0281C31.0635 76.0281 31.1095 76.0281 31.1555 76.0216V82.0898L17.2925 95.9336ZM58.3557 67.1426C60.872 71.5887 62.2386 76.6192 62.3043 81.8533H58.3557V67.1426ZM57.5739 65.8488V81.8533H52.7185V61.6195L53.5661 60.7723C55.0904 62.3419 56.4307 64.0428 57.5739 65.8488ZM44.0657 54.1525C47.3968 55.6367 50.4059 57.6791 53.0142 60.2272L49.7291 63.5109L32.6929 80.5399L44.0657 54.1525ZM51.9433 62.3944V81.8533H47.088V67.2477L51.9433 62.3944ZM46.3127 68.0292V81.8599H41.4574V72.889L46.3127 68.0292ZM40.6755 73.6574V81.8533H35.8202V78.5106L40.6755 73.6574ZM35.045 79.2921V81.8599H32.476L35.045 79.2921ZM53.5661 103.709L32.476 82.6283H62.2978C62.1992 90.5682 59.1113 98.0286 53.5661 103.709Z" fill="#134FAE"/>
<g clip-path="url(#clip0_2108_6538)">
<path d="M11.2632 210.855L139.964 210.855V167.726C139.964 162.531 137.903 157.549 134.234 153.875C130.566 150.202 125.59 148.138 120.402 148.138H30.8257C25.6374 148.138 20.6616 150.202 16.9929 153.875C13.3242 157.549 11.2632 162.531 11.2632 167.726L11.2632 210.855Z" fill="#3C26E6"/>
<path d="M129.668 182.956H119.587C116.86 182.956 114.244 184.041 112.316 185.972C110.388 187.902 109.305 190.521 109.305 193.252V204.263C109.307 204.749 109.213 205.231 109.028 205.681C108.843 206.131 108.572 206.54 108.229 206.884C107.886 207.229 107.479 207.502 107.031 207.689C106.582 207.876 106.101 207.972 105.615 207.972H45.5548C44.5726 207.972 43.6305 207.581 42.9359 206.885C42.2414 206.19 41.8511 205.247 41.8511 204.263V193.252C41.8511 190.521 40.7679 187.902 38.8397 185.972C36.9115 184.041 34.2962 182.956 31.5693 182.956H21.5593C18.8324 182.956 16.2172 184.041 14.2889 185.972C12.3607 187.902 11.2775 190.521 11.2775 193.252V243.784C11.2813 247.99 12.9519 252.024 15.9225 254.998C18.8931 257.973 22.921 259.645 27.122 259.649H124.105C128.305 259.645 132.332 257.972 135.3 254.997C138.268 252.022 139.936 247.989 139.936 243.784V193.252C139.937 191.9 139.673 190.562 139.158 189.313C138.643 188.064 137.887 186.929 136.933 185.972C135.98 185.016 134.847 184.258 133.601 183.74C132.354 183.222 131.018 182.956 129.668 182.956Z" fill="#0F0655"/>
<path d="M30.7685 258.71C23.1285 250.833 16.5692 241.973 11.2632 232.363V230.115C16.8405 240.631 23.917 250.278 32.27 258.753L30.7685 258.71Z" fill="#162133"/>
<path d="M69.0784 207.032H70.823C89.9224 221.987 107.005 239.358 121.646 258.71H120.301C105.546 239.325 88.3262 221.952 69.0784 207.032Z" fill="#162133"/>
<path d="M115.711 182.776C122.251 195.242 130.396 206.796 139.936 217.142V218.717C129.991 208.086 121.516 196.166 114.739 183.277C115.053 183.062 115.382 182.919 115.711 182.776Z" fill="#162133"/>
<path d="M86.6104 207.032C104.671 217.686 122.504 228.869 139.936 240.439V241.727C121.832 229.685 103.27 218.072 84.4941 207.032H86.6104Z" fill="#162133"/>
<path d="M28.7093 207.72C25.0815 199.428 20.4363 191.622 14.8812 184.48C15.1511 184.24 15.4378 184.02 15.7391 183.821C21.5821 191.36 26.436 199.618 30.1823 208.393C36.0167 211.085 41.7653 213.949 47.4282 216.984C46.7036 213.701 46.1078 210.402 45.6407 207.09H46.7275C47.2137 210.641 47.8667 214.159 48.6866 217.643C70.3912 229.224 90.8521 243.005 109.748 258.768H108.075C89.754 243.597 69.9699 230.291 49.0155 219.046C52.4688 233.233 58.4306 246.685 66.6189 258.768H65.3319C57.0969 246.463 51.139 232.776 47.7428 218.359C42.1943 215.409 36.5601 212.603 30.84 209.939C33.3712 215.667 35.602 221.638 37.7327 227.48L39.1627 231.389C42.4946 240.568 45.8838 249.904 50.088 258.768H48.9011C44.7683 250.004 41.4365 240.797 38.1617 231.762L36.7317 227.838C34.4723 221.652 32.0985 215.366 29.3814 209.223C23.4326 206.474 17.398 203.892 11.2775 201.477V200.317C17.1596 202.627 22.9702 205.095 28.7093 207.72Z" fill="#162133"/>
<path d="M62.5865 151.016C61.4711 145.747 61.8858 140.391 58.94 135.637C58.4044 134.937 58.0329 134.124 57.8532 133.26C57.8646 132.342 58.0642 131.435 58.4395 130.597C58.9114 129.165 59.8695 125.285 58.4395 124.354C58.0576 124.154 57.6333 124.05 57.2026 124.05C56.7718 124.05 56.3474 124.154 55.9656 124.354C56.0146 123.753 55.9663 123.149 55.8226 122.564C55.6512 122.218 55.3793 121.931 55.0424 121.742C54.7056 121.553 54.3196 121.47 53.935 121.504C53.3058 121.504 52.5908 121.819 52.505 122.449C52.5903 122.042 52.5303 121.618 52.3353 121.251C52.1403 120.884 51.8228 120.597 51.4381 120.44C51.0535 120.283 50.626 120.267 50.2304 120.393C49.8347 120.52 49.4959 120.781 49.2731 121.132C48.7382 122.437 48.3636 123.803 48.1577 125.199C47.7716 126.631 47.3712 128.063 46.9708 129.494C46.5592 130.549 46.494 131.708 46.7845 132.802C47.0751 133.896 47.7064 134.869 48.5867 135.58C48.9299 136.024 49.2731 136.454 49.5591 136.897C50.8359 138.841 51.9139 140.909 52.7767 143.069C54.0494 146.506 54.1352 150.501 54.4498 154.109C55.624 153.852 56.8133 153.671 58.0105 153.565C59.1116 153.422 62.3005 153.651 62.6437 152.448C62.7276 151.972 62.708 151.484 62.5865 151.016Z" fill="#E8B7B4"/>
<path d="M49.5442 130.883L49.8445 129.752C50.5512 126.837 51.4347 123.968 52.4901 121.16C52.5139 121.094 52.5507 121.033 52.5983 120.982C52.6459 120.93 52.7034 120.888 52.7673 120.859C52.8312 120.829 52.9003 120.813 52.9705 120.811C53.0408 120.809 53.1108 120.82 53.1765 120.845C53.2426 120.869 53.3033 120.906 53.355 120.954C53.4067 121.002 53.4485 121.059 53.4778 121.123C53.5071 121.187 53.5233 121.256 53.5256 121.327C53.5279 121.397 53.5162 121.467 53.4911 121.533C52.4493 124.313 51.5754 127.153 50.8741 130.038L50.5882 131.17C50.5572 131.283 50.4903 131.384 50.3975 131.456C50.3047 131.528 50.1909 131.568 50.0733 131.57H49.9303C49.8578 131.554 49.7895 131.523 49.7299 131.479C49.6702 131.434 49.6206 131.378 49.5842 131.313C49.5477 131.248 49.5254 131.176 49.5185 131.102C49.5116 131.028 49.5204 130.954 49.5442 130.883Z" fill="#3D4040"/>
<path d="M56.0944 122.979C56.1457 122.848 56.246 122.742 56.374 122.683C56.5021 122.624 56.6479 122.617 56.7808 122.664C56.8481 122.686 56.9102 122.722 56.963 122.77C57.0159 122.817 57.0584 122.875 57.0879 122.939C57.1175 123.004 57.1334 123.074 57.1347 123.144C57.136 123.215 57.1226 123.286 57.0954 123.351C56.266 125.542 55.1077 129.566 54.4499 132.244C54.4188 132.361 54.3503 132.465 54.2548 132.54C54.1594 132.615 54.0421 132.657 53.9208 132.659H53.7921C53.6542 132.622 53.5364 132.532 53.4642 132.409C53.392 132.286 53.3711 132.139 53.406 132C54.0781 129.28 55.2507 125.199 56.0944 122.979Z" fill="#3D4040"/>
<path d="M48.3433 144.3C48.3433 144.3 59.7834 143.742 63.6873 143.585C65.1173 148.224 67.1909 156.472 69.579 160.653C69.7223 156.611 70.6246 152.633 72.2388 148.926C75.1989 143.198 80.3612 136.625 88.9556 137.47C97.4356 138.573 83.9505 173.626 83.3499 177.149C80.0895 177.893 76.1999 179.082 73.1254 179.525C70.3402 179.859 67.5283 179.178 65.2032 177.607C61.957 175.244 59.7405 171.063 57.7957 167.655C54.5495 161.899 48.3433 144.3 48.3433 144.3Z" fill="#0093FF"/>
<path d="M72.2389 166.38C72.3448 166.379 72.4484 166.349 72.5392 166.294C72.6574 166.215 72.7401 166.093 72.7695 165.954C72.7989 165.815 72.7727 165.67 72.6965 165.55C69.8365 161.254 67.0623 154.094 64.1164 143.699C64.0983 143.631 64.0667 143.567 64.0237 143.511C63.9806 143.455 63.9268 143.409 63.8656 143.374C63.8043 143.34 63.7368 143.317 63.6669 143.309C63.5971 143.301 63.5262 143.307 63.4586 143.326C63.3203 143.366 63.2033 143.46 63.1336 143.586C63.0639 143.712 63.0471 143.861 63.0868 143.999C66.0469 154.452 68.8784 161.698 71.7813 166.137C71.8303 166.213 71.8982 166.276 71.9783 166.318C72.0585 166.361 72.1482 166.382 72.2389 166.38Z" fill="#3D4040"/>
<path d="M45.5263 266.986C44.9741 268.265 43.9857 269.306 42.7377 269.922C40.6499 270.982 38.5192 270.452 36.3313 272.657C34.9717 274.245 34.2707 276.295 34.3722 278.384H61.9714C62.4038 276.352 62.1732 274.234 61.3136 272.342C61.0991 271.955 60.7559 271.655 60.5414 271.282C59.8693 270.079 60.141 255.646 60.1982 252.238L46.1841 252.624C46.4129 252.667 46.4129 265.096 45.5263 266.986Z" fill="#A79F9D"/>
<path d="M35.3587 272.858C37.2463 270.538 40.7784 269.578 46.1696 269.908C50.0128 270.122 53.7317 271.347 56.9519 273.459C57.6667 272.356 58.6512 271.454 59.8119 270.839C59.3335 266.312 59.5894 261.737 60.5698 257.293C60.5815 257.223 60.6075 257.156 60.6461 257.097C60.6847 257.038 60.7351 256.987 60.7941 256.948C60.8532 256.909 60.9196 256.883 60.9893 256.87C61.0589 256.858 61.1303 256.861 61.199 256.877C61.2693 256.891 61.3361 256.919 61.3954 256.959C61.4547 256.999 61.5053 257.05 61.5441 257.111C61.5828 257.171 61.609 257.238 61.621 257.309C61.6329 257.38 61.6305 257.452 61.6137 257.522C60.6311 261.972 60.3943 266.554 60.913 271.082C60.9276 271.195 60.9064 271.309 60.8525 271.41C60.7986 271.51 60.7148 271.59 60.6127 271.64C59.3228 272.257 58.2542 273.257 57.5525 274.504C57.4707 274.607 57.3537 274.675 57.2242 274.697C57.0947 274.718 56.962 274.69 56.8518 274.619C53.7072 272.424 50.0118 271.154 46.1839 270.953C41.1503 270.652 37.9184 271.483 36.2596 273.502C35.7186 274.172 35.3307 274.952 35.1232 275.788C34.9157 276.625 34.8935 277.496 35.0584 278.342C35.0836 278.482 35.0528 278.627 34.9726 278.745C34.8923 278.862 34.7691 278.944 34.6294 278.972H34.5293C34.4047 278.974 34.2834 278.932 34.1866 278.854C34.0898 278.775 34.0238 278.665 34.0002 278.542C33.8053 277.553 33.8257 276.533 34.0601 275.551C34.2946 274.57 34.7375 273.652 35.3587 272.858Z" fill="#3D4040"/>
<path d="M47.1422 209.939C47.6474 205.198 48.392 200.486 49.373 195.821C49.8805 193.499 50.8985 191.32 52.3531 189.443C53.8077 187.565 55.6622 186.036 57.7815 184.967C61.5996 182.862 67.0908 181.473 71.2522 180.227C79.9037 177.65 90.114 175.144 98.9944 177.635C112.236 181.344 110.921 201.19 99.1803 206.402C95.0988 208.037 90.6859 208.671 86.3102 208.25C82.9353 208.063 74.9559 206.589 74.3553 210.254C72.6679 220.478 64.4739 266.099 64.4739 266.099L39.32 265.598C39.32 265.598 45.9124 221.595 47.1422 209.939Z" fill="#134FAE"/>
<path d="M26.6929 174.013C26.078 180.156 30.2965 190.007 32.084 195.076C37.8041 211.543 44.2248 224.602 52.5332 242.114C61.8674 242.485 71.2149 242.337 80.5328 241.67C80.5328 241.67 65.5749 209.767 57.7956 193.215C64.9456 191.783 91.8585 194.475 91.787 192.312C91.6297 187.888 86.2814 178.237 81.9056 177.592C79.2172 177.206 58.8824 167.082 45.9694 164.705C36.8889 162.987 31.3404 164.333 28.1515 169.531C27.3359 170.896 26.8373 172.428 26.6929 174.013Z" fill="#134FAE"/>
<path d="M91.5583 130.826C99.1088 134.062 108.146 124.826 103.384 117.667C99.6092 111.939 90.6002 110.908 87.0395 117.352C86.449 118.533 86.0974 119.819 86.005 121.137C85.9126 122.455 86.0813 123.777 86.5012 125.03C86.9212 126.282 87.5841 127.439 88.452 128.433C89.3198 129.428 90.3755 130.241 91.5583 130.826Z" fill="#E8B7B4"/>
<path d="M97.0354 120.86C98.2756 120.658 99.4512 120.168 100.467 119.428C98.1365 121.389 102.255 133.088 105.544 126C106.531 123.935 106.877 121.621 106.537 119.358C106.198 117.094 105.19 114.983 103.641 113.299C102.093 111.615 100.076 110.434 97.8514 109.908C95.6263 109.382 93.295 109.536 91.1581 110.349C89.61 110.888 88.263 111.887 87.2971 113.213C86.8238 113.877 86.5169 114.645 86.4024 115.453C86.2879 116.26 86.3692 117.083 86.6393 117.853C87.8834 120.917 93.1458 121.633 97.0354 120.86Z" fill="#3D4040"/>
<path d="M101.883 100.427C103.67 99.678 105.628 99.437 107.543 99.73C109.457 100.023 111.255 100.839 112.737 102.088C114.173 103.392 115.178 105.102 115.62 106.993C116.062 108.883 115.919 110.863 115.21 112.669C114.417 114.438 113.06 115.893 111.352 116.805C109.643 117.717 107.681 118.035 105.772 117.71C98.8368 116.249 93.8175 103.863 101.883 100.427Z" fill="#3D4040"/>
<path d="M119.658 157.431C120.359 162.171 120.187 165.049 123.834 168.156C126.565 170.476 131.756 173.44 132.114 177.42C132.314 179.754 129.597 183.449 127.509 184.494C125.421 185.539 114.639 185.239 111.307 182.117C109.315 179.842 107.933 177.097 107.289 174.141C105.458 165.965 93.2602 139.976 94.4185 138.344C96.3204 135.838 102.469 137.112 105.472 138.043C113.895 140.706 118.471 149.269 119.658 157.431Z" fill="#0093FF"/>
<path d="M80.0039 142.081C76.486 147.164 78.1449 173.067 80.9191 177.678C86.0242 176.862 92.5737 176.06 97.5215 177.306C99.2556 177.768 100.92 178.462 102.469 179.368C103.385 179.926 104.185 179.597 104.815 178.623C106.245 176.347 106.817 171.865 107.675 169.216C108.933 165.536 111.035 146.477 107.746 142.339C103.027 136.396 93.5461 136.468 86.4103 138.043C86.1815 138.157 81.4625 139.962 80.0039 142.081Z" fill="#0093FF"/>
<path d="M77.4298 176.017C77.5006 176.014 77.57 175.996 77.6338 175.965C77.6976 175.934 77.7545 175.89 77.8012 175.837C77.8479 175.784 77.8833 175.721 77.9055 175.654C77.9277 175.586 77.9361 175.515 77.9303 175.444C77.9303 174.872 77.8588 174.342 77.8302 173.826C77.6578 170.6 77.2949 167.387 76.7434 164.204C75.3134 155.054 76.7434 148.453 80.7903 145.675C80.8476 145.636 80.8966 145.585 80.9344 145.527C80.9722 145.468 80.9981 145.403 81.0107 145.334C81.0234 145.266 81.0224 145.196 81.0079 145.128C80.9934 145.059 80.9656 144.995 80.9262 144.938C80.8867 144.88 80.8364 144.831 80.7781 144.793C80.7197 144.755 80.6545 144.729 80.5861 144.717C80.5177 144.704 80.4475 144.705 80.3795 144.72C80.3115 144.734 80.247 144.762 80.1897 144.802C75.7567 147.851 74.1551 154.825 75.6852 164.361C76.2343 167.516 76.5925 170.7 76.7577 173.898C76.7577 174.413 76.8292 174.943 76.8578 175.53C76.8723 175.67 76.9398 175.798 77.0463 175.889C77.1529 175.979 77.2902 176.025 77.4298 176.017Z" fill="#3D4040"/>
<path d="M88.2409 150.2C88.3279 150.201 88.4139 150.181 88.4912 150.141C88.5685 150.101 88.6348 150.043 88.6842 149.971C90.2163 147.802 91.8582 145.714 93.6034 143.713C95.6081 141.577 97.3419 139.201 98.7657 136.64C98.8248 136.51 98.8309 136.363 98.7828 136.229C98.7347 136.095 98.6362 135.986 98.5083 135.924C98.377 135.869 98.2298 135.867 98.0969 135.918C97.964 135.968 97.8554 136.068 97.7933 136.196C96.4009 138.663 94.7207 140.956 92.7883 143.026C91.3583 144.759 89.7996 146.549 88.3982 148.496C87.1702 144.665 87.4359 140.511 89.1418 136.869C89.1888 136.806 89.2219 136.735 89.2387 136.658C89.2555 136.582 89.2557 136.503 89.2392 136.426C89.2227 136.35 89.19 136.278 89.1432 136.215C89.0965 136.153 89.0368 136.101 88.9682 136.063C88.8997 136.026 88.8239 136.004 88.746 135.998C88.6681 135.993 88.5899 136.004 88.5168 136.032C88.4437 136.059 88.3774 136.102 88.3223 136.158C88.2673 136.213 88.2249 136.28 88.198 136.353C85.7956 140.85 86.4534 146.377 87.7261 149.856C87.7631 149.948 87.8236 150.028 87.9015 150.088C87.9793 150.148 88.0718 150.187 88.1694 150.2H88.2409Z" fill="#3D4040"/>
<path d="M116.297 184.494C116.436 184.49 116.569 184.433 116.667 184.335C116.766 184.236 116.823 184.103 116.826 183.964C116.83 183.894 116.82 183.824 116.796 183.758C116.772 183.692 116.734 183.632 116.686 183.581C116.638 183.53 116.58 183.489 116.515 183.462C116.451 183.434 116.382 183.42 116.312 183.42C114.634 183.287 113.037 182.647 111.73 181.586C110.423 180.526 109.467 179.093 108.99 177.477L101.168 152.963C101.147 152.896 101.112 152.834 101.067 152.78C101.022 152.726 100.966 152.682 100.904 152.65C100.841 152.618 100.773 152.599 100.703 152.594C100.633 152.589 100.562 152.597 100.496 152.619C100.363 152.665 100.252 152.761 100.188 152.887C100.124 153.012 100.111 153.158 100.152 153.292L107.903 177.807C108.452 179.631 109.539 181.246 111.022 182.44C112.505 183.633 114.314 184.349 116.211 184.494H116.297Z" fill="#3D4040"/>
<path d="M111.421 178.294C112.851 173.998 117.899 172.208 121.76 172.051C124.749 171.922 131.298 172.967 132.5 176.977C132.654 177.741 132.644 178.529 132.471 179.289C132.299 180.05 131.967 180.764 131.499 181.387C130.697 182.747 129.456 183.792 127.981 184.351C126.655 184.583 125.308 184.675 123.962 184.623C121.546 184.623 118.8 184.494 117.642 184.437H117.07C115.111 184.351 112.665 184.265 111.564 182.06C111.023 180.872 110.972 179.519 111.421 178.294ZM112.522 181.573C113.337 183.205 115.268 183.277 117.113 183.349H117.685C121.015 183.641 124.364 183.641 127.695 183.349C128.926 182.861 129.959 181.974 130.626 180.828C131.006 180.333 131.279 179.764 131.429 179.158C131.579 178.552 131.603 177.922 131.499 177.306C130.583 174.242 125.178 173.01 121.832 173.153C118.042 173.311 113.681 175.072 112.465 178.666C112.109 179.606 112.129 180.648 112.522 181.573Z" fill="#3D4040"/>
<path d="M106.373 171.335C106.46 171.336 106.546 171.316 106.624 171.276C106.701 171.236 106.767 171.177 106.817 171.106C108.32 168.97 110.581 167.49 113.137 166.967C113.215 166.963 113.29 166.943 113.359 166.907C113.428 166.871 113.488 166.821 113.536 166.76C113.584 166.699 113.618 166.628 113.637 166.553C113.655 166.478 113.657 166.399 113.643 166.323C113.628 166.247 113.598 166.174 113.553 166.111C113.509 166.047 113.451 165.994 113.384 165.955C113.317 165.916 113.243 165.891 113.166 165.883C113.089 165.875 113.011 165.883 112.937 165.908C110.107 166.494 107.604 168.131 105.93 170.49C105.89 170.548 105.862 170.613 105.847 170.683C105.832 170.752 105.832 170.823 105.845 170.892C105.858 170.962 105.885 171.028 105.925 171.087C105.964 171.145 106.014 171.196 106.073 171.234C106.159 171.302 106.265 171.337 106.373 171.335Z" fill="#3D4040"/>
<path d="M113.023 176.633C113.955 175.399 115.179 174.415 116.583 173.769C118.865 172.643 121.456 172.311 123.948 172.824C124.978 173.962 126.123 174.989 127.366 175.888C128.595 176.705 133.743 177.507 134.516 178.895C135.012 180.381 135.254 181.94 135.231 183.506L135.917 189.792C136.11 190.737 136.11 191.711 135.917 192.656C135.66 193.544 134.802 194.446 133.786 194.088C133.52 193.999 133.286 193.833 133.113 193.612C132.94 193.39 132.836 193.123 132.814 192.842C132.889 193.42 132.755 194.005 132.436 194.491C132.117 194.978 131.634 195.334 131.076 195.495C130.517 195.656 129.919 195.611 129.391 195.369C128.862 195.127 128.438 194.703 128.195 194.174C128.211 194.451 128.169 194.728 128.073 194.989C127.977 195.249 127.829 195.487 127.637 195.687C127.445 195.887 127.214 196.045 126.958 196.152C126.702 196.259 126.427 196.312 126.15 196.308C125.59 196.271 125.05 196.087 124.583 195.776C124.116 195.464 123.74 195.035 123.49 194.532C122.947 193.558 122.604 188.804 121.932 187.516C121.844 188.212 121.504 188.851 120.977 189.313C120.45 189.775 119.772 190.027 119.072 190.021C117.356 190.093 115.968 186.957 115.74 184.537C115.779 182.729 115.488 180.929 114.882 179.225C114.51 178.724 112.622 177.263 113.023 176.633Z" fill="#E8B7B4"/>
<path d="M111.421 178.294C112.851 173.998 117.899 172.208 121.76 172.051C124.888 171.902 127.986 172.727 130.626 174.414C130.735 174.501 130.807 174.627 130.825 174.766C130.844 174.904 130.808 175.045 130.726 175.158C130.684 175.216 130.631 175.264 130.569 175.301C130.508 175.337 130.44 175.361 130.369 175.37C130.298 175.38 130.226 175.375 130.157 175.355C130.088 175.336 130.024 175.303 129.968 175.258C127.519 173.75 124.676 173.007 121.803 173.125C118.014 173.282 113.652 175.044 112.437 178.638C112.403 178.745 112.337 178.839 112.247 178.906C112.157 178.972 112.048 179.009 111.936 179.01H111.764C111.694 178.988 111.628 178.951 111.572 178.902C111.516 178.853 111.47 178.794 111.438 178.727C111.406 178.659 111.388 178.586 111.385 178.512C111.382 178.438 111.394 178.363 111.421 178.294Z" fill="#3D4040"/>
<path d="M118.886 180.513C118.945 180.475 119.012 180.45 119.082 180.438C119.151 180.427 119.223 180.43 119.291 180.448C119.359 180.465 119.423 180.496 119.479 180.54C119.535 180.583 119.581 180.637 119.615 180.699C121.732 184.249 123.014 188.235 123.362 192.355C123.37 192.495 123.324 192.632 123.233 192.739C123.143 192.846 123.015 192.913 122.876 192.928C122.74 192.932 122.608 192.884 122.507 192.793C122.406 192.703 122.343 192.576 122.332 192.441C121.995 188.485 120.768 184.657 118.743 181.243C118.703 181.187 118.675 181.122 118.661 181.054C118.646 180.986 118.646 180.916 118.659 180.848C118.672 180.78 118.699 180.715 118.738 180.657C118.777 180.6 118.828 180.551 118.886 180.513Z" fill="#3D4040"/>
<path d="M126.808 181.788C126.877 181.771 126.948 181.768 127.018 181.779C127.087 181.79 127.154 181.815 127.214 181.852C127.274 181.89 127.326 181.939 127.367 181.997C127.408 182.054 127.436 182.12 127.452 182.189C128.474 186.405 128.922 190.74 128.782 195.076C128.774 195.215 128.714 195.346 128.613 195.442C128.511 195.538 128.377 195.592 128.238 195.591C128.167 195.59 128.098 195.574 128.033 195.544C127.969 195.515 127.911 195.473 127.863 195.421C127.815 195.369 127.778 195.308 127.754 195.241C127.73 195.175 127.719 195.104 127.723 195.033C127.871 190.774 127.433 186.515 126.422 182.375C126.407 182.247 126.437 182.118 126.508 182.011C126.578 181.903 126.685 181.824 126.808 181.788Z" fill="#3D4040"/>
<path d="M131.999 182.217C132.07 182.205 132.142 182.206 132.211 182.222C132.281 182.238 132.347 182.267 132.406 182.308C132.464 182.35 132.514 182.402 132.552 182.462C132.59 182.523 132.616 182.59 132.628 182.661C133.264 186.335 133.566 190.059 133.529 193.787C133.529 193.927 133.473 194.062 133.374 194.162C133.275 194.261 133.14 194.317 133 194.317C132.856 194.317 132.718 194.259 132.616 194.157C132.514 194.055 132.457 193.917 132.457 193.773C132.497 190.107 132.201 186.444 131.57 182.833C131.558 182.764 131.559 182.694 131.574 182.626C131.589 182.557 131.617 182.493 131.657 182.436C131.697 182.379 131.747 182.33 131.806 182.292C131.865 182.255 131.931 182.229 131.999 182.217Z" fill="#3D4040"/>
<path d="M72.3818 239.737C74.0568 241.989 75.9435 244.075 78.0161 245.966C79.7893 247.512 81.7055 247.154 83.9077 249.36C85.2673 250.948 85.9683 252.998 85.8668 255.087H60.241C60.241 255.087 58.4535 250.147 59.6833 247.928C60.3697 246.725 55.0072 236.916 51.4608 229.499L67.4912 230.43C68.8412 233.672 70.4779 236.787 72.3818 239.737Z" fill="#A79F9D"/>
<path d="M51.6756 231.131C51.8047 231.072 51.9519 231.066 52.0856 231.114C52.2192 231.162 52.3287 231.261 52.3906 231.389C53.1056 232.907 54.1495 234.74 55.2506 236.673C57.5243 240.668 59.8695 244.792 60.3414 247.641C60.7839 247.9 61.1636 248.254 61.4529 248.677C61.7423 249.101 61.9341 249.583 62.0146 250.09C65.7416 248.125 69.8492 246.992 74.0552 246.768C79.4607 246.424 82.9928 247.383 84.8804 249.703C85.5201 250.497 85.9794 251.42 86.2263 252.409C86.4733 253.398 86.502 254.429 86.3104 255.431C86.2872 255.555 86.2218 255.667 86.1253 255.748C86.0288 255.829 85.9072 255.874 85.7813 255.875H85.6812C85.5415 255.847 85.4183 255.765 85.3381 255.648C85.2578 255.53 85.227 255.385 85.2522 255.245C85.4132 254.399 85.3892 253.528 85.1818 252.693C84.9744 251.857 84.5886 251.077 84.051 250.405C82.3922 248.386 79.1461 247.541 74.1267 247.87C70.2228 248.114 64.9318 249.302 61.843 251.507C61.7607 251.55 61.669 251.572 61.5761 251.571C61.4833 251.57 61.3923 251.545 61.3113 251.5C61.2304 251.454 61.1621 251.389 61.1126 251.31C61.063 251.232 61.0339 251.142 61.0278 251.049C61.0664 250.532 60.9512 250.016 60.6967 249.565C60.4421 249.114 60.0597 248.748 59.5978 248.515C59.5151 248.479 59.4435 248.422 59.3906 248.348C59.3378 248.275 59.3056 248.189 59.2975 248.099C58.9686 245.45 56.4375 241.083 54.2925 237.231C53.1771 235.284 52.1189 233.422 51.4325 231.876C51.3961 231.812 51.3736 231.741 51.3662 231.667C51.3588 231.594 51.3669 231.52 51.3898 231.45C51.4126 231.38 51.4499 231.315 51.4991 231.26C51.5483 231.205 51.6084 231.162 51.6756 231.131Z" fill="#3D4040"/>
<path d="M73.7116 227.566L80.6758 242.401L52.9622 242.845L44.9684 222.225L73.7116 227.566Z" fill="#134FAE"/>
<path d="M54.6786 179.955C54.6995 179.888 54.7337 179.826 54.7794 179.773C54.825 179.72 54.8809 179.676 54.9438 179.645C55.0067 179.615 55.0753 179.597 55.1453 179.594C55.2152 179.59 55.2851 179.601 55.3507 179.626C55.4177 179.647 55.4799 179.681 55.5335 179.726C55.5872 179.772 55.6313 179.828 55.6632 179.89C55.6952 179.953 55.7144 180.021 55.7196 180.091C55.7249 180.161 55.7161 180.232 55.6939 180.299C55.1551 182.031 55.0958 183.877 55.5223 185.64C58.1915 184.218 60.9874 183.048 63.8736 182.146L65.99 181.416C71.3599 179.454 76.8914 177.969 82.5209 176.977C87.1337 175.992 91.8865 175.851 96.5493 176.561C98.9168 176.944 101.183 177.801 103.212 179.08C105.242 180.359 106.993 182.035 108.361 184.007C108.399 184.067 108.424 184.133 108.436 184.202C108.448 184.271 108.447 184.342 108.432 184.41C108.401 184.548 108.316 184.669 108.197 184.745C108.077 184.821 107.933 184.846 107.794 184.815C107.656 184.784 107.536 184.7 107.46 184.58C106.171 182.732 104.522 181.163 102.613 179.967C100.704 178.771 98.5733 177.973 96.3491 177.621C91.814 176.933 87.1919 177.074 82.7068 178.036C77.1369 179.018 71.663 180.484 66.3475 182.418L64.2311 183.163C61.3046 184.06 58.4775 185.254 55.794 186.728C56.3822 188.651 57.1234 190.523 58.0105 192.327C61.7715 200.36 65.7612 208.808 69.7366 217.256C73.7121 225.705 77.7018 234.139 81.4627 242.186C81.4939 242.25 81.512 242.319 81.5159 242.39C81.5198 242.461 81.5094 242.532 81.4854 242.598C81.4614 242.665 81.4242 242.727 81.3761 242.779C81.328 242.831 81.2699 242.873 81.2053 242.902C81.1298 242.917 81.0521 242.917 80.9765 242.902C80.8759 242.9 80.7776 242.872 80.692 242.819C80.6064 242.766 80.5367 242.691 80.4903 242.601C76.7294 234.554 72.754 226.12 68.7642 217.672L57.0381 192.742C54.9932 188.589 53.2772 184.151 54.6786 179.955Z" fill="#3D4040"/>
<path d="M26.9933 178.681C27.0609 178.664 27.1312 178.66 27.2002 178.67C27.2692 178.68 27.3355 178.704 27.3954 178.74C27.4552 178.776 27.5073 178.823 27.5488 178.88C27.5902 178.936 27.6201 179 27.6368 179.067C31.3119 194.217 41.6223 219.605 53.3055 242.315L67.4483 242.143C67.59 242.143 67.7261 242.198 67.8276 242.297C67.9291 242.396 67.988 242.531 67.9917 242.673C67.9917 242.815 67.9365 242.951 67.8376 243.053C67.7388 243.154 67.6042 243.213 67.4626 243.217L52.9766 243.389C52.8792 243.389 52.7837 243.363 52.7004 243.312C52.6171 243.262 52.5494 243.189 52.5047 243.102C49.9164 238.091 47.3996 232.95 44.9972 227.81L44.0533 234.812C42.323 247.627 40.6356 260.214 39.8777 265.784C39.8571 265.913 39.7909 266.03 39.6911 266.114C39.5914 266.198 39.4647 266.244 39.3343 266.242H39.2628C39.1251 266.218 39.0017 266.142 38.9169 266.031C38.8322 265.919 38.7923 265.78 38.8052 265.641C39.5631 260.071 41.2648 247.484 42.9951 234.668L44.1391 226.163C44.1331 226.12 44.1331 226.077 44.1391 226.034C35.9881 208.336 29.3528 190.881 26.55 179.325C26.5334 179.253 26.5319 179.179 26.5457 179.107C26.5594 179.034 26.5881 178.966 26.6298 178.905C26.6715 178.844 26.7253 178.793 26.7879 178.755C26.8505 178.716 26.9205 178.691 26.9933 178.681Z" fill="#3D4040"/>
</g>
<defs>
<linearGradient id="paint0_linear_2108_6538" x1="18.5343" y1="5.24967" x2="132.812" y2="257.283" gradientUnits="userSpaceOnUse">
<stop stop-color="#EFF8FF"/>
<stop offset="0.240707" stop-color="#EEF5FF"/>
<stop offset="0.696907" stop-color="#BFE4FF"/>
<stop offset="1" stop-color="#BDD7FF"/>
</linearGradient>
<clipPath id="clip0_2108_6538">
<rect width="128.672" height="179.39" fill="white" transform="matrix(-1 0 0 1 139.936 99.6104)"/>
</clipPath>
</defs>
</svg>
