<svg width="64" height="64" viewBox="0 0 64 64" fill="none" xmlns="http://www.w3.org/2000/svg">
<path d="M4 21H60V55C60 58.3137 57.3137 61 54 61H10C6.68629 61 4 58.3137 4 55V21Z" fill="#CBD8EF"/>
<path d="M4 15C4 11.6863 6.68629 9 10 9H54C57.3137 9 60 11.6863 60 15V22H4V15Z" fill="#0093FF"/>
<path d="M13 9H19V15C19 16.6569 17.6569 18 16 18C14.3431 18 13 16.6569 13 15V9Z" fill="#134FAE"/>
<path d="M13 9H19V6C19 4.34315 17.6569 3 16 3C14.3431 3 13 4.34315 13 6V9Z" fill="#134FAE"/>
<path d="M45 9H51V15C51 16.6569 49.6569 18 48 18C46.3431 18 45 16.6569 45 15V9Z" fill="#134FAE"/>
<path d="M45 9H51V6C51 4.34315 49.6569 3 48 3C46.3431 3 45 4.34315 45 6V9Z" fill="#134FAE"/>
<path fill-rule="evenodd" clip-rule="evenodd" d="M14 25C12.8954 25 12 25.8954 12 27V31C12 32.1046 12.8954 33 14 33H18C19.1046 33 20 32.1046 20 31V27C20 25.8954 19.1046 25 18 25H14ZM12 38C12 36.8954 12.8954 36 14 36H18C19.1046 36 20 36.8954 20 38V42C20 43.1046 19.1046 44 18 44H14C12.8954 44 12 43.1046 12 42V38ZM23 38C23 36.8954 23.8954 36 25 36H29C30.1046 36 31 36.8954 31 38V42C31 43.1046 30.1046 44 29 44H25C23.8954 44 23 43.1046 23 42V38ZM36 36C34.8954 36 34 36.8954 34 38V42C34 43.1046 34.8954 44 36 44H40C41.1046 44 42 43.1046 42 42V38C42 36.8954 41.1046 36 40 36H36ZM45 38C45 36.8954 45.8954 36 47 36H51C52.1046 36 53 36.8954 53 38V42C53 43.1046 52.1046 44 51 44H47C45.8954 44 45 43.1046 45 42V38ZM14 47C12.8954 47 12 47.8954 12 49V53C12 54.1046 12.8954 55 14 55H18C19.1046 55 20 54.1046 20 53V49C20 47.8954 19.1046 47 18 47H14ZM25 47C23.8954 47 23 47.8954 23 49V53C23 54.1046 23.8954 55 25 55H29C30.1046 55 31 54.1046 31 53V49C31 47.8954 30.1046 47 29 47H25ZM34 49C34 47.8954 34.8954 47 36 47H40C41.1046 47 42 47.8954 42 49V53C42 54.1046 41.1046 55 40 55H36C34.8954 55 34 54.1046 34 53V49ZM47 47C45.8954 47 45 47.8954 45 49V53C45 54.1046 45.8954 55 47 55H51C52.1046 55 53 54.1046 53 53V49C53 47.8954 52.1046 47 51 47H47ZM25 25C23.8954 25 23 25.8954 23 27V31C23 32.1046 23.8954 33 25 33H29C30.1046 33 31 32.1046 31 31V27C31 25.8954 30.1046 25 29 25H25ZM34 27C34 25.8954 34.8954 25 36 25H40C41.1046 25 42 25.8954 42 27V31C42 32.1046 41.1046 33 40 33H36C34.8954 33 34 32.1046 34 31V27ZM47 25C45.8954 25 45 25.8954 45 27V31C45 32.1046 45.8954 33 47 33H51C52.1046 33 53 32.1046 53 31V27C53 25.8954 52.1046 25 51 25H47Z" fill="white"/>
<path d="M36.14 42L37.7 39.44L36.24 37.09H37.48L38.03 38.02C38.1033 38.1533 38.1767 38.2933 38.25 38.44C38.33 38.58 38.4067 38.7167 38.48 38.85H38.52C38.58 38.7167 38.6433 38.58 38.71 38.44C38.7767 38.2933 38.84 38.1533 38.9 38.02L39.37 37.09H40.56L39.11 39.57L40.67 42H39.43L38.83 41.03C38.75 40.8833 38.6667 40.7367 38.58 40.59C38.5 40.4433 38.4167 40.3 38.33 40.16H38.29C38.2233 40.3 38.1533 40.4433 38.08 40.59C38.0067 40.73 37.9333 40.8767 37.86 41.03L37.34 42H36.14Z" fill="#E32A2C"/>
</svg>
