<svg width="24" height="24" viewBox="0 0 24 24" fill="none" xmlns="http://www.w3.org/2000/svg">
<path d="M6 4.5H18L18.5 8L18 19L16 18L14 19L12 18L10 19L7.5 18L6 19L5.5 17.5V7.5L6 4.5Z" fill="#F3F5F9"/>
<path d="M6.11651 4.00749L17.7629 4C18.0431 4.01835 18.2806 4.16613 18.4508 4.37428C18.6211 4.58243 18.7133 4.8524 18.7172 5.12478C18.7852 9.82068 18.724 14.5267 18.7461 19.2265C18.7109 19.6341 18.36 19.8548 17.9761 19.7007L16.1068 18.4697L14.2368 19.6925C14.0792 19.765 13.8923 19.765 13.7347 19.6925L11.8814 18.4697L10.0114 19.6925C9.85384 19.765 9.66687 19.765 9.50927 19.6925L7.65603 18.4697L5.75349 19.7085C5.37079 19.8471 5.03448 19.6259 5 19.2265V5.21533C5 5.18587 5.00049 5.15641 5.00291 5.12695C5.02064 4.91952 5.08305 4.7121 5.18673 4.53245C5.37687 4.2038 5.73552 4.00773 6.11651 4.00749ZM17.677 18.2237V5.12381C17.677 5.11705 17.6393 5.05789 17.6284 5.05137H6.11845C6.10753 5.05789 6.06989 5.11705 6.06989 5.12381V18.2237L7.39766 17.3587C7.5521 17.2802 7.76238 17.2795 7.91391 17.3681L9.76934 18.5813L11.6231 17.3589C11.7775 17.2805 11.9878 17.2797 12.1393 17.3684L13.9947 18.5815L15.8485 17.3592C15.9973 17.2824 16.1986 17.2817 16.3497 17.3592L17.6774 18.2241L17.677 18.2237Z" fill="#134FAE"/>
<path d="M7.26831 14.1272C7.34917 14.0468 7.49438 13.9787 7.61069 13.9727L16.1591 13.9736C16.8216 14.104 16.7735 14.968 16.086 15.0359L7.68354 15.0371C7.20833 15.0388 6.91961 14.4735 7.26807 14.1272H7.26831Z" fill="#134FAE"/>
<path d="M7.49631 10.84L16.2089 10.834C16.7927 10.9784 16.7557 11.7789 16.1598 11.873H7.58786C7.01188 11.7793 6.95214 11.0334 7.49631 10.84Z" fill="#134FAE"/>
<path d="M10.7258 7.67718L16.1593 7.67139C16.8431 7.80323 16.7498 8.70658 16.0617 8.73362H10.8659C10.196 8.73217 10.0634 7.83366 10.7258 7.67742V7.67718Z" fill="#134FAE"/>
</svg>
