<svg width="280" height="241" viewBox="0 0 280 241" fill="none" xmlns="http://www.w3.org/2000/svg">
<path opacity="0.3" fill-rule="evenodd" clip-rule="evenodd" d="M280 101C280 23.6801 217.32 -39 140 -39C62.6801 -39 0 23.6801 0 101C0 178.32 62.6801 241 140 241C217.32 241 280 178.32 280 101ZM1 101C1 24.2324 63.2324 -38 140 -38C216.768 -38 279 24.2324 279 101C279 177.768 216.768 240 140 240C63.2324 240 1 177.768 1 101Z" fill="#DFE4EC"/>
<path opacity="0.3" fill-rule="evenodd" clip-rule="evenodd" d="M242 101C242 44.667 196.333 -1 140 -1C83.667 -1 38 44.667 38 101C38 157.333 83.667 203 140 203C196.333 203 242 157.333 242 101ZM39 101C39 45.2192 84.2192 0 140 0C195.781 0 241 45.2192 241 101C241 156.781 195.781 202 140 202C84.2192 202 39 156.781 39 101Z" fill="#DFE4EC"/>
<path opacity="0.5" fill-rule="evenodd" clip-rule="evenodd" d="M220 101C220 56.8172 184.183 21 140 21C95.8172 21 60 56.8172 60 101C60 145.183 95.8172 181 140 181C184.183 181 220 145.183 220 101ZM62 101C62 57.9218 96.9218 23 140 23C183.078 23 218 57.9218 218 101C218 144.078 183.078 179 140 179C96.9218 179 62 144.078 62 101Z" fill="#DFE4EC"/>
<path opacity="0.72" fill-rule="evenodd" clip-rule="evenodd" d="M204 101C204 65.6538 175.346 37 140 37C104.654 37 76 65.6538 76 101C76 136.346 104.654 165 140 165C175.346 165 204 136.346 204 101ZM77 101C77 66.2061 105.206 38 140 38C174.794 38 203 66.2061 203 101C203 135.794 174.794 164 140 164C105.206 164 77 135.794 77 101Z" fill="#DFE4EC"/>
<g filter="url(#filter0_ddd_1506_6035)">
<circle cx="140" cy="101" r="52" fill="#29BD07"/>
</g>
<path fill-rule="evenodd" clip-rule="evenodd" d="M134.728 116.87L161.477 90.1213C162.648 88.9497 162.648 87.0503 161.477 85.8787C160.305 84.7071 158.406 84.7071 157.234 85.8787L132.607 110.506L122.121 100.021C120.95 98.8492 119.05 98.8492 117.879 100.021C116.707 101.192 116.707 103.092 117.879 104.263L130.485 116.87C131.657 118.042 133.556 118.042 134.728 116.87Z" fill="white"/>
<defs>
<filter id="filter0_ddd_1506_6035" x="73" y="43.6255" width="134" height="144.374" filterUnits="userSpaceOnUse" color-interpolation-filters="sRGB">
<feFlood flood-opacity="0" result="BackgroundImageFix"/>
<feColorMatrix in="SourceAlpha" type="matrix" values="0 0 0 0 0 0 0 0 0 0 0 0 0 0 0 0 0 0 127 0" result="hardAlpha"/>
<feOffset dy="20"/>
<feGaussianBlur stdDeviation="7.5"/>
<feColorMatrix type="matrix" values="0 0 0 0 0.160784 0 0 0 0 0.741176 0 0 0 0 0.027451 0 0 0 0.04 0"/>
<feBlend mode="normal" in2="BackgroundImageFix" result="effect1_dropShadow_1506_6035"/>
<feColorMatrix in="SourceAlpha" type="matrix" values="0 0 0 0 0 0 0 0 0 0 0 0 0 0 0 0 0 0 127 0" result="hardAlpha"/>
<feOffset dy="13.3333"/>
<feGaussianBlur stdDeviation="6.91581"/>
<feColorMatrix type="matrix" values="0 0 0 0 0.160784 0 0 0 0 0.741176 0 0 0 0 0.027451 0 0 0 0.08 0"/>
<feBlend mode="normal" in2="effect1_dropShadow_1506_6035" result="effect2_dropShadow_1506_6035"/>
<feColorMatrix in="SourceAlpha" type="matrix" values="0 0 0 0 0 0 0 0 0 0 0 0 0 0 0 0 0 0 127 0" result="hardAlpha"/>
<feOffset dy="6.66667"/>
<feGaussianBlur stdDeviation="6.02056"/>
<feColorMatrix type="matrix" values="0 0 0 0 0.160784 0 0 0 0 0.741176 0 0 0 0 0.027451 0 0 0 0.06 0"/>
<feBlend mode="normal" in2="effect2_dropShadow_1506_6035" result="effect3_dropShadow_1506_6035"/>
<feBlend mode="normal" in="SourceGraphic" in2="effect3_dropShadow_1506_6035" result="shape"/>
</filter>
</defs>
</svg>
