<svg width="126" height="126" viewBox="0 0 126 126" fill="none" xmlns="http://www.w3.org/2000/svg">
<g id="Sonra_Ode">
<g id="Group 8792">
<g id="Group 8791">
<g id="Group">
<path id="Vector" d="M35.6481 22.6275C51.6079 11.4014 72.827 10.687 89.637 21.1562C95.5643 24.8437 100.471 29.6514 104.212 35.1615H113.285C108.737 26.9569 102.123 19.818 93.7424 14.5985C73.7804 2.16747 48.456 3.34216 29.818 17.2991L24.0608 12.0433L19.0566 34.6226L41.1684 27.6593L35.6481 22.6215V22.6275Z" fill="url(#paint0_linear_2603_6661)"/>
<path id="Vector_2" d="M91.8964 102.294C75.9365 113.52 54.7175 114.234 37.9074 103.765C31.968 100.072 27.055 95.2638 23.314 89.7598H14.2349C18.7835 97.9523 25.4031 105.097 33.8021 110.323C53.764 122.748 79.0884 121.573 97.7325 107.616L103.49 112.872L108.494 90.2926L86.3821 97.2559L91.9025 102.294H91.8964Z" fill="url(#paint1_linear_2603_6661)"/>
</g>
<g id="Group_2">
<g id="Group_3">
<path id="Vector_3" d="M13.0387 69.3387L12.2249 72.3541C11.0407 72.0029 9.85041 71.8273 8.64795 71.8273C7.20865 71.8273 6.48596 72.2512 6.48596 73.0989C6.48596 73.5773 6.91107 74.0253 7.75522 74.4371C8.08924 74.5945 8.64188 74.8791 9.41315 75.2727C11.1075 76.2294 11.9577 77.4646 11.9577 78.9844C11.9577 80.5043 11.229 81.8182 9.77146 82.7446C8.49006 83.556 6.9718 83.9677 5.21063 83.9677C3.44946 83.9677 1.68222 83.6892 0 83.1321L0.862366 79.9472C2.19235 80.4437 3.62558 80.692 5.16205 80.692C6.80783 80.692 7.63376 80.2318 7.63376 79.3053C7.63376 78.7967 7.07505 78.276 5.95154 77.7492C5.55072 77.5736 4.93735 77.2708 4.10535 76.8409C2.8118 76.0296 2.16199 74.9033 2.16199 73.4622C2.16199 72.124 2.69641 71.0039 3.77133 70.1077C4.93735 69.1328 6.5224 68.6484 8.52649 68.6484C10.0144 68.6484 11.5205 68.8785 13.0387 69.3448V69.3387Z" fill="#FDB415"/>
<path id="Vector_4" d="M28.9075 74.322C28.9075 76.6653 28.1059 78.8088 26.5087 80.7404C24.6989 82.896 22.4276 83.9738 19.6887 83.9738C17.8182 83.9738 16.3182 83.4773 15.2008 82.4782C14.0773 81.4791 13.5186 80.0865 13.5186 78.3002C13.5186 75.9508 14.3263 73.8134 15.9417 71.8818C17.7332 69.7262 19.9984 68.6484 22.7374 68.6484C24.6079 68.6484 26.1018 69.1328 27.201 70.1077C28.3367 71.131 28.9075 72.5358 28.9075 74.322ZM24.5896 74.6066C24.5896 73.8558 24.3892 73.2563 23.9884 72.8022C23.5876 72.3481 23.0107 72.118 22.2576 72.118C20.9641 72.118 19.8831 72.778 19.0146 74.1041C18.2312 75.303 17.8365 76.6048 17.8365 78.0096C17.8365 78.7604 18.0369 79.3598 18.4377 79.82C18.8385 80.2742 19.4154 80.5043 20.1685 80.5043C21.462 80.5043 22.543 79.8443 23.4115 78.5182C24.1949 77.3193 24.5896 76.0235 24.5896 74.6127V74.6066Z" fill="#FDB415"/>
<path id="Vector_5" d="M44.011 73.5046C44.011 74.098 43.9199 74.7156 43.7498 75.3696L41.4907 83.7255H37.3367L39.5716 75.4907C39.7295 74.9033 39.8145 74.4007 39.8145 73.9829C39.8145 72.7356 39.2072 72.118 37.9926 72.118C37.1606 72.118 36.4926 72.4389 36.0007 73.0747C35.5816 73.6499 35.1869 74.6369 34.7982 76.0417L32.7091 83.7255H28.5552L30.79 75.4907C31.4156 73.1776 32.2415 71.5004 33.2618 70.465C34.4642 69.2539 36.1646 68.6484 38.3752 68.6484C40.021 68.6484 41.3753 69.0965 42.432 69.9866C43.4887 70.8828 44.017 72.0514 44.017 73.5046H44.011Z" fill="#FDB415"/>
<path id="Vector_6" d="M55.5862 68.8063C55.3311 69.8114 55.0578 70.8165 54.7724 71.8217C53.1388 71.8217 52.0092 72.1426 51.3897 72.7784C50.91 73.2749 50.4424 74.3588 49.999 76.036L47.9342 83.7199H43.7803L46.4463 73.7593C46.8957 72.0518 47.6245 70.7984 48.6326 69.9991C49.75 69.0908 51.3412 68.6367 53.3878 68.6367C54.2198 68.6367 54.9546 68.6912 55.5983 68.8063H55.5862Z" fill="#FDB415"/>
<path id="Vector_7" d="M69.6087 74.0984C69.6087 74.6736 69.5176 75.2852 69.3414 75.9391L67.2523 83.7199H63.3352L63.8393 81.8549C62.5275 83.2597 60.9728 83.9621 59.1813 83.9621C57.8392 83.9621 56.7217 83.4595 55.829 82.4544C54.9424 81.4492 54.499 80.1595 54.499 78.5731C54.499 76.0178 55.3128 73.7593 56.9464 71.7975C58.6894 69.6903 60.8575 68.6367 63.4506 68.6367C65.2907 68.6367 66.7786 69.1453 67.9021 70.1687C69.0317 71.192 69.5965 72.4999 69.5965 74.0923L69.6087 74.0984ZM65.3818 74.5041C65.3818 72.9116 64.6592 72.1123 63.2199 72.1123C61.9081 72.1123 60.8089 72.7965 59.9283 74.171C59.1449 75.4002 58.7501 76.7081 58.7501 78.0947C58.7501 78.8153 58.9202 79.3905 59.2542 79.8325C59.5882 80.2746 60.068 80.4925 60.6935 80.4925C61.8959 80.4925 62.9952 79.7841 64.0093 78.3612C64.9203 77.0714 65.3758 75.7817 65.3758 74.5041H65.3818Z" fill="#FDB415"/>
<path id="Vector_8" d="M93.2874 74.3213C93.2874 76.6646 92.4858 78.8081 90.8886 80.7397C89.0788 82.8953 86.8075 83.9731 84.0686 83.9731C82.1981 83.9731 80.6981 83.4766 79.5807 82.4775C78.4571 81.4784 77.8984 80.0857 77.8984 78.2995C77.8984 75.9501 78.7061 73.8127 80.3216 71.8811C82.1131 69.7255 84.3783 68.6477 87.1172 68.6477C88.9877 68.6477 90.4817 69.1321 91.5809 70.107C92.7166 71.1303 93.2874 72.535 93.2874 74.3213ZM86.346 64.8633L85.5079 67.9998H81.354L82.192 64.8633H86.346ZM88.9634 74.6059C88.9634 73.8551 88.763 73.2556 88.3622 72.8015C87.9614 72.3473 87.3845 72.1172 86.6314 72.1172C85.3379 72.1172 84.2569 72.7773 83.3884 74.1033C82.605 75.3022 82.2103 76.6041 82.2103 78.0088C82.2103 78.7597 82.4107 79.3591 82.8115 79.8193C83.2123 80.2734 83.7892 80.5035 84.5423 80.5035C85.8359 80.5035 86.9168 79.8435 87.7853 78.5175C88.5687 77.3186 88.9634 76.0228 88.9634 74.6119V74.6059ZM95.1336 64.8633L94.2955 67.9998H90.1416L90.9797 64.8633H95.1336Z" fill="#FDB415"/>
<path id="Vector_9" d="M111.846 65.8947L108.822 77.1208C107.589 81.6863 104.729 83.9691 100.247 83.9691C98.4068 83.9691 96.9432 83.4484 95.8622 82.4129C94.7812 81.3775 94.2407 79.9728 94.2407 78.1986C94.2407 75.8069 95.0302 73.6392 96.6153 71.7076C98.2975 69.667 100.32 68.6437 102.688 68.6437C104.176 68.6437 105.464 69.1281 106.557 70.103L107.686 65.8887H111.84L111.846 65.8947ZM105.124 74.7048C105.124 72.9791 104.352 72.1193 102.816 72.1193C101.553 72.1193 100.496 72.7793 99.6457 74.1054C98.8805 75.268 98.4918 76.5395 98.4918 77.914C98.4918 79.6397 99.2752 80.4995 100.848 80.4995C102.111 80.4995 103.162 79.8395 103.994 78.5135C104.747 77.3509 105.124 76.0793 105.124 74.7048Z" fill="#FDB415"/>
<path id="Vector_10" d="M125.195 72.8383C125.195 73.8132 124.91 74.7033 124.333 75.5207C123.756 76.3321 122.954 76.974 121.934 77.4341C120.416 78.1184 118.029 78.4635 114.78 78.4635C114.78 79.9652 115.812 80.716 117.877 80.716C119.511 80.716 121.181 80.4375 122.893 79.8804L122.007 83.1622C120.324 83.7072 118.667 83.9736 117.039 83.9736C115.102 83.9736 113.583 83.5437 112.478 82.6839C111.264 81.7393 110.656 80.3345 110.656 78.4696C110.656 75.8174 111.537 73.5347 113.298 71.6213C115.138 69.6413 117.422 68.6543 120.142 68.6543C121.484 68.6543 122.632 68.9873 123.574 69.6594C124.661 70.4284 125.207 71.4881 125.207 72.8444L125.195 72.8383ZM121.478 73.1229C121.478 72.2631 120.95 71.8332 119.893 71.8332C118.837 71.8332 117.877 72.2147 116.966 72.9837C116.134 73.6861 115.539 74.5217 115.187 75.4965C115.606 75.5268 115.915 75.545 116.122 75.545C119.693 75.545 121.478 74.7396 121.478 73.129V73.1229Z" fill="#FDB415"/>
</g>
<g id="Group_4">
<path id="Vector_11" d="M26.3024 44.4015L25.4886 47.4169C24.3044 47.0657 23.1141 46.8901 21.9116 46.8901C20.4723 46.8901 19.7496 47.314 19.7496 48.1617C19.7496 48.64 20.1747 49.0881 21.0189 49.4999C21.3529 49.6573 21.9056 49.9358 22.6768 50.3355C24.3712 51.2922 25.2214 52.5274 25.2214 54.0472C25.2214 55.567 24.4927 56.881 23.0351 57.8074C21.7537 58.6188 20.2355 59.0305 18.4743 59.0305C16.7131 59.0305 14.9459 58.752 13.2637 58.1949L14.126 55.01C15.456 55.5065 16.8893 55.7548 18.4257 55.7548C20.0715 55.7548 20.8974 55.2946 20.8974 54.3681C20.8974 53.8595 20.3387 53.3388 19.2152 52.812C18.8144 52.6364 18.201 52.3336 17.369 51.9037C16.0755 51.0924 15.4257 49.9661 15.4257 48.5311C15.4257 47.1929 15.9601 46.0727 17.035 45.1766C18.201 44.2017 19.7861 43.7173 21.7902 43.7173C23.2781 43.7173 24.7842 43.9474 26.3024 44.4136V44.4015ZM15.9054 62.93L16.8164 59.7935H20.946L20.0594 62.93H15.9054Z" fill="#3A75C4"/>
<path id="Vector_12" d="M30.0494 58.7879H26.3267L29.1385 46.4598H32.8612L30.0494 58.7879ZM33.2681 44.6675H29.5454L30.1952 41.8882H33.8936L33.2681 44.6675Z" fill="#3A75C4"/>
<path id="Vector_13" d="M56.4186 48.5663C56.4186 49.1597 56.3336 49.7773 56.1575 50.4313L53.8983 58.7873H49.8173L52.0521 50.5524C52.21 49.965 52.2951 49.4564 52.2951 49.0447C52.2951 47.7973 51.6695 47.1797 50.4246 47.1797C49.6108 47.1797 48.9671 47.5006 48.5055 48.1364C48.1047 48.6935 47.716 49.6865 47.3273 51.1034L45.2382 58.7873H41.1572L43.392 50.5524C43.5499 49.965 43.635 49.4564 43.635 49.0447C43.635 47.7973 43.0094 47.1797 41.7645 47.1797C40.9507 47.1797 40.307 47.5006 39.8454 48.1364C39.4446 48.6935 39.0559 49.6865 38.6672 51.1034L36.5781 58.7873H32.4971L34.7319 50.5524C35.3696 48.203 36.1652 46.5318 37.1126 45.5267C38.2664 44.3157 39.9365 43.7041 42.1289 43.7041C43.969 43.7041 45.3718 44.3823 46.3314 45.7386C47.5642 44.3823 49.131 43.7041 51.0379 43.7041C52.6837 43.7041 54.0016 44.1461 54.9732 45.0362C55.951 45.9203 56.4368 47.101 56.4368 48.5663H56.4186Z" fill="#3A75C4"/>
<path id="Vector_14" d="M75.0988 40.957L72.0744 52.1831C70.8416 56.7486 67.9812 59.0314 63.4994 59.0314C61.6592 59.0314 60.1956 58.5107 59.1147 57.4752C58.0337 56.4398 57.4932 55.0351 57.4932 53.2609C57.4932 50.8692 58.2827 48.7015 59.8677 46.7759C61.5499 44.7354 63.5722 43.7121 65.9407 43.7121C67.4286 43.7121 68.7161 44.1965 69.8092 45.1714L70.9388 40.957H75.0927H75.0988ZM68.376 49.7671C68.376 48.0415 67.6047 47.1816 66.0682 47.1816C64.8051 47.1816 63.7484 47.8416 62.8981 49.1677C62.1329 50.3303 61.7443 51.6018 61.7443 52.9763C61.7443 54.702 62.5277 55.5618 64.1006 55.5618C65.3638 55.5618 66.4144 54.9018 67.2464 53.5758C67.9995 52.4132 68.376 51.1416 68.376 49.7671Z" fill="#3A75C4"/>
<path id="Vector_15" d="M77.1637 58.7879H73.4409L76.2527 46.4598H79.9755L77.1637 58.7879ZM80.3763 44.6675H76.6535L77.3033 41.8882H81.0018L80.3763 44.6675Z" fill="#3A75C4"/>
<path id="Vector_16" d="M103.217 49.1658C103.217 49.741 103.126 50.3526 102.95 51.0065L100.861 58.7873H96.9436L97.4477 56.9223C96.1359 58.3271 94.5812 59.0295 92.7897 59.0295C91.4476 59.0295 90.3301 58.5269 89.4374 57.5218C88.5508 56.5166 88.1074 55.2208 88.1074 53.6405C88.1074 51.0852 88.9212 48.8267 90.5548 46.8648C92.2978 44.7577 94.4659 43.7041 97.059 43.7041C98.8991 43.7041 100.387 44.2127 101.511 45.236C102.634 46.2593 103.205 47.5672 103.205 49.1597L103.217 49.1658ZM98.9902 49.5715C98.9902 47.9729 98.2676 47.1797 96.8282 47.1797C95.5165 47.1797 94.4173 47.8639 93.5367 49.2384C92.7533 50.4676 92.3585 51.7755 92.3585 53.1621C92.3585 53.8827 92.5286 54.4579 92.8626 54.8999C93.1966 55.3419 93.6764 55.5599 94.3019 55.5599C95.5043 55.5599 96.6036 54.8515 97.6177 53.4285C98.5287 52.1388 98.9842 50.8491 98.9842 49.5715H98.9902Z" fill="#3A75C4"/>
<path id="Vector_17" d="M111.932 40.957L107.128 58.7953H102.974L107.778 40.957H111.932Z" fill="#3A75C4"/>
</g>
</g>
</g>
</g>
</g>
<defs>
<linearGradient id="paint0_linear_2603_6661" x1="19.0566" y1="20.5808" x2="113.285" y2="20.5808" gradientUnits="userSpaceOnUse">
<stop stop-color="#FAB714"/>
<stop offset="1" stop-color="#0572CA"/>
</linearGradient>
<linearGradient id="paint1_linear_2603_6661" x1="14.2349" y1="104.338" x2="108.494" y2="104.338" gradientUnits="userSpaceOnUse">
<stop stop-color="#FAB714"/>
<stop offset="1" stop-color="#0272CD"/>
</linearGradient>
</defs>
</svg>
