<svg width="20" height="20" viewBox="0 0 20 20" fill="none" xmlns="http://www.w3.org/2000/svg">
<path d="M0 4C0 1.79086 1.79086 0 4 0L16 0C18.2091 0 20 1.79086 20 4V16C20 18.2091 18.2091 20 16 20H4C1.79086 20 0 18.2091 0 16V4Z" fill="#13AE59"/>
<rect x="2" y="2" width="16" height="16" fill="white" fill-opacity="0.01"/>
<path d="M14.4003 6.19597C14.8422 5.86473 15.469 5.95447 15.8002 6.3964C16.1059 6.80434 16.053 7.36978 15.6955 7.71487L15.5997 7.79634L8.59975 14.7944C8.2349 15.0678 7.73665 15.0574 7.38514 14.7829L7.29312 14.7015L4.29312 11.7028C3.90247 11.3124 3.90227 10.6793 4.29266 10.2886C4.65303 9.92802 5.22025 9.90011 5.61264 10.205L5.70688 10.2882L8.093 12.6741L14.4003 6.19597Z" fill="white"/>
</svg>
