<svg width="24" height="24" viewBox="0 0 24 24" fill="none" xmlns="http://www.w3.org/2000/svg">
<rect width="24" height="24" fill="white" fill-opacity="0.01"/>
<path d="M14.8299 11.2897L10.5899 7.0497C10.4022 6.86039 10.1466 6.75391 9.87994 6.75391C9.61331 6.75391 9.35771 6.86039 9.16994 7.0497C8.78222 7.43974 8.78222 8.06967 9.16994 8.4597L12.7099 11.9997L9.16994 15.5397C8.78222 15.9297 8.78222 16.5597 9.16994 16.9497C9.35866 17.1369 9.61414 17.2412 9.87994 17.2397C10.1457 17.2412 10.4012 17.1369 10.5899 16.9497L14.8299 12.7097C15.0193 12.5219 15.1257 12.2663 15.1257 11.9997C15.1257 11.7331 15.0193 11.4775 14.8299 11.2897Z" fill="#134FAE"/>
</svg>
