<svg width="25" height="25" viewBox="0 0 25 25" fill="none" xmlns="http://www.w3.org/2000/svg">
<g id="Group 8747">
<rect id="Rectangle 20064" width="25" height="25" rx="12.5" fill="#D0011B"/>
<path id="Vector" d="M18.104 5.95312C19.7153 6.04386 21.009 6.51568 21.3496 7.8671C21.554 8.63248 21.3277 9.42048 21.0545 9.98304C20.7874 10.5434 20.4439 11.0659 20.0332 11.5364C19.2388 12.4598 18.3083 13.2032 17.2413 13.8791C16.1716 14.5713 15.0306 15.1522 13.8368 15.6125C13.2461 15.8379 12.5882 16.0625 11.8617 16.2205C11.181 16.377 10.3184 16.4899 9.56925 16.3099C8.86543 16.1526 8.32066 15.7918 8.20711 15.093C8.09356 14.3276 8.47972 13.6976 8.8197 13.2023C9.52331 12.1891 10.4993 11.4457 11.6114 10.8603C12.7237 10.2523 13.9961 9.75695 15.6971 9.82505C14.3127 9.98219 13.382 10.3876 12.4511 10.973C11.6571 11.4918 10.7041 12.2565 10.4089 13.315C10.2048 14.0358 10.545 14.532 11.0445 14.7566C11.544 14.9812 12.3384 15.0038 12.974 14.9365C14.2906 14.8238 15.3806 14.3511 16.2879 13.8558C17.6723 13.0904 18.8984 12.0772 19.7381 10.7038C20.0105 10.2531 20.2601 9.73581 20.3962 9.1724C20.7141 7.64186 19.9649 6.80838 18.8529 6.47106C17.7408 6.13374 16.1063 6.31308 14.9714 6.60578C12.6788 7.21381 10.8402 8.31715 9.20586 9.62309C8.41145 10.2531 7.68531 10.9969 7.00402 11.8082C6.34614 12.6182 5.75696 13.5189 5.36971 14.5322C5.18834 15.0949 5.02929 15.7256 5.12008 16.4009C5.34718 18.2024 7.25365 18.7423 9.4102 18.6296C12.134 18.4722 14.1996 17.5488 16.0831 16.5136C14.3809 17.5488 12.315 18.5395 9.90924 18.9003C7.20837 19.3492 4.34843 18.8535 4.16663 16.3556V15.9045C4.34843 14.2158 5.16537 12.9779 5.98253 11.9418C6.86772 10.8165 7.84371 9.93842 8.95601 9.12778C10.0455 8.29516 11.2939 7.59639 12.6556 7.03383C14.0173 6.47128 15.584 6.04386 17.3549 5.95312H18.104ZM18.8072 9.08252C18.6711 9.39785 18.4667 9.73581 18.3079 10.0731C18.7393 10.1184 19.2158 10.1184 19.6698 10.163C19.1253 10.3658 18.558 10.5458 17.9902 10.7264C17.8088 11.0864 17.6045 11.4465 17.4227 11.8071C17.2411 11.5819 17.105 11.3118 16.9232 11.0864L15.2889 11.6272C15.7429 11.3118 16.1971 10.9739 16.651 10.6585C16.515 10.4339 16.3559 10.2085 16.2198 9.98304C16.5375 10.0059 16.8554 10.0285 17.1733 10.0285C17.2866 10.0285 17.4002 10.0731 17.491 10.0511C17.5817 10.0292 17.7406 9.89316 17.8314 9.82591C18.1493 9.57783 18.4897 9.30776 18.8072 9.08252Z" fill="#F8F8F8"/>
</g>
</svg>
