<svg width="20" height="20" viewBox="0 0 20 20" fill="none" xmlns="http://www.w3.org/2000/svg">
<rect width="20" height="20" fill="white" fill-opacity="0.01"/>
<path d="M15.1042 7.5C15.6918 7.5 16.1761 9.44937 16.2423 10.1491L16.25 10.3132V15.9371C16.25 17.4212 15.3157 18.635 14.1294 18.7423L13.9583 18.75H4.79167C3.58292 18.75 2.59371 17.6036 2.50628 16.1472L2.5 15.9371V10.3132C2.5 9.53614 3.01301 7.5 3.64583 7.5C4.23346 7.5 4.71777 9.44937 4.78396 10.1491L4.79167 10.3132V15.935L13.9583 15.9362V10.3132C13.9583 9.53614 14.4713 7.5 15.1042 7.5Z" fill="#134FAE"/>
<rect x="1.25" y="6.25" width="16.25" height="2.5" rx="1.25" fill="#134FAE"/>
<rect x="6.25" y="15" width="5" height="1.25" rx="0.625" transform="rotate(-90 6.25 15)" fill="#134FAE"/>
<rect x="11.25" y="15" width="5" height="1.25" rx="0.625" transform="rotate(-90 11.25 15)" fill="#134FAE"/>
<rect x="8.75" y="15" width="3.75" height="1.25" rx="0.625" transform="rotate(-90 8.75 15)" fill="#134FAE"/>
<path d="M6 5.6133C6 5.24468 6.22945 4.91502 6.57512 4.78699L8.22962 4.17421C8.97025 3.89991 9.78304 3.8907 10.5297 4.14817L12.3985 4.79257C12.7584 4.9167 13 5.25553 13 5.63629C13 6.27967 12.3399 6.71168 11.7503 6.45415L10.1384 5.75011C9.65319 5.53817 9.10017 5.5456 8.62082 5.77048L7.25541 6.41104C6.67107 6.68518 6 6.25875 6 5.6133Z" fill="#134FAE"/>
</svg>
