<svg width="205" height="279" viewBox="0 0 205 279" fill="none" xmlns="http://www.w3.org/2000/svg">
<rect width="101.297" height="200.457" rx="14" fill="url(#paint0_linear_2108_6546)"/>
<path d="M6.07967 51.0605H95.3336C95.5257 51.0605 95.7099 50.9844 95.8457 50.8489C95.9815 50.7135 96.0578 50.5297 96.0578 50.3381C96.0579 50.1447 95.9822 49.9589 95.8469 49.8203C95.7116 49.6817 95.5275 49.6013 95.3336 49.5962H6.07967C5.88582 49.6013 5.70164 49.6817 5.56636 49.8203C5.43107 49.9589 5.3554 50.1447 5.35547 50.3381C5.35547 50.5297 5.43176 50.7135 5.56758 50.8489C5.7034 50.9844 5.8876 51.0605 6.07967 51.0605Z" fill="#A8AFB3"/>
<path d="M27.2519 42.6265V37.5585L28.0429 37.3345V42.6265H27.2519ZM29.1086 42.6265L30.8376 40.4635C30.9309 40.3421 31.0359 40.1951 31.1526 40.0225C31.2739 39.8451 31.3789 39.6631 31.4676 39.4765C31.5609 39.2851 31.6076 39.1078 31.6076 38.9445C31.6076 38.6878 31.5376 38.4895 31.3976 38.3495C31.2623 38.2095 31.0569 38.1395 30.7816 38.1395C30.5903 38.1395 30.4293 38.1815 30.2986 38.2655C30.1679 38.3495 30.0606 38.4475 29.9766 38.5595C29.8973 38.6715 29.8343 38.7718 29.7876 38.8605L29.1366 38.5105C29.2253 38.3425 29.3396 38.1745 29.4796 38.0065C29.6243 37.8338 29.8039 37.6891 30.0186 37.5725C30.2333 37.4558 30.4946 37.3975 30.8026 37.3975C31.1573 37.3975 31.4536 37.4605 31.6916 37.5865C31.9296 37.7125 32.1069 37.8851 32.2236 38.1045C32.3449 38.3238 32.4056 38.5735 32.4056 38.8535C32.4056 39.1521 32.3309 39.4578 32.1816 39.7705C32.0369 40.0831 31.8316 40.4028 31.5656 40.7295L30.6136 41.9335H32.6086V42.6265H29.1086ZM34.8436 42.7315C34.6522 42.7315 34.4539 42.7105 34.2486 42.6685C34.0432 42.6311 33.8542 42.5775 33.6816 42.5075C33.5136 42.4375 33.3829 42.3581 33.2896 42.2695L33.6186 41.6045C33.7399 41.6978 33.9079 41.7911 34.1226 41.8845C34.3372 41.9731 34.5659 42.0175 34.8086 42.0175C35.0139 42.0175 35.2076 41.9918 35.3896 41.9405C35.5716 41.8845 35.7186 41.7865 35.8306 41.6465C35.9472 41.5018 36.0056 41.3011 36.0056 41.0445C36.0056 40.7691 35.8959 40.5475 35.6766 40.3795C35.4619 40.2115 35.1702 40.1275 34.8016 40.1275C34.6896 40.1275 34.5752 40.1321 34.4586 40.1415C34.3419 40.1461 34.2392 40.1555 34.1506 40.1695L35.4386 38.1675H33.5066V37.4815H36.8316L35.3756 39.5605C35.6789 39.5698 35.9402 39.6398 36.1596 39.7705C36.3836 39.9011 36.5562 40.0738 36.6776 40.2885C36.7989 40.4985 36.8596 40.7318 36.8596 40.9885C36.8596 41.3198 36.7802 41.6185 36.6216 41.8845C36.4676 42.1458 36.2389 42.3535 35.9356 42.5075C35.6369 42.6568 35.2729 42.7315 34.8436 42.7315ZM39.7893 42.6265V41.3385H37.4373L38.9143 37.3065L39.6423 37.5795L38.5293 40.6035H39.7893L39.8313 39.4345H40.6083V40.6035H41.3223V41.3385H40.6083V42.6265H39.7893ZM43.4056 42.7315C43.0976 42.7315 42.8129 42.6918 42.5516 42.6125C42.2949 42.5331 42.0779 42.4165 41.9006 42.2625L42.2576 41.6045C42.2996 41.6371 42.3719 41.6861 42.4746 41.7515C42.5819 41.8121 42.7126 41.8681 42.8666 41.9195C43.0253 41.9708 43.1979 41.9965 43.3846 41.9965C43.6973 41.9965 43.9563 41.9078 44.1616 41.7305C44.3669 41.5531 44.4696 41.3081 44.4696 40.9955C44.4696 40.8228 44.4323 40.6618 44.3576 40.5125C44.2876 40.3585 44.1663 40.2348 43.9936 40.1415C43.8256 40.0435 43.5946 39.9945 43.3006 39.9945C43.1606 39.9945 43.0136 40.0038 42.8596 40.0225C42.7103 40.0365 42.5726 40.0575 42.4466 40.0855C42.3206 40.1135 42.2249 40.1461 42.1596 40.1835L42.2646 37.4815H44.9036V38.1675H43.0276L42.9576 39.3855C43.0229 39.3668 43.1023 39.3528 43.1956 39.3435C43.2936 39.3341 43.4103 39.3295 43.5456 39.3295C44.0869 39.3295 44.5116 39.4718 44.8196 39.7565C45.1323 40.0365 45.2886 40.4238 45.2886 40.9185C45.2886 41.2731 45.2139 41.5881 45.0646 41.8635C44.9199 42.1341 44.7076 42.3465 44.4276 42.5005C44.1476 42.6545 43.8069 42.7315 43.4056 42.7315ZM47.8047 42.7315C47.4874 42.7315 47.1981 42.6638 46.9367 42.5285C46.6754 42.3885 46.4677 42.1925 46.3137 41.9405C46.1597 41.6838 46.0827 41.3781 46.0827 41.0235C46.0827 40.8881 46.0921 40.7551 46.1107 40.6245C46.1341 40.4938 46.1784 40.3445 46.2437 40.1765C46.3091 40.0085 46.4047 39.8008 46.5307 39.5535C46.6614 39.3015 46.8317 38.9958 47.0417 38.6365C47.2517 38.2725 47.5154 37.8291 47.8327 37.3065L48.5047 37.6985C48.2527 38.0811 48.0521 38.3915 47.9027 38.6295C47.7534 38.8675 47.6391 39.0541 47.5597 39.1895C47.4851 39.3201 47.4314 39.4158 47.3987 39.4765C47.3661 39.5371 47.3381 39.5791 47.3147 39.6025C47.3847 39.5371 47.4804 39.4835 47.6017 39.4415C47.7277 39.3948 47.8771 39.3715 48.0497 39.3715C48.3717 39.3715 48.6494 39.4461 48.8827 39.5955C49.1161 39.7448 49.2957 39.9431 49.4217 40.1905C49.5477 40.4331 49.6107 40.6945 49.6107 40.9745C49.6107 41.3478 49.5337 41.6651 49.3797 41.9265C49.2257 42.1878 49.0111 42.3885 48.7357 42.5285C48.4651 42.6638 48.1547 42.7315 47.8047 42.7315ZM47.8537 42.0455C48.1524 42.0455 48.3857 41.9521 48.5537 41.7655C48.7217 41.5741 48.8057 41.3338 48.8057 41.0445C48.8057 40.7271 48.7147 40.4821 48.5327 40.3095C48.3554 40.1321 48.1361 40.0435 47.8747 40.0435C47.5761 40.0435 47.3357 40.1345 47.1537 40.3165C46.9764 40.4938 46.8877 40.7411 46.8877 41.0585C46.8877 41.3431 46.9787 41.5788 47.1607 41.7655C47.3474 41.9521 47.5784 42.0455 47.8537 42.0455ZM50.4921 42.6265L52.2071 38.1675H49.8131V37.4815H53.1941L51.3881 42.6265H50.4921ZM55.3724 42.7315C55.0504 42.7315 54.7541 42.6661 54.4834 42.5355C54.2128 42.4048 53.9958 42.2205 53.8324 41.9825C53.6738 41.7445 53.5944 41.4645 53.5944 41.1425C53.5944 40.9045 53.6341 40.7015 53.7134 40.5335C53.7928 40.3608 53.8954 40.2185 54.0214 40.1065C54.1521 39.9945 54.2874 39.9081 54.4274 39.8475C54.2548 39.7448 54.1078 39.6048 53.9864 39.4275C53.8698 39.2455 53.8114 39.0331 53.8114 38.7905C53.8114 38.5011 53.8791 38.2538 54.0144 38.0485C54.1544 37.8385 54.3411 37.6775 54.5744 37.5655C54.8124 37.4535 55.0784 37.3975 55.3724 37.3975C55.6711 37.3975 55.9371 37.4535 56.1704 37.5655C56.4038 37.6775 56.5881 37.8385 56.7234 38.0485C56.8634 38.2538 56.9334 38.4965 56.9334 38.7765C56.9334 39.0425 56.8704 39.2641 56.7444 39.4415C56.6184 39.6188 56.4668 39.7565 56.2894 39.8545C56.4341 39.9151 56.5718 40.0015 56.7024 40.1135C56.8331 40.2255 56.9404 40.3655 57.0244 40.5335C57.1084 40.7015 57.1504 40.9045 57.1504 41.1425C57.1504 41.4645 57.0688 41.7445 56.9054 41.9825C56.7421 42.2205 56.5251 42.4048 56.2544 42.5355C55.9884 42.6661 55.6944 42.7315 55.3724 42.7315ZM55.3724 39.5255C55.5124 39.5255 55.6384 39.4905 55.7504 39.4205C55.8671 39.3505 55.9604 39.2571 56.0304 39.1405C56.1004 39.0238 56.1354 38.8955 56.1354 38.7555C56.1354 38.5361 56.0654 38.3588 55.9254 38.2235C55.7854 38.0835 55.6011 38.0135 55.3724 38.0135C55.1391 38.0135 54.9524 38.0835 54.8124 38.2235C54.6724 38.3588 54.6024 38.5361 54.6024 38.7555C54.6024 38.9701 54.6724 39.1521 54.8124 39.3015C54.9571 39.4508 55.1438 39.5255 55.3724 39.5255ZM55.3724 42.0455C55.6758 42.0455 55.9138 41.9568 56.0864 41.7795C56.2638 41.6021 56.3524 41.3828 56.3524 41.1215C56.3524 40.8508 56.2591 40.6291 56.0724 40.4565C55.8858 40.2838 55.6524 40.1975 55.3724 40.1975C55.0924 40.1975 54.8568 40.2838 54.6654 40.4565C54.4788 40.6245 54.3854 40.8461 54.3854 41.1215C54.3854 41.3828 54.4741 41.6021 54.6514 41.7795C54.8288 41.9568 55.0691 42.0455 55.3724 42.0455ZM58.8975 42.6265L59.8005 41.0515C59.8519 40.9628 59.9125 40.8601 59.9825 40.7435C60.0525 40.6268 60.1085 40.5451 60.1505 40.4985C60.0852 40.5591 59.9942 40.6128 59.8775 40.6595C59.7609 40.7061 59.6022 40.7295 59.4015 40.7295C59.0889 40.7295 58.8135 40.6571 58.5755 40.5125C58.3375 40.3631 58.1509 40.1648 58.0155 39.9175C57.8849 39.6655 57.8195 39.3855 57.8195 39.0775C57.8195 38.7415 57.8965 38.4475 58.0505 38.1955C58.2045 37.9435 58.4192 37.7475 58.6945 37.6075C58.9699 37.4675 59.2919 37.3975 59.6605 37.3975C59.9779 37.3975 60.2649 37.4675 60.5215 37.6075C60.7829 37.7428 60.9905 37.9388 61.1445 38.1955C61.2985 38.4475 61.3755 38.7531 61.3755 39.1125C61.3755 39.2291 61.3685 39.3458 61.3545 39.4625C61.3405 39.5745 61.3055 39.7098 61.2495 39.8685C61.1982 40.0225 61.1142 40.2161 60.9975 40.4495C60.8855 40.6828 60.7339 40.9768 60.5425 41.3315C60.3512 41.6815 60.1062 42.1131 59.8075 42.6265H58.8975ZM59.5905 40.0575C59.8659 40.0575 60.0969 39.9735 60.2835 39.8055C60.4749 39.6375 60.5705 39.3995 60.5705 39.0915C60.5705 38.7928 60.4795 38.5501 60.2975 38.3635C60.1155 38.1721 59.8869 38.0765 59.6115 38.0765C59.3082 38.0765 59.0679 38.1721 58.8905 38.3635C58.7132 38.5548 58.6245 38.7951 58.6245 39.0845C58.6245 39.2945 58.6689 39.4718 58.7575 39.6165C58.8509 39.7611 58.9699 39.8708 59.1145 39.9455C59.2639 40.0201 59.4225 40.0575 59.5905 40.0575ZM64.0202 42.7315C63.6796 42.7315 63.3902 42.6615 63.1522 42.5215C62.9142 42.3815 62.7206 42.1901 62.5712 41.9475C62.4219 41.7001 62.3122 41.4155 62.2422 41.0935C62.1769 40.7668 62.1442 40.4215 62.1442 40.0575C62.1442 39.6795 62.1769 39.3295 62.2422 39.0075C62.3076 38.6855 62.4126 38.4055 62.5572 38.1675C62.7019 37.9248 62.8932 37.7358 63.1312 37.6005C63.3739 37.4651 63.6702 37.3975 64.0202 37.3975C64.4869 37.3975 64.8556 37.5118 65.1262 37.7405C65.3969 37.9691 65.5906 38.2841 65.7072 38.6855C65.8286 39.0821 65.8892 39.5395 65.8892 40.0575C65.8892 40.5568 65.8262 41.0095 65.7002 41.4155C65.5789 41.8215 65.3806 42.1435 65.1052 42.3815C64.8346 42.6148 64.4729 42.7315 64.0202 42.7315ZM64.0202 42.0175C64.2302 42.0175 64.4006 41.9615 64.5312 41.8495C64.6666 41.7375 64.7692 41.5858 64.8392 41.3945C64.9139 41.2031 64.9652 40.9931 64.9932 40.7645C65.0212 40.5311 65.0352 40.2955 65.0352 40.0575C65.0352 39.7961 65.0212 39.5488 64.9932 39.3155C64.9652 39.0821 64.9139 38.8745 64.8392 38.6925C64.7692 38.5105 64.6666 38.3681 64.5312 38.2655C64.4006 38.1581 64.2302 38.1045 64.0202 38.1045C63.8102 38.1045 63.6376 38.1581 63.5022 38.2655C63.3669 38.3681 63.2619 38.5105 63.1872 38.6925C63.1172 38.8745 63.0682 39.0821 63.0402 39.3155C63.0122 39.5488 62.9982 39.7961 62.9982 40.0575C62.9982 40.2955 63.0122 40.5311 63.0402 40.7645C63.0682 40.9931 63.1172 41.2031 63.1872 41.3945C63.2619 41.5811 63.3669 41.7328 63.5022 41.8495C63.6376 41.9615 63.8102 42.0175 64.0202 42.0175ZM66.9619 42.6265V37.5585L67.7529 37.3345V42.6265H66.9619ZM68.8186 42.6265L70.5476 40.4635C70.6409 40.3421 70.7459 40.1951 70.8626 40.0225C70.9839 39.8451 71.0889 39.6631 71.1776 39.4765C71.2709 39.2851 71.3176 39.1078 71.3176 38.9445C71.3176 38.6878 71.2476 38.4895 71.1076 38.3495C70.9722 38.2095 70.7669 38.1395 70.4916 38.1395C70.3002 38.1395 70.1392 38.1815 70.0086 38.2655C69.8779 38.3495 69.7706 38.4475 69.6866 38.5595C69.6072 38.6715 69.5442 38.7718 69.4976 38.8605L68.8466 38.5105C68.9352 38.3425 69.0496 38.1745 69.1896 38.0065C69.3342 37.8338 69.5139 37.6891 69.7286 37.5725C69.9432 37.4558 70.2046 37.3975 70.5126 37.3975C70.8672 37.3975 71.1636 37.4605 71.4016 37.5865C71.6396 37.7125 71.8169 37.8851 71.9336 38.1045C72.0549 38.3238 72.1156 38.5735 72.1156 38.8535C72.1156 39.1521 72.0409 39.4578 71.8916 39.7705C71.7469 40.0831 71.5416 40.4028 71.2756 40.7295L70.3236 41.9335H72.3186V42.6265H68.8186ZM74.5535 42.7315C74.3622 42.7315 74.1639 42.7105 73.9585 42.6685C73.7532 42.6311 73.5642 42.5775 73.3915 42.5075C73.2235 42.4375 73.0929 42.3581 72.9995 42.2695L73.3285 41.6045C73.4499 41.6978 73.6179 41.7911 73.8325 41.8845C74.0472 41.9731 74.2759 42.0175 74.5185 42.0175C74.7239 42.0175 74.9175 41.9918 75.0995 41.9405C75.2815 41.8845 75.4285 41.7865 75.5405 41.6465C75.6572 41.5018 75.7155 41.3011 75.7155 41.0445C75.7155 40.7691 75.6059 40.5475 75.3865 40.3795C75.1719 40.2115 74.8802 40.1275 74.5115 40.1275C74.3995 40.1275 74.2852 40.1321 74.1685 40.1415C74.0519 40.1461 73.9492 40.1555 73.8605 40.1695L75.1485 38.1675H73.2165V37.4815H76.5415L75.0855 39.5605C75.3889 39.5698 75.6502 39.6398 75.8695 39.7705C76.0935 39.9011 76.2662 40.0738 76.3875 40.2885C76.5089 40.4985 76.5695 40.7318 76.5695 40.9885C76.5695 41.3198 76.4902 41.6185 76.3315 41.8845C76.1775 42.1458 75.9489 42.3535 75.6455 42.5075C75.3469 42.6568 74.9829 42.7315 74.5535 42.7315Z" fill="black"/>
<path d="M30.0539 23.8366C29.4672 23.8366 28.9439 23.7366 28.4839 23.5366C28.0305 23.3366 27.6439 23.0633 27.3239 22.7166C27.0105 22.3633 26.7705 21.9633 26.6039 21.5166C26.4439 21.0633 26.3639 20.5833 26.3639 20.0766C26.3639 19.5233 26.4539 19.0166 26.6339 18.5566C26.8205 18.0966 27.0805 17.6999 27.4139 17.3666C27.7472 17.0266 28.1439 16.7633 28.6039 16.5766C29.0639 16.3899 29.5705 16.2966 30.1239 16.2966C30.4839 16.2966 30.8039 16.3333 31.0839 16.4066C31.3639 16.4799 31.5939 16.5633 31.7739 16.6566C31.9539 16.7433 32.0672 16.8133 32.1139 16.8666L31.6239 17.8666C31.4439 17.7066 31.2205 17.5766 30.9539 17.4766C30.6939 17.3766 30.3872 17.3266 30.0339 17.3266C29.5739 17.3266 29.1572 17.4399 28.7839 17.6666C28.4172 17.8933 28.1239 18.2133 27.9039 18.6266C27.6905 19.0399 27.5839 19.5299 27.5839 20.0966C27.5839 20.5966 27.6772 21.0533 27.8639 21.4666C28.0505 21.8733 28.3239 22.1999 28.6839 22.4466C29.0505 22.6933 29.4939 22.8166 30.0139 22.8166C30.3005 22.8166 30.5805 22.7799 30.8539 22.7066C31.1339 22.6266 31.4205 22.4966 31.7139 22.3166L32.0439 23.2666C31.9572 23.3466 31.8105 23.4333 31.6039 23.5266C31.3972 23.6133 31.1572 23.6866 30.8839 23.7466C30.6172 23.8066 30.3405 23.8366 30.0539 23.8366ZM35.738 23.8666C35.098 23.8666 34.5847 23.7366 34.198 23.4766C33.818 23.2166 33.5413 22.8433 33.368 22.3566C33.2013 21.8699 33.118 21.2933 33.118 20.6266V16.4166H34.238V20.6466C34.238 21.4266 34.3547 21.9866 34.588 22.3266C34.828 22.6599 35.2113 22.8266 35.738 22.8266C36.2647 22.8266 36.6447 22.6633 36.878 22.3366C37.1113 22.0099 37.228 21.4466 37.228 20.6466V16.4166H38.358V20.6266C38.358 21.6533 38.1447 22.4499 37.718 23.0166C37.2913 23.5833 36.6313 23.8666 35.738 23.8666ZM39.1291 23.7666L42.8091 17.3766H39.5991V16.4166H44.5691L40.9391 22.7866H44.4191V23.7666H39.1291ZM45.6885 23.7666V16.4166H47.4585C48.1185 16.4166 48.6785 16.4899 49.1385 16.6366C49.6051 16.7833 49.9885 16.9799 50.2885 17.2266C50.5885 17.4666 50.8218 17.7433 50.9885 18.0566C51.1618 18.3633 51.2818 18.6833 51.3485 19.0166C51.4151 19.3433 51.4485 19.6599 51.4485 19.9666C51.4485 20.4266 51.3818 20.8833 51.2485 21.3366C51.1218 21.7833 50.9085 22.1899 50.6085 22.5566C50.3085 22.9233 49.9051 23.2166 49.3985 23.4366C48.8985 23.6566 48.2718 23.7666 47.5185 23.7666H45.6885ZM46.8085 22.7766H47.6385C48.1318 22.7766 48.5451 22.6999 48.8785 22.5466C49.2185 22.3933 49.4885 22.1866 49.6885 21.9266C49.8951 21.6599 50.0418 21.3633 50.1285 21.0366C50.2218 20.7033 50.2685 20.3633 50.2685 20.0166C50.2685 19.5433 50.1851 19.1099 50.0185 18.7166C49.8518 18.3166 49.5751 17.9966 49.1885 17.7566C48.8085 17.5166 48.2918 17.3966 47.6385 17.3966H46.8085V22.7766ZM54.8505 16.4066H54.9605L58.5005 23.7666H57.2105L56.5805 22.3266H53.2105L52.5805 23.7666H51.3305L54.8505 16.4066ZM54.9005 18.5366L54.4605 19.5366L53.6605 21.3166H56.1405L55.3505 19.5466L54.9205 18.5366H54.9005ZM64.4672 23.7666L60.1672 19.0066L60.1972 19.8066V23.7666H59.0772V16.4066H59.2172L63.5372 21.2266L63.4972 20.3866V16.4166H64.6172V23.7666H64.4672ZM68.7579 23.7666V16.4166H69.8779V23.7666H68.7579ZM71.3818 23.7666V16.4166H73.1518C73.8118 16.4166 74.3718 16.4899 74.8318 16.6366C75.2985 16.7833 75.6818 16.9799 75.9818 17.2266C76.2818 17.4666 76.5152 17.7433 76.6818 18.0566C76.8552 18.3633 76.9752 18.6833 77.0418 19.0166C77.1085 19.3433 77.1418 19.6599 77.1418 19.9666C77.1418 20.4266 77.0752 20.8833 76.9418 21.3366C76.8152 21.7833 76.6018 22.1899 76.3018 22.5566C76.0018 22.9233 75.5985 23.2166 75.0918 23.4366C74.5918 23.6566 73.9652 23.7666 73.2118 23.7666H71.3818ZM72.5018 22.7766H73.3318C73.8252 22.7766 74.2385 22.6999 74.5718 22.5466C74.9118 22.3933 75.1818 22.1866 75.3818 21.9266C75.5885 21.6599 75.7352 21.3633 75.8218 21.0366C75.9152 20.7033 75.9618 20.3633 75.9618 20.0166C75.9618 19.5433 75.8785 19.1099 75.7118 18.7166C75.5452 18.3166 75.2685 17.9966 74.8818 17.7566C74.5018 17.5166 73.9852 17.3966 73.3318 17.3966H72.5018V22.7766Z" fill="black"/>
<path d="M95.2329 31.8164H5.97899C5.80489 31.8449 5.64661 31.9341 5.5324 32.0683C5.41818 32.2024 5.35547 32.3726 5.35547 32.5486C5.35547 32.7245 5.41818 32.8948 5.5324 33.0289C5.64661 33.163 5.80489 33.2523 5.97899 33.2807H95.2329C95.407 33.2523 95.5653 33.163 95.6795 33.0289C95.7937 32.8948 95.8565 32.7245 95.8565 32.5486C95.8565 32.3726 95.7937 32.2024 95.6795 32.0683C95.5653 31.9341 95.407 31.8449 95.2329 31.8164Z" fill="#A8AFB3"/>
<path d="M87.883 0H14.1325C10.3857 0.00431332 6.79352 1.49094 4.1441 4.13374C1.49468 6.77655 0.00432412 10.3597 0 14.0972V186.849C0.00432412 190.587 1.49468 194.17 4.1441 196.812C6.79352 199.455 10.3857 200.942 14.1325 200.946H87.883C91.6298 200.942 95.222 199.455 97.8714 196.812C100.521 194.17 102.011 190.587 102.015 186.849V14.0972C102.011 10.3597 100.521 6.77655 97.8714 4.13374C95.222 1.49094 91.6298 0.00431332 87.883 0ZM100.79 186.816C100.79 190.231 99.4303 193.506 97.0097 195.92C94.5892 198.335 91.3062 199.691 87.883 199.691H14.1325C10.7093 199.691 7.42634 198.335 5.00578 195.92C2.58522 193.506 1.22536 190.231 1.22536 186.816V14.0646C1.22536 10.65 2.58522 7.37519 5.00578 4.96067C7.42634 2.54616 10.7093 1.1897 14.1325 1.1897H87.883C91.3062 1.1897 94.5892 2.54616 97.0097 4.96067C99.4303 7.37519 100.79 10.65 100.79 14.0646V186.816Z" fill="#3D4040"/>
<path d="M13.7568 108.996H88.2589C88.4192 108.996 88.573 108.932 88.6863 108.819C88.7997 108.706 88.8634 108.553 88.8634 108.393C88.8635 108.231 88.8003 108.076 88.6874 107.96C88.5745 107.845 88.4207 107.778 88.2589 107.773H13.7568C13.595 107.778 13.4413 107.845 13.3284 107.96C13.2155 108.076 13.1523 108.231 13.1523 108.393C13.1523 108.553 13.216 108.706 13.3294 108.819C13.4428 108.932 13.5965 108.996 13.7568 108.996Z" fill="#A8AFB3"/>
<path d="M13.7568 108.996H88.2589C88.4192 108.996 88.573 108.932 88.6863 108.819C88.7997 108.706 88.8634 108.553 88.8634 108.393C88.8634 108.231 88.8003 108.076 88.6874 107.96C88.5744 107.845 88.4207 107.778 88.2589 107.773H13.7568C13.595 107.778 13.4413 107.845 13.3284 107.96C13.2155 108.076 13.1523 108.231 13.1523 108.393C13.1523 108.553 13.216 108.706 13.3294 108.819C13.4428 108.932 13.5965 108.996 13.7568 108.996Z" fill="#A8AFB3"/>
<path d="M13.3804 101.976H87.8824C88.0427 101.976 88.1965 101.913 88.3099 101.8C88.4232 101.687 88.4869 101.533 88.4869 101.373C88.487 101.212 88.4238 101.057 88.3109 100.941C88.198 100.825 88.0442 100.758 87.8824 100.754H13.3804C13.2186 100.758 13.0648 100.825 12.9519 100.941C12.839 101.057 12.7758 101.212 12.7759 101.373C12.7759 101.533 12.8396 101.687 12.9529 101.8C13.0663 101.913 13.2201 101.976 13.3804 101.976Z" fill="#A8AFB3"/>
<path d="M13.3804 94.5553H87.8824C88.0427 94.5553 88.1965 94.4918 88.3099 94.3787C88.4232 94.2656 88.4869 94.1122 88.4869 93.9523C88.487 93.7909 88.4238 93.6357 88.3109 93.5201C88.198 93.4044 88.0442 93.3373 87.8824 93.333H13.3804C13.2186 93.3373 13.0648 93.4044 12.9519 93.5201C12.839 93.6357 12.7758 93.7909 12.7759 93.9523C12.7759 94.1122 12.8396 94.2656 12.9529 94.3787C13.0663 94.4918 13.2201 94.5553 13.3804 94.5553Z" fill="#A8AFB3"/>
<path d="M88.2588 114.651H13.7568C13.6115 114.675 13.4794 114.749 13.384 114.861C13.2887 114.973 13.2363 115.115 13.2363 115.262C13.2363 115.409 13.2887 115.551 13.384 115.663C13.4794 115.775 13.6115 115.849 13.7568 115.873H88.2588C88.4041 115.849 88.5363 115.775 88.6316 115.663C88.7269 115.551 88.7793 115.409 88.7793 115.262C88.7793 115.115 88.7269 114.973 88.6316 114.861C88.5363 114.749 88.4041 114.675 88.2588 114.651Z" fill="#A8AFB3"/>
<path d="M61.6767 121.496H13.7568C13.5965 121.496 13.4428 121.559 13.3294 121.672C13.216 121.785 13.1523 121.939 13.1523 122.099C13.1523 122.26 13.2155 122.415 13.3284 122.531C13.4413 122.647 13.595 122.714 13.7568 122.718H61.6767C61.8385 122.714 61.9922 122.647 62.1052 122.531C62.2181 122.415 62.2813 122.26 62.2812 122.099C62.2812 121.939 62.2175 121.785 62.1041 121.672C61.9908 121.559 61.837 121.496 61.6767 121.496Z" fill="#A8AFB3"/>
<path d="M64.6497 179.45H37.3486C37.1883 179.45 37.0346 179.513 36.9212 179.627C36.8078 179.74 36.7441 179.893 36.7441 180.053C36.7441 180.214 36.8073 180.369 36.9202 180.485C37.0331 180.601 37.1868 180.668 37.3486 180.672H64.6497C64.8144 180.672 64.9723 180.607 65.0887 180.491C65.2051 180.375 65.2706 180.217 65.2706 180.053C65.2706 179.972 65.2544 179.893 65.223 179.818C65.1916 179.744 65.1456 179.677 65.0878 179.621C65.0299 179.564 64.9613 179.52 64.8861 179.491C64.8108 179.462 64.7305 179.448 64.6497 179.45Z" fill="#3D4040"/>
<path d="M130.999 266.788C130.095 267.362 129.137 267.847 128.14 268.239C126.229 268.767 124.382 269.505 122.634 270.439C121.766 270.923 121.08 271.678 120.682 272.587C120.284 273.496 120.195 274.51 120.428 275.475C121.327 277.903 127.176 278.131 127.176 278.131H160.032C160.486 274.57 160.644 270.978 160.506 267.391C159.904 257.715 158.26 248.131 155.604 238.806C152.337 238.806 137.387 241.087 137.387 241.087C137.387 241.087 137.992 246.889 138.384 248.584C139.08 251.482 138.996 254.513 138.139 257.368C136.952 261.253 134.422 264.591 130.999 266.788Z" fill="#A79F9D"/>
<path d="M160.572 272.166C147.076 272.688 133.369 272.72 119.857 272.28C119.768 272.266 119.677 272.271 119.59 272.295C119.504 272.319 119.423 272.361 119.355 272.419C119.286 272.477 119.231 272.55 119.193 272.631C119.155 272.713 119.136 272.801 119.136 272.891C119.136 272.981 119.155 273.07 119.193 273.151C119.231 273.233 119.286 273.305 119.355 273.363C119.423 273.421 119.504 273.464 119.59 273.488C119.677 273.512 119.768 273.517 119.857 273.502C126.098 273.698 132.372 273.812 138.646 273.812C146.02 273.812 153.361 273.671 160.67 273.388C160.832 273.38 160.984 273.309 161.093 273.19C161.203 273.071 161.262 272.914 161.258 272.753C161.209 272.41 160.947 272.199 160.572 272.166Z" fill="#3D4040"/>
<path d="M167.123 262.273C167.12 263.105 166.924 263.925 166.551 264.669C165.526 266.08 164.153 267.203 162.565 267.929C157.059 270.862 157.974 278.212 157.974 278.212H193.542C193.542 278.212 194.114 272.785 190.961 269.314C189.213 267.407 186.974 266.706 186.876 263.659C186.647 256.586 186.876 241.087 186.876 241.087L166.993 241.625C167.466 241.527 167.123 261.98 167.123 262.273Z" fill="#A79F9D"/>
<path d="M194.408 272.59C189.715 267.805 183.424 264.905 176.73 264.441C173.012 264.211 169.287 264.767 165.8 266.071C166.305 265.56 166.724 264.971 167.041 264.327C167.94 262.502 167.842 256.879 167.63 249.122C167.531 245.944 167.45 242.929 167.548 241.332C167.557 241.17 167.502 241.011 167.395 240.889C167.288 240.767 167.138 240.692 166.976 240.68C166.814 240.671 166.655 240.725 166.533 240.832C166.41 240.939 166.335 241.089 166.322 241.25C166.224 242.88 166.322 245.797 166.404 249.154C166.551 254.614 166.764 262.111 165.947 263.822C165.189 265.195 164.056 266.325 162.679 267.081C161.602 267.76 160.619 268.576 159.754 269.51C157.418 272.182 157.075 274.399 157.222 278.261C157.222 278.34 157.238 278.417 157.268 278.49C157.299 278.562 157.344 278.627 157.4 278.682C157.456 278.737 157.523 278.78 157.597 278.808C157.67 278.837 157.748 278.85 157.827 278.848C157.907 278.848 157.986 278.832 158.06 278.8C158.133 278.769 158.199 278.723 158.255 278.665C158.31 278.607 158.352 278.538 158.38 278.463C158.407 278.388 158.419 278.308 158.415 278.229C158.3 274.969 158.627 273.177 159.787 271.449C159.837 271.426 159.882 271.393 159.918 271.351C163.087 267.652 170.097 265.256 176.615 265.647C183.003 266.067 189.014 268.81 193.509 273.356C193.627 273.47 193.785 273.534 193.95 273.535C194.069 273.534 194.185 273.498 194.283 273.432C194.382 273.366 194.458 273.272 194.504 273.162C194.549 273.053 194.561 272.932 194.538 272.816C194.515 272.7 194.459 272.593 194.375 272.508L194.408 272.59Z" fill="#3D4040"/>
<path d="M192.529 154.907C192.856 147.084 193.215 139.082 190.895 131.601C189.463 126.825 186.67 122.567 182.857 119.346C181.893 118.563 160.686 109.176 159.15 109.095C150.23 108.622 144.446 108.459 141.701 118.433C134.97 143.058 126.343 167.325 127.503 193.254C128.385 213.104 136.26 231.993 136.064 251.925C136.064 251.827 152.974 253.228 162.581 251.827C162.581 253 162.581 254.19 162.581 255.331C167.891 255.95 188.363 256.879 192.398 255.331C192.398 254.989 190.895 239.979 190.895 232.515C190.895 223.823 190.966 215.131 191.108 206.439C191.282 189.261 191.756 172.084 192.529 154.907ZM160.065 220.813C158.056 212.827 155.997 204.711 155.605 196.481C155.49 194.489 155.49 192.492 155.605 190.5C155.938 186.003 156.71 181.549 157.908 177.201C158.448 175.18 159.068 173.176 159.706 171.171C159.706 171.954 159.82 172.703 159.853 173.486C160.555 187.599 161.241 200.555 161.96 214.669C162.205 219.672 162.369 224.969 162.45 230.347C161.699 227.071 160.817 223.844 160.065 220.813Z" fill="#31268F"/>
<path d="M155.703 58.573C157.745 57.6277 168.022 58.8827 172.515 59.7627C177.416 60.7243 183.233 61.4739 185.749 65.8579C187.938 69.7204 189.784 120.03 191.565 119.737C182.216 121.545 172.675 122.164 163.169 121.579C154.38 120.796 142.355 119.313 140.982 117.178C140.41 116.282 141.57 107.742 141.962 105.037C143.253 96.0569 142.044 87.8593 144.054 79.2054C145.835 71.4316 151.831 60.3657 155.703 58.573Z" fill="#134FAE"/>
<path d="M170.05 29.7625C171.939 29.6231 173.836 29.9019 175.596 30.5774C177.356 31.253 178.934 32.3076 180.208 33.6611C181.483 35.0145 182.422 36.631 182.952 38.3876C183.483 40.1443 183.592 41.9947 183.271 43.7982C181.32 52.9214 168.743 54.6658 162.787 47.8084C161.811 46.673 161.078 45.3614 160.632 43.9499C160.185 42.5384 160.034 41.0552 160.187 39.5866C160.339 38.1181 160.792 36.6935 161.52 35.3959C162.248 34.0983 163.236 32.9535 164.426 32.0282C166.045 30.781 167.994 29.9962 170.05 29.7625Z" fill="#E8B7B4"/>
<path d="M165.594 29.1681C165.585 29.2866 165.585 29.4055 165.594 29.524C163.947 36.6419 175.093 39.1134 179.972 39.0343C178.491 42.4819 178.419 46.3702 179.774 49.8693C181.985 47.9588 183.527 45.3935 184.172 42.5479C184.818 39.7023 184.535 36.7254 183.363 34.0518C181.38 29.702 176.065 25.3521 171.047 25.4905C169.871 25.4788 168.719 25.8244 167.745 26.4814C166.771 27.1383 166.02 28.0755 165.594 29.1681Z" fill="#3D4040"/>
<path d="M187.971 158.557C177.743 150.18 175.636 136.817 175.636 136.817C175.636 136.817 178.707 128.505 179.965 123.469C182.494 113.613 182.206 103.248 179.132 93.5471C177.792 88.9207 175.573 84.5941 172.597 80.8026C169.623 77.2987 165.767 75.7342 167.287 70.0138C167.993 67.8082 169.335 65.8591 171.145 64.4099C172.956 62.9607 175.154 62.0756 177.465 61.8651C179.774 61.7078 182.092 62.0164 184.278 62.7724C186.465 63.5285 188.477 64.7164 190.193 66.2654C193.602 69.3999 196.303 73.222 198.117 77.478C204.323 91.3712 205.931 106.875 202.708 121.742C199.538 136.36 195.013 144.916 187.971 158.557Z" fill="#134FAE"/>
<path d="M116.192 79.5716C111.52 78.9034 106.847 72.8897 103.824 69.6139C99.6418 65.0995 96.5049 59.8355 92.6817 54.9463L76.2129 65.8492C83.1068 76.188 90.833 85.9497 99.3151 95.0378C102.338 98.2972 105.687 101.557 109.984 102.698C115.572 104.181 124.182 101.703 129.23 98.8839C137.399 94.3207 148.64 89.1055 155.371 82.3095C160.044 77.567 158.263 71.977 160.73 65.6699C162.854 60.194 159.864 57.3746 154.669 57.8635C151.956 58.2812 149.309 59.0482 146.794 60.1451C139.948 63.3068 120.146 80.142 116.192 79.5716Z" fill="#134FAE"/>
<path d="M156.601 138.528C156.521 138.534 156.442 138.556 156.371 138.593C156.3 138.631 156.237 138.682 156.186 138.745C156.136 138.808 156.098 138.88 156.077 138.958C156.056 139.035 156.051 139.116 156.062 139.196C160.207 177.973 162.128 216.955 161.813 255.95C161.811 256.031 161.825 256.111 161.854 256.186C161.884 256.261 161.928 256.329 161.984 256.387C162.041 256.445 162.108 256.491 162.182 256.522C162.257 256.553 162.337 256.57 162.418 256.57C162.579 256.57 162.735 256.507 162.851 256.394C162.967 256.281 163.034 256.128 163.038 255.967C163.356 216.922 161.431 177.891 157.271 139.066C157.265 138.985 157.243 138.907 157.205 138.836C157.168 138.765 157.116 138.702 157.053 138.652C156.99 138.601 156.918 138.564 156.84 138.543C156.762 138.522 156.681 138.516 156.601 138.528Z" fill="white"/>
<path d="M188.837 158.72C182.053 152.687 177.486 144.564 175.864 135.643C175.836 135.484 175.747 135.343 175.616 135.248C175.485 135.154 175.322 135.114 175.162 135.138C175.001 135.17 174.859 135.262 174.765 135.395C174.67 135.529 174.631 135.694 174.655 135.855C176.345 145.058 181.079 153.431 188.102 159.633C188.155 159.692 188.221 159.74 188.294 159.772C188.367 159.805 188.446 159.822 188.526 159.822C188.607 159.822 188.686 159.805 188.759 159.772C188.832 159.74 188.898 159.692 188.951 159.633C189.011 159.569 189.055 159.492 189.082 159.409C189.109 159.325 189.117 159.237 189.106 159.15C189.095 159.063 189.065 158.98 189.019 158.906C188.972 158.831 188.91 158.768 188.837 158.72Z" fill="white"/>
<path d="M178.07 127.723C178.018 127.878 178.03 128.048 178.103 128.195C178.177 128.341 178.306 128.453 178.462 128.505H178.658C178.786 128.504 178.91 128.462 179.013 128.386C179.116 128.31 179.191 128.203 179.23 128.081C183.807 114.154 183.426 99.078 178.151 85.3985C178.093 85.249 177.978 85.1281 177.832 85.0612C177.685 84.9943 177.519 84.9867 177.367 85.04C177.291 85.0672 177.222 85.1091 177.163 85.1634C177.104 85.2176 177.056 85.2831 177.023 85.3559C176.989 85.4287 176.971 85.5075 176.968 85.5876C176.965 85.6676 176.979 85.7474 177.008 85.8223C182.186 99.2508 182.561 114.05 178.07 127.723Z" fill="white"/>
<path d="M145.312 76.5653C145.164 76.498 144.996 76.4911 144.844 76.5459C144.691 76.6007 144.566 76.713 144.495 76.8587C142.24 81.7479 142.224 87.1097 142.208 92.2923C142.257 94.6313 142.17 96.9712 141.946 99.3001C141.928 99.462 141.974 99.6246 142.075 99.7528C142.176 99.8809 142.323 99.9642 142.486 99.9846C142.634 99.982 142.777 99.9263 142.888 99.8276C142.999 99.7289 143.071 99.5938 143.09 99.4468C143.312 97.0688 143.399 94.6801 143.351 92.2923C143.351 87.2401 143.351 82.0086 145.524 77.3802C145.603 77.2436 145.624 77.0819 145.584 76.9297C145.545 76.7774 145.447 76.6467 145.312 76.5653Z" fill="white"/>
<path d="M84.3002 46.6111C82.1592 43.3788 79.8411 40.2667 77.3565 37.2891C76.756 36.3977 75.9634 35.6516 75.0365 35.1052C74.5639 34.8469 74.0243 34.7367 73.488 34.7891C72.9517 34.8414 72.4437 35.0538 72.0303 35.3986C69.89 37.5987 73.223 41.3634 74.0889 43.3191C74.2415 43.5592 74.3357 43.8317 74.3641 44.1146C74.3925 44.3976 74.3542 44.6832 74.2523 44.9488C73.9092 45.5355 72.3407 44.7044 71.5238 45.4214C70.7069 46.1385 70.7886 47.7031 70.8376 48.6809C70.7287 51.2249 71.3952 53.742 72.7492 55.9006C74.1052 57.5304 76.2455 58.5082 77.863 59.9587C80.3901 62.8169 78.2283 60.2969 80.4469 63.3995L89.4443 57.5882C89.4443 57.5882 89.9369 57.84 88.7769 55.9006C87.581 53.8563 86.6582 52.8544 86.0321 50.5714C85.6467 49.1758 85.0636 47.8423 84.3002 46.6111Z" fill="#E8B7B4"/>
<path d="M174.116 58.7848C174.047 58.7444 173.97 58.7182 173.89 58.7077C173.81 58.6973 173.729 58.7029 173.651 58.7242C173.574 58.7454 173.501 58.7819 173.438 58.8315C173.375 58.8811 173.322 58.9428 173.283 59.013L167.238 69.6226C165.604 72.4909 163.97 75.3429 162.336 78.3416C161.536 71.4683 161.862 64.5109 163.3 57.7418C163.335 57.584 163.305 57.419 163.218 57.283C163.131 57.147 162.993 57.0511 162.835 57.0166C162.676 56.982 162.511 57.0115 162.375 57.0986C162.238 57.1857 162.142 57.3233 162.108 57.481C160.514 64.9832 160.259 72.707 161.356 80.2973C161.372 80.423 161.428 80.5402 161.517 80.6313C161.605 80.7223 161.721 80.7824 161.846 80.8025H161.961C162.069 80.8012 162.176 80.772 162.271 80.7178C162.365 80.6636 162.444 80.5862 162.5 80.4929L168.349 70.1767L174.394 59.5671C174.457 59.426 174.463 59.2663 174.411 59.1207C174.36 58.9752 174.254 58.855 174.116 58.7848Z" fill="white"/>
<path d="M80.1064 52.9996C78.783 50.6202 77.7047 49.0557 76.5774 47.377C75.8095 46.2688 74.9436 45.0791 74.045 43.5472C74.0032 43.4774 73.9478 43.4168 73.8819 43.369C73.8161 43.3212 73.7413 43.2871 73.662 43.2689C73.5826 43.2506 73.5004 43.2485 73.4202 43.2627C73.34 43.2769 73.2636 43.3072 73.1954 43.3516C73.0576 43.4388 72.9598 43.5766 72.9231 43.7352C72.8864 43.8938 72.9138 44.0605 72.9993 44.1991C73.9796 45.7473 74.7965 46.937 75.5644 48.0615C76.6754 49.6913 77.7374 51.321 79.0281 53.5863C79.0806 53.6837 79.1583 53.7653 79.2531 53.8226C79.348 53.88 79.4564 53.9109 79.5673 53.9123C79.6641 53.934 79.7646 53.934 79.8614 53.9123C79.9429 53.8739 80.015 53.8182 80.0728 53.7492C80.1305 53.6802 80.1725 53.5994 80.1958 53.5126C80.2192 53.4257 80.2232 53.3349 80.2078 53.2463C80.1924 53.1577 80.1578 53.0735 80.1064 52.9996Z" fill="#3D4040"/>
<path d="M114.51 0C97.5773 0 83.8398 7.86013 83.8398 17.5564C83.8398 24.0549 90.0134 29.7179 99.1752 32.7506V43.7362L108.223 34.7414C110.256 34.9889 112.352 35.1127 114.51 35.1127C131.454 35.1127 145.181 27.2526 145.181 17.546C145.181 7.8395 131.454 0 114.51 0Z" fill="white"/>
<path d="M98.6371 43.7362C98.585 43.7362 98.533 43.726 98.4913 43.7058C98.3456 43.645 98.2519 43.5132 98.2519 43.3511V32.8325C88.7578 29.6709 82.8657 23.8644 82.8657 17.6323C82.8657 7.90413 96.8465 0 114.023 0C131.21 0 145.181 7.91426 145.181 17.6323C145.181 27.3604 131.2 35.2646 114.023 35.2646C111.962 35.2646 109.89 35.143 107.85 34.92L98.9077 43.6247C98.8452 43.6956 98.7412 43.7362 98.6371 43.7362ZM114.023 0.760012C97.2733 0.760012 83.6465 8.32973 83.6465 17.6323C83.6465 23.5908 89.4345 29.1743 98.762 32.2043C98.9181 32.2549 99.0326 32.3968 99.0326 32.5691V42.4492L107.444 34.2613C107.527 34.1803 107.652 34.1397 107.767 34.1499C109.828 34.3931 111.941 34.5147 114.034 34.5147C130.783 34.5147 144.41 26.945 144.41 17.6424C144.41 8.32973 130.773 0.760012 114.023 0.760012Z" fill="black"/>
<path d="M121.813 20.4103V10.7192C121.813 10.167 121.365 9.71924 120.813 9.71924H111.103" stroke="black" stroke-linecap="round" stroke-linejoin="round"/>
<path d="M116.918 13.6069H108.208C107.655 13.6069 107.208 14.0546 107.208 14.6069V23.298C107.208 23.8503 107.655 24.298 108.208 24.298H116.918C117.47 24.298 117.918 23.8503 117.918 23.298V14.6069C117.918 14.0546 117.47 13.6069 116.918 13.6069Z" stroke="black" stroke-linecap="round" stroke-linejoin="round"/>
<defs>
<linearGradient id="paint0_linear_2108_6546" x1="5.71835" y1="4.07434" x2="93.5774" y2="200.621" gradientUnits="userSpaceOnUse">
<stop stop-color="#EFF8FF"/>
<stop offset="0.240707" stop-color="#EEF5FF"/>
<stop offset="0.696907" stop-color="#BFE4FF"/>
<stop offset="1" stop-color="#BDD7FF"/>
</linearGradient>
</defs>
</svg>
