<svg width="204" height="279" viewBox="0 0 204 279" fill="none" xmlns="http://www.w3.org/2000/svg">
<rect x="79.3701" y="3.06299" width="121.191" height="239.193" rx="14" fill="url(#paint0_linear_2108_6544)"/>
<path d="M96.6832 102.124H180.878C181.059 102.124 181.233 102.052 181.361 101.924C181.489 101.796 181.561 101.623 181.561 101.442C181.561 101.26 181.49 101.084 181.362 100.954C181.235 100.823 181.061 100.747 180.878 100.742H96.6832C96.5003 100.747 96.3265 100.823 96.1989 100.954C96.0713 101.084 95.9999 101.26 96 101.442C96 101.623 96.072 101.796 96.2001 101.924C96.3282 102.052 96.502 102.124 96.6832 102.124Z" fill="#A8AFB3"/>
<path d="M123.99 95.684C123.638 95.684 123.313 95.6386 123.014 95.548C122.721 95.4573 122.473 95.324 122.27 95.148L122.678 94.396C122.726 94.4333 122.809 94.4893 122.926 94.564C123.049 94.6333 123.198 94.6973 123.374 94.756C123.556 94.8146 123.753 94.844 123.966 94.844C124.324 94.844 124.62 94.7426 124.854 94.54C125.089 94.3373 125.206 94.0573 125.206 93.7C125.206 93.5026 125.164 93.3186 125.078 93.148C124.998 92.972 124.86 92.8306 124.662 92.724C124.47 92.612 124.206 92.556 123.87 92.556C123.71 92.556 123.542 92.5666 123.366 92.588C123.196 92.604 123.038 92.628 122.894 92.66C122.75 92.692 122.641 92.7293 122.566 92.772L122.686 89.684H125.702V90.468H123.558L123.478 91.86C123.553 91.8386 123.644 91.8226 123.75 91.812C123.862 91.8013 123.996 91.796 124.15 91.796C124.769 91.796 125.254 91.9586 125.606 92.284C125.964 92.604 126.142 93.0466 126.142 93.612C126.142 94.0173 126.057 94.3773 125.886 94.692C125.721 95.0013 125.478 95.244 125.158 95.42C124.838 95.596 124.449 95.684 123.99 95.684ZM129.183 95.684C128.793 95.684 128.463 95.604 128.191 95.444C127.919 95.284 127.697 95.0653 127.527 94.788C127.356 94.5053 127.231 94.18 127.151 93.812C127.076 93.4386 127.039 93.044 127.039 92.628C127.039 92.196 127.076 91.796 127.151 91.428C127.225 91.06 127.345 90.74 127.511 90.468C127.676 90.1906 127.895 89.9746 128.167 89.82C128.444 89.6653 128.783 89.588 129.183 89.588C129.716 89.588 130.137 89.7186 130.447 89.98C130.756 90.2413 130.977 90.6013 131.111 91.06C131.249 91.5133 131.319 92.036 131.319 92.628C131.319 93.1986 131.247 93.716 131.103 94.18C130.964 94.644 130.737 95.012 130.423 95.284C130.113 95.5506 129.7 95.684 129.183 95.684ZM129.183 94.868C129.423 94.868 129.617 94.804 129.767 94.676C129.921 94.548 130.039 94.3746 130.119 94.156C130.204 93.9373 130.263 93.6973 130.295 93.436C130.327 93.1693 130.343 92.9 130.343 92.628C130.343 92.3293 130.327 92.0466 130.295 91.78C130.263 91.5133 130.204 91.276 130.119 91.068C130.039 90.86 129.921 90.6973 129.767 90.58C129.617 90.4573 129.423 90.396 129.183 90.396C128.943 90.396 128.745 90.4573 128.591 90.58C128.436 90.6973 128.316 90.86 128.231 91.068C128.151 91.276 128.095 91.5133 128.063 91.78C128.031 92.0466 128.015 92.3293 128.015 92.628C128.015 92.9 128.031 93.1693 128.063 93.436C128.095 93.6973 128.151 93.9373 128.231 94.156C128.316 94.3693 128.436 94.5426 128.591 94.676C128.745 94.804 128.943 94.868 129.183 94.868ZM132.233 95.644C132.073 95.644 131.937 95.5906 131.825 95.484C131.713 95.372 131.657 95.236 131.657 95.076C131.657 94.9106 131.71 94.7746 131.817 94.668C131.929 94.556 132.068 94.5 132.233 94.5C132.404 94.5 132.542 94.556 132.649 94.668C132.756 94.7746 132.809 94.9106 132.809 95.076C132.809 95.236 132.753 95.372 132.641 95.484C132.534 95.5906 132.398 95.644 132.233 95.644ZM135.284 95.684C134.895 95.684 134.564 95.604 134.292 95.444C134.02 95.284 133.799 95.0653 133.628 94.788C133.458 94.5053 133.332 94.18 133.252 93.812C133.178 93.4386 133.14 93.044 133.14 92.628C133.14 92.196 133.178 91.796 133.252 91.428C133.327 91.06 133.447 90.74 133.612 90.468C133.778 90.1906 133.996 89.9746 134.268 89.82C134.546 89.6653 134.884 89.588 135.284 89.588C135.818 89.588 136.239 89.7186 136.548 89.98C136.858 90.2413 137.079 90.6013 137.212 91.06C137.351 91.5133 137.42 92.036 137.42 92.628C137.42 93.1986 137.348 93.716 137.204 94.18C137.066 94.644 136.839 95.012 136.524 95.284C136.215 95.5506 135.802 95.684 135.284 95.684ZM135.284 94.868C135.524 94.868 135.719 94.804 135.868 94.676C136.023 94.548 136.14 94.3746 136.22 94.156C136.306 93.9373 136.364 93.6973 136.396 93.436C136.428 93.1693 136.444 92.9 136.444 92.628C136.444 92.3293 136.428 92.0466 136.396 91.78C136.364 91.5133 136.306 91.276 136.22 91.068C136.14 90.86 136.023 90.6973 135.868 90.58C135.719 90.4573 135.524 90.396 135.284 90.396C135.044 90.396 134.847 90.4573 134.692 90.58C134.538 90.6973 134.418 90.86 134.332 91.068C134.252 91.276 134.196 91.5133 134.164 91.78C134.132 92.0466 134.116 92.3293 134.116 92.628C134.116 92.9 134.132 93.1693 134.164 93.436C134.196 93.6973 134.252 93.9373 134.332 94.156C134.418 94.3693 134.538 94.5426 134.692 94.676C134.847 94.804 135.044 94.868 135.284 94.868ZM140.464 95.684C140.075 95.684 139.744 95.604 139.472 95.444C139.2 95.284 138.979 95.0653 138.808 94.788C138.637 94.5053 138.512 94.18 138.432 93.812C138.357 93.4386 138.32 93.044 138.32 92.628C138.32 92.196 138.357 91.796 138.432 91.428C138.507 91.06 138.627 90.74 138.792 90.468C138.957 90.1906 139.176 89.9746 139.448 89.82C139.725 89.6653 140.064 89.588 140.464 89.588C140.997 89.588 141.419 89.7186 141.728 89.98C142.037 90.2413 142.259 90.6013 142.392 91.06C142.531 91.5133 142.6 92.036 142.6 92.628C142.6 93.1986 142.528 93.716 142.384 94.18C142.245 94.644 142.019 95.012 141.704 95.284C141.395 95.5506 140.981 95.684 140.464 95.684ZM140.464 94.868C140.704 94.868 140.899 94.804 141.048 94.676C141.203 94.548 141.32 94.3746 141.4 94.156C141.485 93.9373 141.544 93.6973 141.576 93.436C141.608 93.1693 141.624 92.9 141.624 92.628C141.624 92.3293 141.608 92.0466 141.576 91.78C141.544 91.5133 141.485 91.276 141.4 91.068C141.32 90.86 141.203 90.6973 141.048 90.58C140.899 90.4573 140.704 90.396 140.464 90.396C140.224 90.396 140.027 90.4573 139.872 90.58C139.717 90.6973 139.597 90.86 139.512 91.068C139.432 91.276 139.376 91.5133 139.344 91.78C139.312 92.0466 139.296 92.3293 139.296 92.628C139.296 92.9 139.312 93.1693 139.344 93.436C139.376 93.6973 139.432 93.9373 139.512 94.156C139.597 94.3693 139.717 94.5426 139.872 94.676C140.027 94.804 140.224 94.868 140.464 94.868ZM145.644 95.684C145.254 95.684 144.924 95.604 144.652 95.444C144.38 95.284 144.158 95.0653 143.988 94.788C143.817 94.5053 143.692 94.18 143.612 93.812C143.537 93.4386 143.5 93.044 143.5 92.628C143.5 92.196 143.537 91.796 143.612 91.428C143.686 91.06 143.806 90.74 143.972 90.468C144.137 90.1906 144.356 89.9746 144.628 89.82C144.905 89.6653 145.244 89.588 145.644 89.588C146.177 89.588 146.598 89.7186 146.908 89.98C147.217 90.2413 147.438 90.6013 147.572 91.06C147.71 91.5133 147.78 92.036 147.78 92.628C147.78 93.1986 147.708 93.716 147.564 94.18C147.425 94.644 147.198 95.012 146.884 95.284C146.574 95.5506 146.161 95.684 145.644 95.684ZM145.644 94.868C145.884 94.868 146.078 94.804 146.228 94.676C146.382 94.548 146.5 94.3746 146.58 94.156C146.665 93.9373 146.724 93.6973 146.756 93.436C146.788 93.1693 146.804 92.9 146.804 92.628C146.804 92.3293 146.788 92.0466 146.756 91.78C146.724 91.5133 146.665 91.276 146.58 91.068C146.5 90.86 146.382 90.6973 146.228 90.58C146.078 90.4573 145.884 90.396 145.644 90.396C145.404 90.396 145.206 90.4573 145.052 90.58C144.897 90.6973 144.777 90.86 144.692 91.068C144.612 91.276 144.556 91.5133 144.524 91.78C144.492 92.0466 144.476 92.3293 144.476 92.628C144.476 92.9 144.492 93.1693 144.524 93.436C144.556 93.6973 144.612 93.9373 144.692 94.156C144.777 94.3693 144.897 94.5426 145.052 94.676C145.206 94.804 145.404 94.868 145.644 94.868ZM151.936 95.564V90.468H150.432V89.684H154.344V90.468H152.824V95.564H151.936ZM155.019 95.564V89.684H155.923V94.764H157.611V95.564H155.019Z" fill="black"/>
<path d="M124.394 77V69.65H126.264C126.864 69.65 127.338 69.71 127.684 69.83C128.038 69.95 128.298 70.1033 128.464 70.29C128.638 70.4767 128.751 70.6733 128.804 70.88C128.858 71.0867 128.884 71.28 128.884 71.46C128.884 71.6533 128.854 71.8567 128.794 72.07C128.741 72.2767 128.648 72.47 128.514 72.65C128.381 72.8233 128.198 72.9633 127.964 73.07C128.464 73.1967 128.818 73.4167 129.024 73.73C129.238 74.0367 129.344 74.38 129.344 74.76C129.344 75.02 129.314 75.2833 129.254 75.55C129.194 75.8167 129.068 76.06 128.874 76.28C128.688 76.4933 128.404 76.6667 128.024 76.8C127.644 76.9333 127.134 77 126.494 77H124.394ZM125.494 72.77H126.444C126.791 72.77 127.058 72.7133 127.244 72.6C127.431 72.48 127.561 72.3267 127.634 72.14C127.714 71.9533 127.754 71.7567 127.754 71.55C127.754 71.3767 127.714 71.22 127.634 71.08C127.561 70.9333 127.424 70.8167 127.224 70.73C127.031 70.6433 126.754 70.6 126.394 70.6H125.494V72.77ZM125.494 76.06H126.644C126.984 76.06 127.254 76.02 127.454 75.94C127.661 75.86 127.818 75.7567 127.924 75.63C128.031 75.5033 128.101 75.3667 128.134 75.22C128.168 75.0667 128.184 74.9167 128.184 74.77C128.184 74.4233 128.068 74.1533 127.834 73.96C127.601 73.76 127.234 73.66 126.734 73.66H125.494V76.06ZM133.039 69.64H133.149L136.689 77H135.399L134.769 75.56H131.399L130.769 77H129.519L133.039 69.64ZM133.089 71.77L132.649 72.77L131.849 74.55H134.329L133.539 72.78L133.109 71.77H133.089ZM137.265 77V69.65H138.365V72.93L140.885 69.65H142.225L139.695 72.88L142.585 77H141.215L138.965 73.71L138.365 74.45V77H137.265ZM143.343 77V69.65H144.463V77H143.343ZM143.903 68.82C143.696 68.82 143.523 68.7533 143.383 68.62C143.249 68.48 143.183 68.31 143.183 68.11C143.183 67.9033 143.249 67.7333 143.383 67.6C143.523 67.46 143.696 67.39 143.903 67.39C144.109 67.39 144.279 67.46 144.413 67.6C144.553 67.7333 144.623 67.9033 144.623 68.11C144.623 68.31 144.553 68.48 144.413 68.62C144.273 68.7533 144.103 68.82 143.903 68.82ZM147.674 77V73.57L145.124 69.65H146.464L148.234 72.55L150.004 69.65H151.334L148.794 73.59V77H147.674ZM151.943 77V69.65H155.163V70.63H153.053V72.66H154.753V73.66H153.053V76.01H155.493V77H151.943Z" fill="black"/>
<path d="M180.783 83.9702H96.5882C96.424 83.9971 96.2746 84.0813 96.1669 84.2078C96.0592 84.3343 96 84.4949 96 84.6609C96 84.8269 96.0592 84.9875 96.1669 85.114C96.2746 85.2405 96.424 85.3247 96.5882 85.3515H180.783C180.947 85.3247 181.097 85.2405 181.204 85.114C181.312 84.9875 181.371 84.8269 181.371 84.6609C181.371 84.4949 181.312 84.3343 181.204 84.2078C181.097 84.0813 180.947 83.9971 180.783 83.9702Z" fill="#A8AFB3"/>
<path d="M184.187 2H95.5836C91.0822 2.00518 86.7666 3.7912 83.5837 6.96623C80.4007 10.1413 78.6102 14.446 78.605 18.9362V226.478C78.6102 230.968 80.4007 235.273 83.5837 238.448C86.7666 241.623 91.0822 243.409 95.5836 243.414H184.187C188.688 243.409 193.004 241.623 196.186 238.448C199.369 235.273 201.16 230.968 201.165 226.478V18.9362C201.16 14.446 199.369 10.1413 196.186 6.96623C193.004 3.7912 188.688 2.00518 184.187 2ZM199.693 226.439C199.693 230.541 198.059 234.476 195.151 237.376C192.243 240.277 188.299 241.907 184.187 241.907H95.5836C91.471 241.907 87.5269 240.277 84.6189 237.376C81.7108 234.476 80.0771 230.541 80.0771 226.439V18.897C80.0771 14.7947 81.7108 10.8605 84.6189 7.95969C87.5269 5.05893 91.471 3.42929 95.5836 3.42929H184.187C188.299 3.42929 192.243 5.05893 195.151 7.95969C198.059 10.8605 199.693 14.7947 199.693 18.897V226.439Z" fill="#3D4040"/>
<path d="M63.1407 267.554C63.8359 267.992 64.5614 268.37 65.3322 268.657C66.7529 269.201 68.2794 269.519 69.549 270.35C70.8185 271.181 71.7707 272.783 71.2417 274.204C70.5465 276.063 66.0728 276.244 66.0728 276.244L40.9383 276.259C40.9383 276.259 40.3186 271.423 40.5756 268.022C41.1348 260.541 42.1323 253.407 44.2634 246.092C46.8327 246.077 59.3017 248.011 59.3017 248.011C59.3017 248.011 57.745 252.289 57.4427 253.588C56.9288 255.795 56.9742 258.153 57.6392 260.329C58.5158 263.307 60.5411 265.906 63.1407 267.554Z" fill="#A79F9D"/>
<path d="M71.6808 271.68C61.3429 272.012 50.869 271.997 40.531 271.589C40.2136 271.574 39.9567 271.816 39.9416 272.133C39.9265 272.451 40.1683 272.707 40.4857 272.723C46.0778 272.934 51.7153 273.04 57.3528 273.04C62.1591 273.04 66.9502 272.964 71.7111 272.798C72.0285 272.783 72.2703 272.526 72.2552 272.209C72.2552 271.906 71.9982 271.665 71.6808 271.68Z" fill="#3D4040"/>
<path d="M35.5289 264.107C35.5591 264.757 35.6498 265.392 35.9672 265.951C36.5717 267.009 37.932 267.81 39.0051 268.384C43.2219 270.636 42.5266 276.274 42.5266 276.274H15.3216C15.3216 276.274 14.8832 272.118 17.3015 269.458C18.6315 267.992 20.3545 267.447 20.4149 265.12C20.5963 259.694 20.4149 247.814 20.4149 247.814L35.6347 248.223C35.2568 248.192 35.5138 263.881 35.5289 264.107Z" fill="#A79F9D"/>
<path d="M41.226 269.654C40.5005 268.838 39.7297 268.294 38.9589 267.78C37.9463 267.085 37.0697 266.496 36.5105 265.332C35.8908 264.062 36.057 258.334 36.1779 254.163C36.2535 251.593 36.314 249.356 36.2384 248.087C36.2233 247.769 35.9512 247.528 35.6339 247.558C35.3165 247.573 35.0897 247.845 35.1049 248.162C35.1804 249.387 35.12 251.684 35.0444 254.132C34.8781 260.087 34.8026 264.425 35.4978 265.83C35.6943 266.223 35.921 266.556 36.1628 266.873C33.7295 265.997 30.9183 265.574 28.1827 265.74C23.1044 266.057 18.147 268.324 14.5801 271.952C14.3534 272.178 14.3685 272.541 14.5953 272.753C14.7011 272.858 14.8522 272.919 14.9882 272.919C15.1394 272.919 15.2754 272.858 15.3963 272.753C18.7667 269.307 23.452 267.176 28.2582 266.873C33.2156 266.571 38.5508 268.385 40.954 271.211C40.9842 271.241 41.0144 271.256 41.0446 271.287C41.9212 272.586 42.1631 273.932 42.0724 276.41C42.0573 276.728 42.2991 276.985 42.6165 277H42.6316C42.9339 277 43.1908 276.758 43.1908 276.456C43.2966 273.554 43.0246 271.71 41.226 269.654Z" fill="#3D4040"/>
<path d="M75.0661 180.951C70.0483 162.512 65.8768 145.04 63.2772 135.866C59.5441 121.886 51.836 120.011 44.0523 121.901C37.2057 119.513 27.4119 120.193 24.6309 124.304C18.8423 132.828 18.147 144.783 17.6332 149.257C15.1243 170.84 15.623 234.152 16.1067 260.329C16.1369 261.629 31.81 262.611 39.5786 261.13C39.6239 260.39 39.6542 259.679 39.6995 258.939C46.1985 259.589 55.3575 260.208 59.7708 259.105C61.2217 248.314 70.1087 223.753 74.8394 208.896C79.3887 194.629 77.5599 190.11 75.0661 180.951ZM41.1353 234.56C42.5863 210.982 43.7803 196.73 45.8358 179.802C49.7201 189.173 52.6219 196.11 52.6219 196.11C52.6219 196.11 46.2136 216.967 41.1353 234.56Z" fill="#134FAE"/>
<path d="M36.4955 143.075L25.689 141.095C25.3867 141.035 25.0845 141.246 25.024 141.549C24.9636 141.851 25.1752 142.153 25.4774 142.214L36.2839 144.194C36.3141 144.194 36.3595 144.209 36.3897 144.209C36.6617 144.209 36.9036 144.012 36.9489 143.74C37.0094 143.423 36.7978 143.121 36.4955 143.075Z" fill="#3D4040"/>
<path d="M49.3726 155.091C49.0704 155.03 48.7681 155.257 48.7227 155.559C43.3271 189.203 41.9668 211.466 40.2741 239.653C39.866 246.47 39.4277 253.649 38.9138 261.433C38.8987 261.75 39.1254 262.007 39.4428 262.037C39.4579 262.037 39.473 262.037 39.4881 262.037C39.7904 262.037 40.0322 261.81 40.0473 261.508C40.5612 253.724 40.9995 246.545 41.4076 239.729C43.1155 211.572 44.4606 189.339 49.8563 155.741C49.9016 155.423 49.69 155.136 49.3726 155.091Z" fill="#3D4040"/>
<path d="M42.4944 52.7752C40.374 46.0054 33.9944 44.0122 28.5655 45.4308C22.6795 46.9751 17.9268 52.5238 20.9247 60.353C23.0999 66.0454 29.9547 69.3854 35.4751 67.446C41.0137 65.4887 44.3223 58.5932 42.4944 52.7752Z" fill="#E8B7B4"/>
<path d="M26.2361 42.9884C24.8521 43.6103 23.6157 44.4099 22.5638 45.3695C21.6596 44.0368 20.1648 43.2904 17.8396 43.9124C15.5145 44.5343 13.909 46.6667 13.3 48.9056C12.8202 50.6826 12.8756 52.6373 13.7614 54.2543C14.6656 55.8713 16.511 57.0441 18.4117 56.9197C18.5409 56.9197 18.6516 56.8842 18.7808 56.8664C19.5928 60.7047 22.2132 64.152 25.7748 66C29.7055 60.7224 31.1264 53.7745 29.5763 47.4485C29.8531 48.5503 34.5957 48.7102 35.4815 48.6746C36.0351 48.6569 41.073 48.0882 40.9992 47.875C38.8955 42.3309 31.3109 40.7316 26.2361 42.9884Z" fill="#3D4040"/>
<path d="M97.8728 87.3954C97.903 87.8942 97.9635 88.3929 98.039 88.8615C98.0995 89.2393 98.3715 89.6172 98.7494 89.6625C99.5958 89.7834 101.183 88.1813 101.818 87.6977C102.498 87.1687 103.238 86.6548 104.085 86.549C104.931 86.4432 105.913 86.8664 106.155 87.6977C106.639 89.3149 105.052 90.5391 104.175 91.6273C103.087 92.9876 102.074 94.4234 101.032 95.8139C99.8678 97.3555 99.097 98.0054 97.238 98.6402C94.7744 99.4714 91.5854 100.031 89.3939 101.436C87.5197 102.66 85.6456 103.824 83.5145 104.595C83.3634 104.656 81.3986 97.0834 81.1719 96.3126C83.5599 94.9373 86.0083 95.2395 88.3208 93.441C90.3612 91.854 93.4746 89.4962 94.1396 86.9118C94.8651 84.0552 94.0641 81.0778 95.0162 78.2666C95.1674 77.8434 95.3487 77.4051 95.6964 77.1179C96.044 76.8308 96.5881 76.725 96.9357 76.997C97.2078 77.2086 97.3136 77.5562 97.3891 77.8887C98.1297 81.0324 97.6612 84.1762 97.8728 87.3954Z" fill="#E8B7B4"/>
<path d="M54.6927 116.233C54.6927 116.233 41.6343 79.098 42.39 76.6797C43.1457 74.2464 45.05 72.0398 47.5589 71.5712C49.9621 71.1178 52.5163 72.2816 54.1184 74.1255C60.5116 81.4558 58.6828 91.4461 62.1741 97.2649C70.1543 94.9374 87.7922 90.6148 87.7922 90.6148L91.9486 106.756L54.6927 116.233Z" fill="#0093FF"/>
<path d="M21.9398 121.1C22.1514 113.83 21.4712 106.545 19.8994 99.4413C18.4938 93.0481 12.7656 83.4659 18.4938 77.6319C19.8994 76.1961 21.9095 75.5764 23.829 75.0323C28.3632 73.7627 32.9578 72.735 37.5978 71.934C41.5576 71.2387 45.6535 69.954 49.4622 71.8735C52.8326 73.5663 54.873 77.1332 55.5229 80.7152C58.1527 95.1187 58.2888 110.021 56.2786 124.5C46.8324 128.717 36.7212 131.453 26.4437 132.571C25.1893 132.707 23.7988 132.783 22.7862 132.042C21.305 130.954 21.3957 128.762 21.577 126.918C21.7584 124.984 21.8793 123.049 21.9398 121.1Z" fill="#0093FF"/>
<path d="M63.305 94.4905L52.3705 95.1248C51.3424 95.1937 50.4949 95.9521 50.342 96.9725L46.7296 120.565C46.5907 121.434 47.3131 122.192 48.2023 122.124L60.1511 121.158L64.7639 96.1176C64.9168 95.2351 64.2082 94.4353 63.305 94.4905Z" fill="#3D4040"/>
<path d="M63.519 119.709C62.8389 119.135 61.8263 119.407 60.9799 119.709C59.6801 120.177 58.3803 120.661 57.0805 121.13C57.6397 120.842 58.1536 120.495 58.5314 119.981C59.3325 118.893 59.0756 116.958 57.7606 116.626C57.0049 116.429 56.2492 116.822 55.5691 117.185C55.3273 117.321 53.967 118.046 52.4557 118.847C50.3246 119.966 47.8308 121.205 47.8308 121.205L47.3623 117.381C47.3623 117.381 38.0067 122.611 35.8454 123.503C35.2711 123.805 36.057 131.573 36.4651 132.238C39.6239 132.027 42.949 131.634 46.0776 131.15C49.2817 130.667 52.4557 129.986 55.5993 129.2C56.7782 128.898 57.9571 128.551 59.0755 128.052C60.0428 127.629 61.252 127.145 62.053 126.48C62.6727 125.966 63.1261 125.15 62.9749 124.349C62.8691 123.79 62.4157 123.261 61.8414 123.291C62.5366 122.928 63.2017 122.596 63.64 121.916C64.0934 121.251 64.1387 120.238 63.519 119.709Z" fill="#E8B7B4"/>
<path d="M1.14354 127.674C1.61207 131.15 3.63734 134.611 6.87172 135.957C8.88187 136.788 11.1187 136.727 13.28 136.637C18.9629 136.365 24.6457 135.851 30.2983 135.11C31.5377 134.944 45.6541 132.904 45.6238 132.511C45.246 127.281 44.5356 122.082 43.523 116.943C43.523 116.958 43.5079 116.973 43.4928 116.989C42.4499 117.518 27.7441 119.286 25.3258 119.482C23.6633 119.618 20.9881 120.087 19.5221 119.074C17.6631 117.82 18.8117 114.767 19.4163 113.165C22.56 105.049 25.6886 96.9173 28.8323 88.8011C29.9356 85.9597 30.3285 83.1938 29.0287 80.2768C27.8499 77.6168 25.2654 76.1205 22.4542 75.7427C14.6856 74.6998 11.0432 84.4785 8.82142 90.2067C6.50899 96.1616 4.39304 102.797 3.01768 109.024C1.97482 113.86 0.538984 123.185 1.14354 127.674Z" fill="#0093FF"/>
<path d="M42.5552 72.6596C41.8147 71.3145 40.5602 70.5134 39.2151 70.5285C38.8977 70.5285 38.6559 70.7855 38.6559 71.1029C38.6559 71.4203 38.8675 71.6318 39.2302 71.6621C40.2277 71.6621 41.0136 72.2062 41.5577 73.2037C42.2227 74.4128 42.2227 75.8789 41.5577 76.8764C40.1672 78.9923 37.0084 79.2644 34.8774 78.3122C32.8521 77.3902 31.2047 75.637 29.7386 72.7805C29.5875 72.5085 29.255 72.4027 28.9678 72.5387C28.6958 72.6898 28.5749 73.0223 28.726 73.3095C30.3281 76.3927 32.1417 78.3122 34.4088 79.3551C35.3308 79.7631 36.3888 79.9898 37.4467 79.9898C39.3964 79.9898 41.3764 79.2341 42.4948 77.5112C43.4016 76.1358 43.4167 74.2314 42.5552 72.6596Z" fill="#3D4040"/>
<path d="M43.629 116.49C42.1478 116.702 40.6516 116.943 39.1704 117.17C33.4573 118.062 27.5327 118.969 21.7289 119.074C21.0337 119.09 20.3233 119.074 19.8699 118.712C19.3409 118.304 19.1595 117.457 19.2956 116.157C19.6432 112.817 24.7517 99.7135 26.8677 96.6756C27.049 96.4187 26.9886 96.0711 26.7316 95.8897C26.4747 95.7083 26.1271 95.7688 25.9457 96.0257C23.8751 98.9729 18.5701 112.228 18.162 116.037C18.1016 116.671 17.89 118.591 19.1595 119.588C19.8397 120.117 20.6861 120.208 21.472 120.208C21.5627 120.208 21.6533 120.208 21.744 120.208C27.6233 120.102 33.5782 119.18 39.3366 118.289C40.8178 118.062 42.3141 117.835 43.7952 117.608C44.1126 117.563 44.3242 117.276 44.2789 116.959C44.2335 116.656 43.9464 116.46 43.629 116.49Z" fill="#3D4040"/>
<path d="M155.516 231.625H125.011C124.628 231.625 124.317 231.863 124.317 232.157C124.317 232.451 124.628 232.689 125.011 232.689H155.516C155.899 232.689 156.21 232.451 156.21 232.157C156.21 231.863 155.899 231.625 155.516 231.625Z" fill="#3D4040"/>
<path d="M98.4375 160.399H182.089C182.475 160.399 182.787 160.161 182.787 159.867C182.787 159.574 182.475 159.336 182.089 159.336H98.4375C98.0521 159.336 97.7402 159.574 97.7402 159.867C97.7586 160.175 98.0705 160.399 98.4375 160.399Z" fill="#A8AFB3"/>
<path d="M98.6972 153.063H182.349C182.734 153.063 183.046 152.825 183.046 152.532C183.046 152.238 182.734 152 182.349 152H98.6972C98.3119 152 98 152.238 98 152.532C98.0183 152.839 98.3303 153.063 98.6972 153.063Z" fill="#A8AFB3"/>
<path d="M98.957 145.727H182.609C182.994 145.727 183.306 145.489 183.306 145.196C183.306 144.902 182.994 144.664 182.609 144.664H98.957C98.5717 144.664 98.2598 144.902 98.2598 145.196C98.2781 145.503 98.59 145.727 98.957 145.727Z" fill="#A8AFB3"/>
<path d="M182.089 166.777H98.4375C98.0522 166.777 97.7402 167.015 97.7402 167.309C97.7402 167.603 98.0522 167.84 98.4375 167.84H182.089C182.475 167.84 182.787 167.603 182.787 167.309C182.768 167.015 182.456 166.777 182.089 166.777Z" fill="#A8AFB3"/>
<path d="M152.322 175.282H98.4386C98.0527 175.282 97.7402 175.52 97.7402 175.814C97.7402 176.108 98.0527 176.345 98.4386 176.345H152.322C152.708 176.345 153.02 176.108 153.02 175.814C153.002 175.506 152.69 175.282 152.322 175.282Z" fill="#A8AFB3"/>
<path d="M139 122.5C143.142 122.5 146.5 119.142 146.5 115C146.5 110.858 143.142 107.5 139 107.5C134.858 107.5 131.5 110.858 131.5 115C131.5 119.142 134.858 122.5 139 122.5Z" stroke="#AFAFAF" stroke-miterlimit="10"/>
<path d="M139 110.625V115L143.062 117.5" stroke="#AFAFAF" stroke-linecap="round" stroke-linejoin="round"/>
<circle cx="142" cy="202" r="21" fill="#00C73C"/>
<path d="M148.574 194.094C148.189 193.889 147.696 194.032 147.482 194.403L140.463 206.944L136.375 203.017C136.054 202.709 135.562 202.709 135.241 203.017C134.92 203.325 134.92 203.798 135.241 204.107L140.099 208.774C140.249 208.918 140.463 209 140.677 209C140.719 209 140.762 209 140.784 209C141.041 208.959 141.255 208.815 141.383 208.609L148.916 195.163C149.109 194.773 148.959 194.3 148.574 194.094Z" fill="white"/>
<path d="M97.6832 50.1235H181.878C182.059 50.1235 182.233 50.0517 182.361 49.9239C182.489 49.7961 182.561 49.6228 182.561 49.4421C182.561 49.2596 182.49 49.0843 182.362 48.9536C182.235 48.8228 182.061 48.747 181.878 48.7422H97.6832C97.5003 48.747 97.3265 48.8228 97.1989 48.9536C97.0713 49.0843 96.9999 49.2596 97 49.4421C97 49.6228 97.072 49.7961 97.2001 49.9239C97.3282 50.0517 97.502 50.1235 97.6832 50.1235Z" fill="#A8AFB3"/>
<path d="M116.042 42V36.932L116.833 36.708V42H116.042ZM117.898 42L119.627 39.837C119.721 39.7157 119.826 39.5687 119.942 39.396C120.064 39.2187 120.169 39.0367 120.257 38.85C120.351 38.6587 120.397 38.4813 120.397 38.318C120.397 38.0613 120.327 37.863 120.187 37.723C120.052 37.583 119.847 37.513 119.571 37.513C119.38 37.513 119.219 37.555 119.088 37.639C118.958 37.723 118.85 37.821 118.766 37.933C118.687 38.045 118.624 38.1453 118.577 38.234L117.926 37.884C118.015 37.716 118.129 37.548 118.269 37.38C118.414 37.2073 118.594 37.0627 118.808 36.946C119.023 36.8293 119.284 36.771 119.592 36.771C119.947 36.771 120.243 36.834 120.481 36.96C120.719 37.086 120.897 37.2587 121.013 37.478C121.135 37.6973 121.195 37.947 121.195 38.227C121.195 38.5257 121.121 38.8313 120.971 39.144C120.827 39.4567 120.621 39.7763 120.355 40.103L119.403 41.307H121.398V42H117.898ZM123.633 42.105C123.442 42.105 123.244 42.084 123.038 42.042C122.833 42.0047 122.644 41.951 122.471 41.881C122.303 41.811 122.173 41.7317 122.079 41.643L122.408 40.978C122.53 41.0713 122.698 41.1647 122.912 41.258C123.127 41.3467 123.356 41.391 123.598 41.391C123.804 41.391 123.997 41.3653 124.179 41.314C124.361 41.258 124.508 41.16 124.62 41.02C124.737 40.8753 124.795 40.6747 124.795 40.418C124.795 40.1427 124.686 39.921 124.466 39.753C124.252 39.585 123.96 39.501 123.591 39.501C123.479 39.501 123.365 39.5057 123.248 39.515C123.132 39.5197 123.029 39.529 122.94 39.543L124.228 37.541H122.296V36.855H125.621L124.165 38.934C124.469 38.9433 124.73 39.0133 124.949 39.144C125.173 39.2747 125.346 39.4473 125.467 39.662C125.589 39.872 125.649 40.1053 125.649 40.362C125.649 40.6933 125.57 40.992 125.411 41.258C125.257 41.5193 125.029 41.727 124.725 41.881C124.427 42.0303 124.063 42.105 123.633 42.105ZM128.579 42V40.712H126.227L127.704 36.68L128.432 36.953L127.319 39.977H128.579L128.621 38.808H129.398V39.977H130.112V40.712H129.398V42H128.579ZM132.195 42.105C131.887 42.105 131.603 42.0653 131.341 41.986C131.085 41.9067 130.868 41.79 130.69 41.636L131.047 40.978C131.089 41.0107 131.162 41.0597 131.264 41.125C131.372 41.1857 131.502 41.2417 131.656 41.293C131.815 41.3443 131.988 41.37 132.174 41.37C132.487 41.37 132.746 41.2813 132.951 41.104C133.157 40.9267 133.259 40.6817 133.259 40.369C133.259 40.1963 133.222 40.0353 133.147 39.886C133.077 39.732 132.956 39.6083 132.783 39.515C132.615 39.417 132.384 39.368 132.09 39.368C131.95 39.368 131.803 39.3773 131.649 39.396C131.5 39.41 131.362 39.431 131.236 39.459C131.11 39.487 131.015 39.5197 130.949 39.557L131.054 36.855H133.693V37.541H131.817L131.747 38.759C131.813 38.7403 131.892 38.7263 131.985 38.717C132.083 38.7077 132.2 38.703 132.335 38.703C132.877 38.703 133.301 38.8453 133.609 39.13C133.922 39.41 134.078 39.7973 134.078 40.292C134.078 40.6467 134.004 40.9617 133.854 41.237C133.71 41.5077 133.497 41.72 133.217 41.874C132.937 42.028 132.597 42.105 132.195 42.105ZM136.594 42.105C136.277 42.105 135.988 42.0373 135.726 41.902C135.465 41.762 135.257 41.566 135.103 41.314C134.949 41.0573 134.872 40.7517 134.872 40.397C134.872 40.2617 134.882 40.1287 134.9 39.998C134.924 39.8673 134.968 39.718 135.033 39.55C135.099 39.382 135.194 39.1743 135.32 38.927C135.451 38.675 135.621 38.3693 135.831 38.01C136.041 37.646 136.305 37.2027 136.622 36.68L137.294 37.072C137.042 37.4547 136.842 37.765 136.692 38.003C136.543 38.241 136.429 38.4277 136.349 38.563C136.275 38.6937 136.221 38.7893 136.188 38.85C136.156 38.9107 136.128 38.9527 136.104 38.976C136.174 38.9107 136.27 38.857 136.391 38.815C136.517 38.7683 136.667 38.745 136.839 38.745C137.161 38.745 137.439 38.8197 137.672 38.969C137.906 39.1183 138.085 39.3167 138.211 39.564C138.337 39.8067 138.4 40.068 138.4 40.348C138.4 40.7213 138.323 41.0387 138.169 41.3C138.015 41.5613 137.801 41.762 137.525 41.902C137.255 42.0373 136.944 42.105 136.594 42.105ZM136.643 41.419C136.942 41.419 137.175 41.3257 137.343 41.139C137.511 40.9477 137.595 40.7073 137.595 40.418C137.595 40.1007 137.504 39.8557 137.322 39.683C137.145 39.5057 136.926 39.417 136.664 39.417C136.366 39.417 136.125 39.508 135.943 39.69C135.766 39.8673 135.677 40.1147 135.677 40.432C135.677 40.7167 135.768 40.9523 135.95 41.139C136.137 41.3257 136.368 41.419 136.643 41.419ZM139.282 42L140.997 37.541H138.603V36.855H141.984L140.178 42H139.282ZM144.162 42.105C143.84 42.105 143.544 42.0397 143.273 41.909C143.003 41.7783 142.786 41.594 142.622 41.356C142.464 41.118 142.384 40.838 142.384 40.516C142.384 40.278 142.424 40.075 142.503 39.907C142.583 39.7343 142.685 39.592 142.811 39.48C142.942 39.368 143.077 39.2817 143.217 39.221C143.045 39.1183 142.898 38.9783 142.776 38.801C142.66 38.619 142.601 38.4067 142.601 38.164C142.601 37.8747 142.669 37.6273 142.804 37.422C142.944 37.212 143.131 37.051 143.364 36.939C143.602 36.827 143.868 36.771 144.162 36.771C144.461 36.771 144.727 36.827 144.96 36.939C145.194 37.051 145.378 37.212 145.513 37.422C145.653 37.6273 145.723 37.87 145.723 38.15C145.723 38.416 145.66 38.6377 145.534 38.815C145.408 38.9923 145.257 39.13 145.079 39.228C145.224 39.2887 145.362 39.375 145.492 39.487C145.623 39.599 145.73 39.739 145.814 39.907C145.898 40.075 145.94 40.278 145.94 40.516C145.94 40.838 145.859 41.118 145.695 41.356C145.532 41.594 145.315 41.7783 145.044 41.909C144.778 42.0397 144.484 42.105 144.162 42.105ZM144.162 38.899C144.302 38.899 144.428 38.864 144.54 38.794C144.657 38.724 144.75 38.6307 144.82 38.514C144.89 38.3973 144.925 38.269 144.925 38.129C144.925 37.9097 144.855 37.7323 144.715 37.597C144.575 37.457 144.391 37.387 144.162 37.387C143.929 37.387 143.742 37.457 143.602 37.597C143.462 37.7323 143.392 37.9097 143.392 38.129C143.392 38.3437 143.462 38.5257 143.602 38.675C143.747 38.8243 143.934 38.899 144.162 38.899ZM144.162 41.419C144.466 41.419 144.704 41.3303 144.876 41.153C145.054 40.9757 145.142 40.7563 145.142 40.495C145.142 40.2243 145.049 40.0027 144.862 39.83C144.676 39.6573 144.442 39.571 144.162 39.571C143.882 39.571 143.647 39.6573 143.455 39.83C143.269 39.998 143.175 40.2197 143.175 40.495C143.175 40.7563 143.264 40.9757 143.441 41.153C143.619 41.3303 143.859 41.419 144.162 41.419ZM147.687 42L148.59 40.425C148.642 40.3363 148.702 40.2337 148.772 40.117C148.842 40.0003 148.898 39.9187 148.94 39.872C148.875 39.9327 148.784 39.9863 148.667 40.033C148.551 40.0797 148.392 40.103 148.191 40.103C147.879 40.103 147.603 40.0307 147.365 39.886C147.127 39.7367 146.941 39.5383 146.805 39.291C146.675 39.039 146.609 38.759 146.609 38.451C146.609 38.115 146.686 37.821 146.84 37.569C146.994 37.317 147.209 37.121 147.484 36.981C147.76 36.841 148.082 36.771 148.45 36.771C148.768 36.771 149.055 36.841 149.311 36.981C149.573 37.1163 149.78 37.3123 149.934 37.569C150.088 37.821 150.165 38.1267 150.165 38.486C150.165 38.6027 150.158 38.7193 150.144 38.836C150.13 38.948 150.095 39.0833 150.039 39.242C149.988 39.396 149.904 39.5897 149.787 39.823C149.675 40.0563 149.524 40.3503 149.332 40.705C149.141 41.055 148.896 41.4867 148.597 42H147.687ZM148.38 39.431C148.656 39.431 148.887 39.347 149.073 39.179C149.265 39.011 149.36 38.773 149.36 38.465C149.36 38.1663 149.269 37.9237 149.087 37.737C148.905 37.5457 148.677 37.45 148.401 37.45C148.098 37.45 147.858 37.5457 147.68 37.737C147.503 37.9283 147.414 38.1687 147.414 38.458C147.414 38.668 147.459 38.8453 147.547 38.99C147.641 39.1347 147.76 39.2443 147.904 39.319C148.054 39.3937 148.212 39.431 148.38 39.431ZM152.81 42.105C152.469 42.105 152.18 42.035 151.942 41.895C151.704 41.755 151.51 41.5637 151.361 41.321C151.212 41.0737 151.102 40.789 151.032 40.467C150.967 40.1403 150.934 39.795 150.934 39.431C150.934 39.053 150.967 38.703 151.032 38.381C151.097 38.059 151.202 37.779 151.347 37.541C151.492 37.2983 151.683 37.1093 151.921 36.974C152.164 36.8387 152.46 36.771 152.81 36.771C153.277 36.771 153.645 36.8853 153.916 37.114C154.187 37.3427 154.38 37.6577 154.497 38.059C154.618 38.4557 154.679 38.913 154.679 39.431C154.679 39.9303 154.616 40.383 154.49 40.789C154.369 41.195 154.17 41.517 153.895 41.755C153.624 41.9883 153.263 42.105 152.81 42.105ZM152.81 41.391C153.02 41.391 153.19 41.335 153.321 41.223C153.456 41.111 153.559 40.9593 153.629 40.768C153.704 40.5767 153.755 40.3667 153.783 40.138C153.811 39.9047 153.825 39.669 153.825 39.431C153.825 39.1697 153.811 38.9223 153.783 38.689C153.755 38.4557 153.704 38.248 153.629 38.066C153.559 37.884 153.456 37.7417 153.321 37.639C153.19 37.5317 153.02 37.478 152.81 37.478C152.6 37.478 152.427 37.5317 152.292 37.639C152.157 37.7417 152.052 37.884 151.977 38.066C151.907 38.248 151.858 38.4557 151.83 38.689C151.802 38.9223 151.788 39.1697 151.788 39.431C151.788 39.669 151.802 39.9047 151.83 40.138C151.858 40.3667 151.907 40.5767 151.977 40.768C152.052 40.9547 152.157 41.1063 152.292 41.223C152.427 41.335 152.6 41.391 152.81 41.391ZM155.752 42V36.932L156.543 36.708V42H155.752ZM157.608 42L159.337 39.837C159.431 39.7157 159.536 39.5687 159.652 39.396C159.774 39.2187 159.879 39.0367 159.967 38.85C160.061 38.6587 160.107 38.4813 160.107 38.318C160.107 38.0613 160.037 37.863 159.897 37.723C159.762 37.583 159.557 37.513 159.281 37.513C159.09 37.513 158.929 37.555 158.798 37.639C158.668 37.723 158.56 37.821 158.476 37.933C158.397 38.045 158.334 38.1453 158.287 38.234L157.636 37.884C157.725 37.716 157.839 37.548 157.979 37.38C158.124 37.2073 158.304 37.0627 158.518 36.946C158.733 36.8293 158.994 36.771 159.302 36.771C159.657 36.771 159.953 36.834 160.191 36.96C160.429 37.086 160.607 37.2587 160.723 37.478C160.845 37.6973 160.905 37.947 160.905 38.227C160.905 38.5257 160.831 38.8313 160.681 39.144C160.537 39.4567 160.331 39.7763 160.065 40.103L159.113 41.307H161.108V42H157.608ZM163.343 42.105C163.152 42.105 162.954 42.084 162.748 42.042C162.543 42.0047 162.354 41.951 162.181 41.881C162.013 41.811 161.883 41.7317 161.789 41.643L162.118 40.978C162.24 41.0713 162.408 41.1647 162.622 41.258C162.837 41.3467 163.066 41.391 163.308 41.391C163.514 41.391 163.707 41.3653 163.889 41.314C164.071 41.258 164.218 41.16 164.33 41.02C164.447 40.8753 164.505 40.6747 164.505 40.418C164.505 40.1427 164.396 39.921 164.176 39.753C163.962 39.585 163.67 39.501 163.301 39.501C163.189 39.501 163.075 39.5057 162.958 39.515C162.842 39.5197 162.739 39.529 162.65 39.543L163.938 37.541H162.006V36.855H165.331L163.875 38.934C164.179 38.9433 164.44 39.0133 164.659 39.144C164.883 39.2747 165.056 39.4473 165.177 39.662C165.299 39.872 165.359 40.1053 165.359 40.362C165.359 40.6933 165.28 40.992 165.121 41.258C164.967 41.5193 164.739 41.727 164.435 41.881C164.137 42.0303 163.773 42.105 163.343 42.105Z" fill="black"/>
<path d="M119.071 25.07C118.484 25.07 117.961 24.97 117.501 24.77C117.048 24.57 116.661 24.2967 116.341 23.95C116.028 23.5967 115.788 23.1967 115.621 22.75C115.461 22.2967 115.381 21.8167 115.381 21.31C115.381 20.7567 115.471 20.25 115.651 19.79C115.838 19.33 116.098 18.9333 116.431 18.6C116.764 18.26 117.161 17.9967 117.621 17.81C118.081 17.6233 118.588 17.53 119.141 17.53C119.501 17.53 119.821 17.5667 120.101 17.64C120.381 17.7133 120.611 17.7967 120.791 17.89C120.971 17.9767 121.084 18.0467 121.131 18.1L120.641 19.1C120.461 18.94 120.238 18.81 119.971 18.71C119.711 18.61 119.404 18.56 119.051 18.56C118.591 18.56 118.174 18.6733 117.801 18.9C117.434 19.1267 117.141 19.4467 116.921 19.86C116.708 20.2733 116.601 20.7633 116.601 21.33C116.601 21.83 116.694 22.2867 116.881 22.7C117.068 23.1067 117.341 23.4333 117.701 23.68C118.068 23.9267 118.511 24.05 119.031 24.05C119.318 24.05 119.598 24.0133 119.871 23.94C120.151 23.86 120.438 23.73 120.731 23.55L121.061 24.5C120.974 24.58 120.828 24.6667 120.621 24.76C120.414 24.8467 120.174 24.92 119.901 24.98C119.634 25.04 119.358 25.07 119.071 25.07ZM124.755 25.1C124.115 25.1 123.602 24.97 123.215 24.71C122.835 24.45 122.559 24.0767 122.385 23.59C122.219 23.1033 122.135 22.5267 122.135 21.86V17.65H123.255V21.88C123.255 22.66 123.372 23.22 123.605 23.56C123.845 23.8933 124.229 24.06 124.755 24.06C125.282 24.06 125.662 23.8967 125.895 23.57C126.129 23.2433 126.245 22.68 126.245 21.88V17.65H127.375V21.86C127.375 22.8867 127.162 23.6833 126.735 24.25C126.309 24.8167 125.649 25.1 124.755 25.1ZM128.146 25L131.826 18.61H128.616V17.65H133.586L129.956 24.02H133.436V25H128.146ZM134.706 25V17.65H136.476C137.136 17.65 137.696 17.7233 138.156 17.87C138.622 18.0167 139.006 18.2133 139.306 18.46C139.606 18.7 139.839 18.9767 140.006 19.29C140.179 19.5967 140.299 19.9167 140.366 20.25C140.432 20.5767 140.466 20.8933 140.466 21.2C140.466 21.66 140.399 22.1167 140.266 22.57C140.139 23.0167 139.926 23.4233 139.626 23.79C139.326 24.1567 138.922 24.45 138.416 24.67C137.916 24.89 137.289 25 136.536 25H134.706ZM135.826 24.01H136.656C137.149 24.01 137.562 23.9333 137.896 23.78C138.236 23.6267 138.506 23.42 138.706 23.16C138.912 22.8933 139.059 22.5967 139.146 22.27C139.239 21.9367 139.286 21.5967 139.286 21.25C139.286 20.7767 139.202 20.3433 139.036 19.95C138.869 19.55 138.592 19.23 138.206 18.99C137.826 18.75 137.309 18.63 136.656 18.63H135.826V24.01ZM143.868 17.64H143.978L147.518 25H146.228L145.598 23.56H142.228L141.598 25H140.348L143.868 17.64ZM143.918 19.77L143.478 20.77L142.678 22.55H145.158L144.368 20.78L143.938 19.77H143.918ZM153.484 25L149.184 20.24L149.214 21.04V25H148.094V17.64H148.234L152.554 22.46L152.514 21.62V17.65H153.634V25H153.484ZM157.775 25V17.65H158.895V25H157.775ZM160.399 25V17.65H162.169C162.829 17.65 163.389 17.7233 163.849 17.87C164.316 18.0167 164.699 18.2133 164.999 18.46C165.299 18.7 165.532 18.9767 165.699 19.29C165.872 19.5967 165.992 19.9167 166.059 20.25C166.126 20.5767 166.159 20.8933 166.159 21.2C166.159 21.66 166.092 22.1167 165.959 22.57C165.832 23.0167 165.619 23.4233 165.319 23.79C165.019 24.1567 164.616 24.45 164.109 24.67C163.609 24.89 162.982 25 162.229 25H160.399ZM161.519 24.01H162.349C162.842 24.01 163.256 23.9333 163.589 23.78C163.929 23.6267 164.199 23.42 164.399 23.16C164.606 22.8933 164.752 22.5967 164.839 22.27C164.932 21.9367 164.979 21.5967 164.979 21.25C164.979 20.7767 164.896 20.3433 164.729 19.95C164.562 19.55 164.286 19.23 163.899 18.99C163.519 18.75 163.002 18.63 162.349 18.63H161.519V24.01Z" fill="black"/>
<path d="M181.783 31.9702H97.5882C97.424 31.9971 97.2746 32.0813 97.1669 32.2078C97.0592 32.3343 97 32.4949 97 32.6609C97 32.8269 97.0592 32.9875 97.1669 33.114C97.2746 33.2405 97.424 33.3247 97.5882 33.3515H181.783C181.947 33.3247 182.097 33.2405 182.204 33.114C182.312 32.9875 182.371 32.8269 182.371 32.6609C182.371 32.4949 182.312 32.3343 182.204 32.2078C182.097 32.0813 181.947 31.9971 181.783 31.9702Z" fill="#A8AFB3"/>
<defs>
<linearGradient id="paint0_linear_2108_6544" x1="86.2115" y1="7.92464" x2="190.863" y2="242.658" gradientUnits="userSpaceOnUse">
<stop stop-color="#EFF8FF"/>
<stop offset="0.240707" stop-color="#EEF5FF"/>
<stop offset="0.696907" stop-color="#BFE4FF"/>
<stop offset="1" stop-color="#BDD7FF"/>
</linearGradient>
</defs>
</svg>
