<svg width="22" height="22" viewBox="0 0 22 22" fill="none" xmlns="http://www.w3.org/2000/svg">
<path fill-rule="evenodd" clip-rule="evenodd" d="M5.48327 6.53734L14.8029 6.53651C17.0176 6.51023 19.6977 7.8431 18.727 11.3599C17.4603 15.9481 13.516 16.6432 12.0541 16.66L2.41666 16.6592L3.10911 14.3734H7.41405C7.41405 14.3734 7.20671 13.5375 7.22266 12.7289L0.941406 12.7253L1.64393 10.4473L7.94721 10.4508C7.94721 10.4508 8.50109 9.30229 9.11409 8.8136L4.79388 8.81266L5.48327 6.53734ZM12.2142 14.364C12.7693 14.3642 14.3833 14.2628 15.2847 11.8648C16.274 9.23285 14.7856 8.81825 14.0538 8.8084C13.4994 8.80099 11.6362 8.79944 10.7663 11.599C9.94258 14.2498 11.659 14.3635 12.2142 14.364Z" fill="#134FAE"/>
</svg>
