<svg width="82" height="82" viewBox="0 0 82 82" fill="none" xmlns="http://www.w3.org/2000/svg">
<circle cx="41" cy="41" r="41" fill="#F3F5F9"/>
<rect x="16.3999" y="16.4004" width="49.2" height="49.2" fill="white" fill-opacity="0.01"/>
<path fill-rule="evenodd" clip-rule="evenodd" d="M52.623 28.765C54.338 33.7185 52.7252 39.2147 48.6054 42.456C55.6523 45.2527 60.5803 51.7104 61.4179 59.2455C61.5379 60.3651 60.7325 61.3718 59.6139 61.5005H59.3884C58.3387 61.5069 57.4538 60.7193 57.3384 59.676C56.4064 51.3791 49.39 45.1067 41.0409 45.1067C32.6918 45.1067 25.6754 51.3791 24.7434 59.676C24.6189 60.8082 23.6001 61.6251 22.4679 61.5005C21.3357 61.376 20.5189 60.3572 20.6434 59.225C21.477 51.712 26.3775 45.2673 33.3944 42.456C29.2746 39.2147 27.6618 33.7185 29.3768 28.765C31.0919 23.8115 35.7579 20.4893 40.9999 20.4893C46.2419 20.4893 50.9079 23.8115 52.623 28.765ZM32.7999 32.8005C32.7999 37.3293 36.4712 41.0005 40.9999 41.0005C43.1747 41.0005 45.2604 40.1366 46.7982 38.5988C48.336 37.061 49.1999 34.9753 49.1999 32.8005C49.1999 28.2718 45.5286 24.6005 40.9999 24.6005C36.4712 24.6005 32.7999 28.2718 32.7999 32.8005Z" fill="#C7CCD5"/>
</svg>
