<svg width="280" height="280" viewBox="0 0 280 280" fill="none" xmlns="http://www.w3.org/2000/svg">
<path opacity="0.3" fill-rule="evenodd" clip-rule="evenodd" d="M280 140C280 62.6801 217.32 0 140 0C62.6801 0 0 62.6801 0 140C0 217.32 62.6801 280 140 280C217.32 280 280 217.32 280 140ZM1 140C1 63.2324 63.2324 1 140 1C216.768 1 279 63.2324 279 140C279 216.768 216.768 279 140 279C63.2324 279 1 216.768 1 140Z" fill="#DFE4EC"/>
<path opacity="0.3" fill-rule="evenodd" clip-rule="evenodd" d="M242 140C242 83.667 196.333 38 140 38C83.667 38 38 83.667 38 140C38 196.333 83.667 242 140 242C196.333 242 242 196.333 242 140ZM39 140C39 84.2192 84.2192 39 140 39C195.781 39 241 84.2192 241 140C241 195.781 195.781 241 140 241C84.2192 241 39 195.781 39 140Z" fill="#DFE4EC"/>
<path opacity="0.5" fill-rule="evenodd" clip-rule="evenodd" d="M220 140C220 95.8172 184.183 60 140 60C95.8172 60 60 95.8172 60 140C60 184.183 95.8172 220 140 220C184.183 220 220 184.183 220 140ZM62 140C62 96.9218 96.9218 62 140 62C183.078 62 218 96.9218 218 140C218 183.078 183.078 218 140 218C96.9218 218 62 183.078 62 140Z" fill="#DFE4EC"/>
<path opacity="0.72" fill-rule="evenodd" clip-rule="evenodd" d="M204 140C204 104.654 175.346 76 140 76C104.654 76 76 104.654 76 140C76 175.346 104.654 204 140 204C175.346 204 204 175.346 204 140ZM77 140C77 105.206 105.206 77 140 77C174.794 77 203 105.206 203 140C203 174.794 174.794 203 140 203C105.206 203 77 174.794 77 140Z" fill="#DFE4EC"/>
<circle cx="140" cy="139" r="52" fill="#134FAE"/>
<path fill-rule="evenodd" clip-rule="evenodd" d="M134.728 155.87L161.477 129.121C162.648 127.95 162.648 126.05 161.477 124.879C160.305 123.707 158.406 123.707 157.234 124.879L132.607 149.506L122.121 139.021C120.95 137.849 119.05 137.849 117.879 139.021C116.707 140.192 116.707 142.092 117.879 143.263L130.485 155.87C131.657 157.042 133.556 157.042 134.728 155.87Z" fill="white"/>
</svg>
