<svg width="20" height="21" viewBox="0 0 20 21" fill="none" xmlns="http://www.w3.org/2000/svg">
<path fill-rule="evenodd" clip-rule="evenodd" d="M15.6059 4.03696C16.4425 6.45331 15.6558 9.13437 13.6461 10.7155C17.0836 12.0797 19.4875 15.2298 19.8961 18.9055C19.9546 19.4516 19.5618 19.9427 19.0161 20.0055H18.9061C18.3941 20.0086 17.9624 19.6244 17.9061 19.1155C17.4515 15.0682 14.0288 12.0085 9.95612 12.0085C5.88341 12.0085 2.46075 15.0682 2.00612 19.1155C1.94537 19.6678 1.4484 20.0662 0.896119 20.0055C0.343834 19.9447 -0.0546322 19.4478 0.00611917 18.8955C0.412736 15.2306 2.80322 12.0868 6.22612 10.7155C4.21647 9.13437 3.42973 6.45331 4.26633 4.03696C5.10294 1.62062 7.37904 0 9.93612 0C12.4932 0 14.7693 1.62062 15.6059 4.03696ZM5.93652 6.00586C5.93652 8.215 7.72738 10.0059 9.93652 10.0059C10.9974 10.0059 12.0148 9.58443 12.765 8.83429C13.5151 8.08414 13.9365 7.06673 13.9365 6.00586C13.9365 3.79672 12.1457 2.00586 9.93652 2.00586C7.72738 2.00586 5.93652 3.79672 5.93652 6.00586Z" fill="#134FAE"/>
</svg>
