<svg width="24" height="24" viewBox="0 0 24 24" fill="none" xmlns="http://www.w3.org/2000/svg">
<path d="M15.5 5L18 6.5L19 8.5V11V14L18.5 17.5L17 18.5L12 19.5L8.5 18.5L6 17L5.5 14.5V11V8L6.5 6.5L9 5H12H15.5Z" fill="#F3F5F9"/>
<path d="M11.9125 4.00699C14.3284 3.92159 18.0373 4.6028 19.299 6.95873C19.5535 7.43392 19.6786 7.96801 19.6786 8.50746L19.68 15.4431C19.68 15.9352 19.5768 16.4236 19.3628 16.8666C18.1911 19.2942 14.41 20.0222 11.9873 19.952C9.81339 19.8889 6.66942 19.1679 5.45665 17.1375C5.15325 16.6293 5.00141 16.0439 5.00141 15.4515L5 8.49675C5 7.97111 5.11754 7.44998 5.36048 6.9841C6.48046 4.83701 9.68826 4.08562 11.9125 4.00699ZM11.6875 5.2471C10.2408 5.32009 8.47915 5.73074 7.29731 6.59628C5.64645 7.80567 6.02803 9.24138 7.6353 10.2219C10.1266 11.7416 14.5525 11.7419 17.0444 10.2219C18.9169 9.07988 18.9157 7.51312 17.0444 6.37137C15.5207 5.44185 13.4492 5.15803 11.6875 5.24681V5.2471ZM18.4419 10.7346C17.8692 11.1855 17.2618 11.5446 16.5852 11.8188C14.0363 12.8515 10.644 12.8515 8.09504 11.8188C7.4185 11.5449 6.81114 11.1855 6.23835 10.7346V12.2424C6.23835 12.8025 7.16346 13.6116 7.60746 13.8859C10.1179 15.436 14.694 15.434 17.1741 13.8185C17.5882 13.5488 18.4417 12.7698 18.4417 12.2424V10.7346H18.4419ZM18.4419 14.3985C16.4295 16.0313 13.5029 16.4645 10.9767 16.2021C9.29684 16.0276 7.55122 15.48 6.23835 14.3985V15.9064C6.23835 16.3813 6.93486 17.0868 7.29759 17.3531C9.77908 19.1761 14.9195 19.1676 17.399 17.3413C17.7556 17.0786 18.4419 16.3731 18.4419 15.9064V14.3985Z" fill="#134FAE"/>
</svg>
